<svg width="100" height="101" viewBox="0 0 100 101" fill="none" xmlns="http://www.w3.org/2000/svg">
<path d="M43.6974 23.0327H19.2949C18.3359 23.0327 17.5566 22.2207 17.5566 21.2215V19.2955C17.5566 17.0104 18.504 14.8369 20.1582 13.3336C21.8125 11.8302 24.0056 11.148 26.1814 11.4589L38.7694 13.2581C42.5704 13.8015 45.4357 17.2247 45.4357 21.2215C45.4357 22.2207 44.6593 23.0327 43.6974 23.0327ZM21.0332 19.4102H41.5825C40.9944 18.0639 39.7747 17.0587 38.2972 16.8473L25.7091 15.0482C24.53 14.8791 23.3393 15.2504 22.4441 16.0655C21.5489 16.8806 21.0332 18.0579 21.0332 19.2986V19.4102Z" fill="#EB5757"/>
<path d="M82.2147 81.6957C81.8265 81.6957 81.4383 81.5629 81.1167 81.2882L70.942 72.6184C70.1974 71.9845 70.0902 70.8434 70.6957 70.0706C71.3041 69.2948 72.3993 69.1831 73.1409 69.814L83.3156 78.4838C84.0602 79.1177 84.1674 80.2588 83.5619 81.0316C83.2171 81.4693 82.7188 81.6957 82.2147 81.6957Z" fill="#EB5757"/>
<path d="M72.04 73.0289C71.6518 73.0289 71.2636 72.8961 70.942 72.6214L60.7673 63.9516C60.0227 63.3177 59.9155 62.1766 60.521 61.4038C61.1294 60.628 62.2245 60.5163 62.9662 61.1473L73.1409 69.817C73.8855 70.451 73.9927 71.592 73.3872 72.3648C73.0424 72.7995 72.5441 73.0289 72.04 73.0289Z" fill="#EB5757"/>
<path d="M88.5884 81.6957H82.2147C81.2558 81.6957 80.4764 80.8837 80.4764 79.8845C80.4764 78.8853 81.2558 78.0732 82.2147 78.0732H88.5884C89.5474 78.0732 90.3267 78.8853 90.3267 79.8845C90.3267 80.8837 89.5502 81.6957 88.5884 81.6957Z" fill="#EB5757"/>
<path d="M61.8653 64.3593H55.4916C54.5327 64.3593 53.7533 63.5472 53.7533 62.548C53.7533 61.5489 54.5327 60.7368 55.4916 60.7368H61.8653C62.8242 60.7368 63.6036 61.5489 63.6036 62.548C63.6036 63.5472 62.8271 64.3593 61.8653 64.3593Z" fill="#EB5757"/>
<path d="M73.7783 42.1927V15.4679H75.8063C79.8999 15.4679 83.2287 11.9994 83.2287 7.73396C83.2287 3.46851 79.8999 0 75.8063 0H58.7567C57.7977 0 57.0184 0.812036 57.0184 1.81123C57.0184 2.81043 57.7977 3.62246 58.7567 3.62246H75.8063C77.982 3.62246 79.7522 5.4669 79.7522 7.73396C79.7522 10.001 77.982 11.8455 75.8063 11.8455H72.04C71.0811 11.8455 70.3017 12.6575 70.3017 13.6567V26.1663C55.0889 26.5979 40.8495 32.6716 30.0287 43.3911C31.0775 38.546 32.219 31.926 32.219 26.0757V21.2216C32.219 20.2224 31.4396 19.4104 30.4807 19.4104C29.5217 19.4104 28.7424 20.2224 28.7424 21.2216V26.0757C28.7424 35.1832 25.6917 46.7419 25.092 48.9184C19.9844 55.4026 16.334 62.8015 14.3118 70.7135C14.2742 70.7135 14.2365 70.7105 14.1988 70.7105C6.37079 70.7105 0 77.3456 0 85.5052C0 93.6618 6.36789 100.3 14.1988 100.3C22.0269 100.3 28.3977 93.6648 28.3977 85.5052C28.3977 78.6497 23.8984 72.8689 17.8144 71.1995C24.0462 47.9071 45.1112 30.5585 70.3046 29.7917V42.1927C55.7205 43.1315 44.132 55.789 44.132 71.2177C44.132 87.2531 56.6534 100.3 72.0429 100.3C87.4325 100.3 99.9538 87.2531 99.9538 71.2177C99.951 55.789 88.3624 43.1315 73.7783 42.1927ZM24.9182 85.5052C24.9182 91.6665 20.109 96.6775 14.1959 96.6775C8.28289 96.6775 3.47366 91.6665 3.47366 85.5052C3.47366 79.5886 7.91206 74.7345 13.5006 74.3601C12.8111 77.9977 12.4577 81.7228 12.4577 85.5052C12.4577 86.5044 13.237 87.3165 14.1959 87.3165C15.1549 87.3165 15.9342 86.5044 15.9342 85.5052C15.9342 81.8164 16.2992 78.212 16.9917 74.7224C21.5546 76.0053 24.9182 80.3523 24.9182 85.5052ZM72.04 96.6775C58.5655 96.6775 47.6056 85.2547 47.6056 71.2177C47.6056 57.7874 57.6384 46.763 70.3017 45.8302V67.9031C69.1777 68.5431 68.4186 69.7868 68.4186 71.2207C68.4186 73.3036 70.0526 74.9941 72.0545 74.9941C74.0535 74.9941 75.6759 73.3036 75.6759 71.2207C75.6759 69.7868 74.9082 68.54 73.7783 67.9031V45.8332C86.4416 46.766 96.4744 57.7934 96.4744 71.2207C96.4744 85.2547 85.5146 96.6775 72.04 96.6775Z" fill="#333333"/>
<path d="M14.2104 88.2223C12.7705 88.2223 11.5885 87.0057 11.5885 85.5054C11.5885 84.0051 12.7416 82.7886 14.1814 82.7886H14.2104C15.6503 82.7886 16.8178 84.0051 16.8178 85.5054C16.8178 87.0057 15.6503 88.2223 14.2104 88.2223Z" fill="#333333"/>
</svg>
