<svg width="393" height="280" viewBox="0 0 393 280" fill="none" xmlns="http://www.w3.org/2000/svg">
<path d="M236.626 54.9693V9.44785V0H101.35C67.5665 3.14928 0 27.8282 0 101.35C0 174.871 67.5665 199.55 101.35 202.699H236.626V147.73H101.35C85.8896 144.724 54.9693 131.239 54.9693 101.35C54.9693 71.4601 85.8896 57.9755 101.35 54.9693H236.626Z" fill="#0D2371"/>
<path d="M155.46 225.031V270.552V280H290.736C324.519 276.851 392.086 252.172 392.086 178.65C392.086 105.129 324.519 80.4499 290.736 77.3006L155.46 77.3006V132.27L290.736 132.27C306.196 135.276 337.117 148.761 337.117 178.65C337.117 208.54 306.196 222.025 290.736 225.031L155.46 225.031Z" fill="#0D2371"/>
</svg>
