<svg width="124" height="109" viewBox="0 0 124 109" fill="none" xmlns="http://www.w3.org/2000/svg">
<path d="M100.617 42.9995C94.2677 42.9995 89.1221 38.028 88.9035 31.6857L88.596 22.7985C88.4849 19.594 89.6518 16.5562 91.8783 14.2483C94.1047 11.9403 97.1017 10.6697 100.31 10.6697H100.929C104.137 10.6697 107.13 11.9403 109.36 14.2483C111.59 16.5562 112.754 19.594 112.642 22.7985L112.335 31.6857C112.109 38.0317 106.963 42.9995 100.617 42.9995ZM100.306 15.1152C98.3131 15.1152 96.4571 15.9042 95.0716 17.3379C93.6898 18.7716 92.9637 20.6535 93.0341 22.6466L93.3416 31.5338C93.4786 35.4718 96.672 38.5577 100.614 38.5577C104.555 38.5577 107.749 35.4718 107.886 31.5338L108.193 22.6466C108.264 20.6572 107.538 18.7716 106.156 17.3379C104.774 15.9042 102.914 15.1152 100.921 15.1152H100.306Z" fill="#828282"/>
<path d="M23.84 42.9995C17.4904 42.9995 12.3447 38.028 12.1261 31.6857L11.8187 22.7985C11.7075 19.594 12.8745 16.5562 15.1009 14.2483C17.3274 11.9403 20.3244 10.6697 23.5325 10.6697H24.1512C27.3594 10.6697 30.3527 11.9403 32.5828 14.2483C34.813 16.5562 35.9762 19.594 35.8651 22.7985L35.5539 31.6857C35.3316 38.0317 30.186 42.9995 23.84 42.9995ZM23.5288 15.1152C21.5358 15.1152 19.6798 15.9042 18.2943 17.3379C16.9125 18.7716 16.1864 20.6535 16.2568 22.6466L16.5642 31.5338C16.7013 35.4718 19.8946 38.5577 23.8363 38.5577C27.778 38.5577 30.9713 35.4718 31.1084 31.5338L31.4159 22.6466C31.4863 20.6572 30.7602 18.7716 29.3784 17.3379C27.9965 15.9042 26.1369 15.1152 24.1438 15.1152H23.5288Z" fill="#828282"/>
<path d="M107.593 47.9008H93.6417C89.889 47.9008 86.3585 49.1603 83.4949 51.4794C80.0533 48.8714 75.8635 47.4525 71.4958 47.4525H53.825C49.2387 47.4525 44.8969 48.9973 41.3776 51.8313C38.4584 49.3159 34.7168 47.9008 30.8158 47.9008H16.8644C7.94379 47.9008 0.686523 55.158 0.686523 64.0749V68.7427C0.686523 71.1507 2.49065 73.1771 4.88751 73.4549L9.51823 73.9884C10.6963 74.1217 11.8558 74.4255 12.9487 74.8775C12.9635 74.8849 12.982 74.8923 12.9968 74.8997C16.4347 76.326 20.0615 77.0521 23.7846 77.0521C27.3854 77.0521 30.8973 76.3667 34.2352 75.0331C34.8983 76.952 36.6098 78.4005 38.7288 78.645L44.5894 79.3193C46.1454 79.5008 47.6679 79.8935 49.1164 80.4973L49.1609 80.5158C53.4434 82.294 57.9667 83.198 62.6011 83.198C65.1054 83.198 67.6171 82.9275 70.0658 82.3904C71.2661 82.1273 72.0255 80.9419 71.7625 79.7453C71.4995 78.545 70.314 77.7856 69.1174 78.0486C66.9799 78.5154 64.7868 78.7525 62.6011 78.7525C58.5557 78.7525 54.6066 77.9634 50.865 76.4112L50.8242 76.3926C48.9979 75.6332 47.0715 75.1294 45.1007 74.9034L39.24 74.2292C38.751 74.1736 38.3843 73.7587 38.3843 73.2623V67.3535C38.3843 63.2377 39.9847 59.3627 42.889 56.4472C45.8082 53.5169 49.6943 51.9017 53.8324 51.9017H71.5032C75.4337 51.9017 79.1791 53.3798 82.0501 56.0619C83.8172 57.7105 85.1879 59.7739 86.014 62.0263C86.4363 63.1784 87.7144 63.7712 88.8665 63.3451C90.0187 62.9228 90.6114 61.6447 90.1854 60.4926C89.4 58.3477 88.2293 56.3435 86.7586 54.5838C88.748 53.1316 91.13 52.3463 93.6491 52.3463H107.601C114.069 52.3463 119.329 57.6068 119.329 64.0749V68.7427C119.329 68.8946 119.214 69.0205 119.066 69.0391L114.18 69.6022C112.642 69.78 111.142 70.1727 109.727 70.7654C109.72 70.7691 109.708 70.7728 109.701 70.7765C108.605 71.2137 108.034 72.4362 108.423 73.5661C108.742 74.4885 109.601 75.0664 110.523 75.0664C110.764 75.0664 111.009 75.0257 111.246 74.9442C111.283 74.9294 111.327 74.9145 111.376 74.896C111.39 74.8886 111.405 74.8849 111.42 74.8775C112.461 74.4403 113.565 74.1514 114.695 74.0217L119.581 73.4586C121.974 73.1808 123.775 71.1544 123.775 68.7464V64.0786C123.767 55.1543 116.51 47.9008 107.593 47.9008ZM33.9314 67.3498V70.3912C33.5869 70.5098 33.246 70.6357 32.9163 70.7728C30.0082 71.9879 26.9371 72.6066 23.7846 72.6066C20.6505 72.6066 17.5942 71.9953 14.7157 70.7987C14.7009 70.7913 14.6824 70.7839 14.6676 70.7765C13.1784 70.1579 11.615 69.7504 10.0221 69.5688L5.39874 69.0354C5.24685 69.0168 5.12831 68.8872 5.12831 68.739V64.0712C5.12831 57.6031 10.3925 52.3426 16.8607 52.3426H30.8121C33.535 52.3426 36.1504 53.2909 38.2324 54.9913C35.4503 58.4959 33.9314 62.8043 33.9314 67.3498Z" fill="#828282"/>
<path d="M62.6603 42.0068C54.5843 42.0068 48.0346 35.6831 47.7531 27.6108L47.3382 15.7339C47.1974 11.6552 48.6792 7.79131 51.5169 4.85358C54.3546 1.91585 58.1629 0.300659 62.2454 0.300659H63.0715C67.1539 0.300659 70.9622 1.91956 73.7999 4.85358C76.6377 7.79131 78.1195 11.6552 77.9787 15.7339L77.5638 27.6108C77.2859 35.6831 70.74 42.0068 62.6603 42.0068ZM62.2491 4.74615C59.3854 4.74615 56.7107 5.87975 54.7177 7.9432C52.7246 10.0066 51.6873 12.7147 51.7837 15.582L52.1986 27.4589C52.3949 33.1269 56.9923 37.565 62.6603 37.565C68.3283 37.565 72.9257 33.1269 73.122 27.4589L73.5369 15.582C73.6369 12.7184 72.596 10.0066 70.6029 7.9432C68.6098 5.87975 65.9388 4.74615 63.0715 4.74615H62.2491Z" fill="#828282"/>
<path d="M92.2118 108.711C90.704 108.711 89.1999 108.578 87.744 108.315C86.9179 108.167 86.2474 107.563 86.0103 106.755L85.3842 104.629L83.6283 105.981C82.9614 106.492 82.0649 106.585 81.3055 106.222C78.5974 104.914 76.1672 103.147 74.0853 100.965C73.5037 100.358 73.3147 99.4759 73.5963 98.6831L74.3372 96.6011L72.1256 96.6641C71.2809 96.6863 70.503 96.2344 70.1066 95.4972C68.6729 92.8336 67.7468 89.9736 67.3467 86.9877C67.2355 86.1579 67.6023 85.3355 68.295 84.8613L70.1177 83.6129L68.295 82.3644C67.6023 81.8903 67.2355 81.0678 67.3467 80.238C67.7468 77.2521 68.6729 74.3885 70.1029 71.7323C70.4992 70.9914 71.2883 70.5431 72.1219 70.5654L74.3372 70.6283L73.5963 68.5464C73.3147 67.7536 73.5037 66.8719 74.0853 66.2644C76.1672 64.0898 78.5975 62.3227 81.3092 61.0113C82.0686 60.6445 82.9651 60.7371 83.6357 61.2521L85.3879 62.6005L86.014 60.4815C86.2511 59.6739 86.9253 59.0701 87.7552 58.9219C90.6929 58.3958 93.7529 58.3958 96.6869 58.9219C97.5167 59.0701 98.1872 59.6739 98.428 60.4815L99.0541 62.6005L100.806 61.2521C101.473 60.7371 102.373 60.6445 103.133 61.0113C105.841 62.3227 108.275 64.0898 110.357 66.2644C110.938 66.8719 111.127 67.7536 110.846 68.5464L110.105 70.6283L112.32 70.5654C113.157 70.5468 113.943 70.9951 114.339 71.7323C115.769 74.3885 116.695 77.2521 117.095 80.238C117.207 81.0678 116.84 81.8903 116.147 82.3644L114.324 83.6129L116.147 84.8613C116.84 85.3355 117.207 86.1579 117.095 86.9877C116.695 89.9699 115.769 92.8336 114.335 95.4972C113.939 96.2381 113.161 96.6863 112.316 96.6641L110.101 96.6011L110.842 98.6831C111.124 99.4759 110.935 100.358 110.353 100.965C108.271 103.143 105.841 104.91 103.133 106.222C102.377 106.589 101.477 106.496 100.81 105.981L99.0541 104.629L98.428 106.755C98.1909 107.559 97.5204 108.163 96.6943 108.315C95.2236 108.578 93.7195 108.711 92.2118 108.711ZM89.8705 104.136C91.4116 104.31 93.0082 104.31 94.5531 104.136L95.6941 100.261C95.9015 99.5574 96.4424 99.0017 97.1388 98.7757C97.8353 98.5497 98.5984 98.6794 99.1801 99.1276L102.381 101.591C103.744 100.821 105.007 99.8982 106.163 98.8387L104.811 95.0378C104.567 94.345 104.678 93.5782 105.107 92.9855C105.537 92.3927 106.237 92.0482 106.967 92.0704L111.005 92.1816C111.657 90.7516 112.142 89.2624 112.45 87.725L109.119 85.4429C108.516 85.028 108.153 84.3427 108.153 83.6092C108.153 82.8757 108.516 82.1903 109.119 81.7754L112.45 79.4934C112.142 77.956 111.657 76.4667 111.005 75.0405L106.963 75.1516C106.23 75.1739 105.533 74.8293 105.104 74.2366C104.674 73.6439 104.563 72.877 104.807 72.1843L106.159 68.3834C105.004 67.3239 103.737 66.4014 102.373 65.6309L99.1764 68.0944C98.5947 68.5427 97.8316 68.6723 97.1351 68.4463C96.4387 68.2204 95.8978 67.6647 95.6904 66.9608L94.5493 63.0932C92.9934 62.9191 91.419 62.9191 89.8631 63.0932L88.722 66.9608C88.5146 67.6647 87.9737 68.2204 87.2773 68.4463C86.5808 68.6723 85.814 68.539 85.236 68.0944L82.039 65.6309C80.6757 66.4051 79.4088 67.3239 78.2529 68.3834L79.6051 72.1843C79.8496 72.877 79.7385 73.6439 79.3087 74.2366C78.879 74.8293 78.1788 75.1702 77.449 75.1516L73.4073 75.0405C72.7553 76.4667 72.2737 77.956 71.9626 79.4934L75.293 81.7754C75.8968 82.1903 76.2599 82.8757 76.2599 83.6092C76.2599 84.3427 75.8968 85.028 75.293 85.4429L71.9626 87.725C72.27 89.2624 72.7553 90.7516 73.4073 92.1816L77.4453 92.0704C78.1862 92.0519 78.8753 92.3927 79.305 92.9855C79.7348 93.5782 79.8459 94.345 79.6014 95.0378L78.2492 98.8387C79.405 99.8982 80.6683 100.821 82.0316 101.591L85.2323 99.1276C85.814 98.6794 86.5771 98.5497 87.2736 98.7757C87.97 99.0017 88.5109 99.5574 88.7184 100.261L89.8705 104.136Z" fill="url(#paint0_linear_833_17)"/>
<path d="M92.2118 94.1006C86.429 94.1006 81.7279 89.3958 81.7279 83.6166C81.7279 77.8375 86.4327 73.1327 92.2118 73.1327C97.991 73.1327 102.696 77.8375 102.696 83.6166C102.696 89.3958 97.991 94.1006 92.2118 94.1006ZM92.2118 77.5782C88.8814 77.5782 86.1734 80.2862 86.1734 83.6166C86.1734 86.947 88.8814 89.6551 92.2118 89.6551C95.5423 89.6551 98.2503 86.947 98.2503 83.6166C98.2503 80.2862 95.5423 77.5782 92.2118 77.5782Z" fill="url(#paint1_linear_833_17)"/>
<defs>
<linearGradient id="paint0_linear_833_17" x1="67.327" y1="80.0061" x2="117.117" y2="80.1317" gradientUnits="userSpaceOnUse">
<stop stop-color="#EB5757"/>
<stop offset="0.817708" stop-color="#EB9659"/>
</linearGradient>
<linearGradient id="paint1_linear_833_17" x1="81.7279" y1="82.1069" x2="102.697" y2="82.1603" gradientUnits="userSpaceOnUse">
<stop stop-color="#EB5757"/>
<stop offset="0.817708" stop-color="#EB9659"/>
</linearGradient>
</defs>
</svg>
