<svg width="159" height="141" viewBox="0 0 159 141" fill="none" xmlns="http://www.w3.org/2000/svg">
<g clip-path="url(#clip0_669_3)">
<path d="M143.237 80.4966C143.219 81.3659 143.36 81.6763 143.286 82.0093C133.521 102.872 118.15 117.925 96.1133 125.327C90.5531 127.21 84.6209 127.614 78.6615 126.72C65.8719 124.914 56.1872 115.411 54.0995 102.727C52.9738 96.1226 53.0526 89.6091 56.0998 83.4355C59.171 82.6804 62.2533 82.0326 65.0871 81.0855C69.7027 79.5183 73.3128 76.6468 75.2165 72.0023C76.7064 68.5938 76.3697 65.3764 74.471 63.8404C71.9788 61.8243 68.9702 62.1392 66.6448 63.792C63.4084 66.0823 60.4318 68.779 57.6814 71.5605C55.9156 73.3716 54.5284 75.6852 53.1186 77.7843C40.786 77.2318 34.4275 66.2962 38.0411 52.0401C39.7154 51.4313 41.4971 50.8111 43.1602 50.0949C49.2753 47.2866 53.6953 42.8125 55.2783 36.1416C55.8798 33.5849 55.9215 30.87 53.4406 28.9612C51.5531 27.5324 48.5445 27.8473 45.7155 29.8781C41.2795 33.1613 38.3863 37.6925 35.9565 42.5004C35.1578 44.2103 34.3591 45.9202 33.6679 47.6189C14.6397 47.4418 -0.44616 31.9984 5.34693 14.6953C3.96131 14.9488 2.76813 14.9652 2.16833 15.4616C1.4723 16.0766 1.16596 17.3013 1.05207 18.289C0.286854 27.5848 2.24799 35.9449 9.6394 42.2187C15.132 46.9565 21.5196 49.866 28.6433 51.5057C29.644 51.7263 30.6447 51.9468 31.6567 52.2746C31.7641 52.2634 31.894 52.4666 32.2612 52.8618C32.2548 53.8383 32.3783 55.018 32.2868 56.2202C31.5343 70.8274 36.1881 77.9298 50.3152 83.1735C50.0201 84.5054 49.7474 86.0519 49.3561 87.5023C47.4266 96.0526 48.0759 104.333 51.745 112.406C57.6832 125.554 70.3156 133.123 85.2446 132.536C93.3595 132.229 100.95 130.025 108.168 126.342C125.587 117.364 138.665 104.286 146.195 85.9333C146.643 85.0191 146.972 84.0089 147.419 83.0947C147.515 82.9762 147.719 82.8465 148.33 82.4573C149.571 86.0137 149.608 89.4793 149.752 92.9337C149.993 96.2696 150.03 99.7352 150.196 103.404C152.956 102.79 153.874 101.176 154.327 99.2854C154.748 97.073 155.383 94.8381 155.266 92.682C154.875 86.8682 154.365 80.9584 153.425 75.0936C152.62 70.5157 150.014 69.4874 146.467 71.9186C138.976 77.1478 131.496 82.4843 124.016 87.8207C122.805 88.7064 121.831 89.7841 120.451 91.1212C123.028 92.9115 124.657 91.8736 126.19 90.9542C131.678 87.3441 137.2 84.0557 143.237 80.4966ZM50.5538 32.516C50.3612 40.0172 46.116 45.1235 39.4878 46.1424C42.195 40.8718 44.6023 35.8493 50.5538 32.516ZM71.002 67.0223C70.1599 73.5073 66.1762 76.96 59.5544 77.0024C62.5663 72.5672 65.4194 68.6908 71.002 67.0223Z" fill="white"/>
</g>
<defs>
<clipPath id="clip0_669_3">
<rect width="125.63" height="146.568" fill="white" transform="matrix(0.104082 0.994569 0.994569 -0.104082 0 15.2549)"/>
</clipPath>
</defs>
</svg>
