<svg width="284" height="203" viewBox="0 0 284 203" fill="none" xmlns="http://www.w3.org/2000/svg">
<path d="M82.0194 39.816H138.423C156.633 39.816 171.395 25.0536 171.395 6.84337C171.395 3.06388 168.331 0 164.552 0H73.4107C48.9405 2.28112 0 20.1568 0 73.4107C0 126.665 48.9405 144.54 73.4107 146.821H151.487C162.482 146.821 171.395 137.908 171.395 126.913C171.395 115.919 162.482 107.005 151.487 107.005H82.0194C80.4295 107.005 79.6345 107.005 76.8499 106.741C75.0254 106.567 68.2707 105.31 66.506 104.815C63.8126 104.06 66.067 104.93 65.1652 104.582C53.7771 100.19 39.816 90.5041 39.816 73.4107C39.816 56.3174 53.7771 46.6312 65.1653 42.2394C66.067 41.8917 63.8126 42.7611 66.506 42.006C68.2707 41.5113 75.0254 40.254 76.8499 40.0806C79.6345 39.816 80.4295 39.816 82.0194 39.816Z" fill="url(#paint0_linear_207_7)"/>
<path d="M201.981 162.997H145.577C127.367 162.997 112.605 177.759 112.605 195.969C112.605 199.749 115.669 202.813 119.448 202.813L210.589 202.812C235.06 200.531 284 182.656 284 129.402C284 76.1479 235.06 58.2722 210.589 55.9911L132.513 55.9911C121.518 55.9911 112.605 64.9042 112.605 75.8991C112.605 86.8939 121.518 95.8071 132.513 95.8071H201.981C203.57 95.8071 204.365 95.8071 207.15 96.0717C208.975 96.2451 215.729 97.5024 217.494 97.9971C220.187 98.7521 217.933 97.8828 218.835 98.2305C230.223 102.622 244.184 112.308 244.184 129.402C244.184 146.495 230.223 156.181 218.835 160.573C217.933 160.921 220.187 160.051 217.494 160.806C215.729 161.301 208.975 162.558 207.15 162.732C204.365 162.997 203.57 162.997 201.981 162.997Z" fill="url(#paint1_linear_207_7)"/>
<defs>
<linearGradient id="paint0_linear_207_7" x1="2.41402" y1="72.0308" x2="170.19" y2="71.2761" gradientUnits="userSpaceOnUse">
<stop stop-color="#EB5757"/>
<stop offset="0.958333" stop-color="#E89356"/>
</linearGradient>
<linearGradient id="paint1_linear_207_7" x1="281.586" y1="130.782" x2="113.81" y2="131.536" gradientUnits="userSpaceOnUse">
<stop stop-color="#EB5757"/>
<stop offset="0.958333" stop-color="#E89356"/>
</linearGradient>
</defs>
</svg>
