<svg width="113" height="146" viewBox="0 0 113 146" fill="none" xmlns="http://www.w3.org/2000/svg">
<path d="M76.1692 68.7754C74.9429 68.7754 73.9464 67.7789 73.9464 66.5527V50.4526C73.9464 49.2264 74.9429 48.2299 76.1692 48.2299C77.3954 48.2299 78.3919 49.2264 78.3919 50.4526V66.5527C78.3919 67.7789 77.3991 68.7754 76.1692 68.7754Z" fill="#828282"/>
<path d="M67.8784 87.2761C66.6522 87.2761 65.6556 86.2796 65.6556 85.0533V49.3227C65.6556 41.1838 71.7089 34.3525 79.7367 33.4338C82.9227 33.067 86.1568 32.8744 89.3168 32.8892C90.543 32.8892 91.5543 33.8858 91.5506 35.112C91.5506 36.3382 90.5689 37.3347 89.3427 37.3347C89.3131 37.3347 89.2834 37.3347 89.2538 37.3347C86.2494 37.3347 83.2301 37.5088 80.2443 37.8496C74.4614 38.5128 70.1048 43.4436 70.1048 49.3227V82.412C70.4271 82.286 70.7383 82.1304 71.0347 81.9489C72.0831 81.308 73.4501 81.6377 74.091 82.6861C74.7319 83.7345 74.3984 85.1015 73.3537 85.7424C71.7089 86.7463 69.8159 87.2761 67.8784 87.2761Z" fill="#828282"/>
<path d="M102.487 68.7828C101.26 68.7828 100.264 67.7863 100.264 66.5601V50.4526C100.264 49.2264 101.26 48.2299 102.487 48.2299C103.713 48.2299 104.709 49.2264 104.709 50.4526V66.5601C104.709 67.7863 103.716 68.7828 102.487 68.7828Z" fill="#828282"/>
<path d="M110.777 87.2762C108.84 87.2762 106.947 86.7464 105.302 85.7425C104.254 85.1016 103.924 83.7346 104.565 82.6862C105.206 81.6378 106.573 81.3081 107.621 81.949C107.917 82.1305 108.232 82.2861 108.555 82.412V49.3228C108.555 43.4436 104.198 38.5128 98.4188 37.8497C95.4329 37.5089 92.41 37.3348 89.4352 37.3348C89.4056 37.3348 89.376 37.3348 89.3463 37.3348L89.313 35.112V32.8893C92.5323 32.893 95.7367 33.0671 98.9227 33.4339C106.947 34.3526 113 41.1838 113 49.3228V85.0534C113 86.2796 112.007 87.2762 110.777 87.2762Z" fill="#828282"/>
<path d="M89.313 144.997H73.3574C72.498 144.997 71.7126 144.501 71.3458 143.723C70.9791 142.945 71.0939 142.026 71.6422 141.359C74.2613 138.181 76.3766 135.687 77.4139 134.472L70.7049 98.2416C68.623 86.9908 70.316 69.8831 76.1581 62.3517C76.9101 61.3811 78.3067 61.207 79.2773 61.959C80.2479 62.711 80.422 64.1077 79.67 65.0783C75.1171 70.9463 72.9684 86.0684 75.0726 97.434L81.9743 134.709C82.0965 135.373 81.9113 136.054 81.4704 136.565C81.4519 136.588 80.1405 138.107 78.0919 140.552H87.0866V83.5789C87.0866 82.3527 88.0831 81.3562 89.3093 81.3562C90.5355 81.3562 91.5321 82.3527 91.5321 83.5789V142.774C91.5358 144.001 90.5429 144.997 89.313 144.997Z" fill="#828282"/>
<path d="M77.9177 65.934C76.8212 65.934 75.8654 65.119 75.7172 64.0002L73.9687 50.7378C73.8094 49.519 74.6651 48.404 75.8802 48.2447C77.099 48.0854 78.2141 48.9411 78.3734 50.1562L80.122 63.4186C80.2813 64.6374 79.4255 65.7525 78.2104 65.9118C78.1104 65.9303 78.0141 65.934 77.9177 65.934Z" fill="#828282"/>
<path d="M105.295 144.997H89.339C88.1127 144.997 87.1162 144.001 87.1162 142.774V83.5789C87.1162 82.3527 88.1127 81.3562 89.339 81.3562C90.5652 81.3562 91.5617 82.3527 91.5617 83.5789V140.552H100.556C98.5078 138.107 97.1964 136.588 97.1778 136.565C96.737 136.054 96.5518 135.373 96.674 134.709L103.576 97.434C105.68 86.0647 103.531 70.9463 98.9783 65.0783C98.2262 64.1077 98.4041 62.711 99.371 61.959C100.342 61.207 101.738 61.3811 102.49 62.3517C108.332 69.8831 110.029 86.9908 107.943 98.2416L101.234 134.472C102.272 135.687 104.387 138.181 107.006 141.359C107.554 142.022 107.669 142.945 107.302 143.723C106.936 144.501 106.154 144.997 105.295 144.997Z" fill="#828282"/>
<path d="M100.738 65.9341C100.642 65.9341 100.542 65.9267 100.445 65.9155C99.2266 65.7562 98.3708 64.6375 98.5338 63.4224L100.282 50.16C100.442 48.9412 101.557 48.0854 102.776 48.2484C103.994 48.4077 104.85 49.5265 104.687 50.7416L102.939 64.004C102.79 65.1191 101.835 65.9341 100.738 65.9341Z" fill="#828282"/>
<path d="M26.8799 145.016H6.81587C6.05273 145.016 5.34516 144.627 4.93766 143.982C3.99299 142.489 3.74108 140.818 4.21156 139.151C5.17104 135.758 8.99787 133.128 11.0613 131.924L9.89808 75.4771C9.87215 74.2508 10.8465 73.2358 12.0764 73.2099C13.3063 73.1913 14.3176 74.1582 14.3436 75.3881L15.5364 133.187C15.555 134.05 15.0697 134.847 14.2917 135.228C12.6432 136.043 9.05344 138.37 8.49034 140.366C8.47182 140.437 8.4533 140.507 8.44218 140.574H24.6534L24.6645 89.5137C24.6645 88.2875 25.661 87.2909 26.8873 87.2909C28.1135 87.2909 29.11 88.2875 29.11 89.5137L29.1026 142.793C29.1026 144.023 28.1061 145.016 26.8799 145.016Z" fill="#828282"/>
<path d="M46.9624 145.016H26.8984C25.6722 145.016 24.6757 144.019 24.6757 142.793C24.6757 141.567 25.6722 140.57 26.8984 140.57H45.3324C45.3213 140.503 45.3064 140.433 45.2842 140.363C44.7248 138.366 41.1314 136.039 39.4791 135.224C38.7049 134.843 38.2196 134.046 38.2381 133.183L39.4273 75.3843C39.4532 74.173 40.4423 73.2061 41.65 73.2061C41.6648 73.2061 41.6797 73.2061 41.6982 73.2061C42.9244 73.232 43.8987 74.247 43.8765 75.4733L42.7132 131.92C44.7767 133.124 48.6035 135.754 49.563 139.147C50.0335 140.815 49.7853 142.485 48.8406 143.978C48.4331 144.627 47.7255 145.016 46.9624 145.016Z" fill="#828282"/>
<path d="M33.2962 28.0325H25.9945C20.4673 28.0325 15.9736 23.5352 15.9736 18.0117V11.6583C15.9736 6.1311 20.471 1.63745 25.9945 1.63745H27.8283C33.3555 1.63745 37.8491 6.1348 37.8491 11.6583V23.4759C37.8491 25.9876 35.8079 28.0325 33.2962 28.0325ZM25.9945 6.08294C22.9197 6.08294 20.4191 8.58353 20.4191 11.6583V18.008C20.4191 21.0828 22.9197 23.5834 25.9945 23.5834H33.2962C33.3518 23.5834 33.4074 23.5278 33.4074 23.4722V11.6546C33.4074 8.57982 30.9068 6.07924 27.832 6.07924H25.9945V6.08294Z" fill="#828282"/>
<path d="M3.05572 86.335C2.44817 86.335 2.05919 86.2906 2.00733 86.2869C0.888545 86.1535 0.0476074 85.2052 0.0476074 84.079V48.6892C0.0476074 40.5947 6.07495 33.7856 14.0694 32.8558C18.3038 32.3631 22.6048 32.1112 26.8502 32.1112C28.1024 32.1001 29.1174 33.0929 29.1174 34.3339C29.1174 35.5601 28.1209 36.5567 26.8947 36.5567C26.8761 36.553 26.865 36.5567 26.8502 36.5567C22.7752 36.5567 18.6483 36.7975 14.5844 37.2717C8.83116 37.9422 4.4931 42.8507 4.4931 48.6892V81.7821C5.53779 81.6154 6.81587 81.219 7.83833 80.3003C9.20161 79.0741 9.89437 77.0847 9.89437 74.3878V49.6116C9.89437 48.3854 10.8909 47.3888 12.1171 47.3888C13.3433 47.3888 14.3399 48.3854 14.3399 49.6116V74.3878C14.3399 78.4221 13.1396 81.5376 10.7686 83.6418C8.10876 86.0053 4.7413 86.335 3.05572 86.335Z" fill="#828282"/>
<path d="M50.7262 86.3352C49.0443 86.3352 45.6732 86.0054 43.017 83.6456C40.646 81.5414 39.4458 78.4259 39.4458 74.3916V49.6154C39.4458 48.3892 40.4423 47.3927 41.6685 47.3927C42.8947 47.3927 43.8913 48.3892 43.8913 49.6154V74.3916C43.8913 77.0885 44.584 79.0742 45.9473 80.3041C46.9698 81.2228 48.2478 81.6192 49.2925 81.7859V48.693C49.2925 42.8546 44.9545 37.946 39.2013 37.2755C35.1373 36.8013 31.0104 36.5605 26.9354 36.5605C26.9206 36.5605 26.8984 36.5605 26.891 36.5605C25.6647 36.5605 24.6682 35.5677 24.6682 34.3377C24.6682 33.1115 25.661 32.115 26.891 32.115C26.9058 32.115 26.9206 32.115 26.9391 32.115C31.1846 32.115 35.4856 32.3632 39.7199 32.8596C47.7144 33.7895 53.7417 40.5985 53.7417 48.693V84.0828C53.7417 85.209 52.9008 86.1573 51.782 86.2907C51.7227 86.2944 51.3337 86.3352 50.7262 86.3352Z" fill="#828282"/>
<path d="M83.1449 29.8218C81.1852 29.8218 79.407 28.5474 78.8143 26.6544C78.2475 24.854 77.7659 21.9718 77.4881 18.7525C76.899 12.4251 78.1364 7.78329 81.1704 4.96782C84.5082 1.87079 88.8055 2.20421 89.7539 2.32646C93.1806 2.45982 99.4969 4.67145 99.7229 12.2214C100.16 26.8989 91.0135 28.7549 90.6208 28.8253C90.5874 28.8327 90.5578 28.8364 90.5245 28.8401L83.6821 29.7922C83.6562 29.7959 83.6265 29.7996 83.6006 29.8033C83.4487 29.8144 83.2968 29.8218 83.1449 29.8218ZM88.4758 6.69045C87.4682 6.69045 85.6011 6.8979 84.1637 8.25378C82.2447 10.0616 81.4668 13.555 81.915 18.3524C82.1632 21.2383 82.5893 23.8389 83.056 25.3208C83.0672 25.3504 83.1005 25.3726 83.1375 25.3726L89.8206 24.4428C90.3911 24.2946 95.5886 22.6646 95.2811 12.3436C95.2145 10.0505 94.2846 8.48346 92.4471 7.55361C91.0061 6.82381 89.5316 6.75713 89.5168 6.75713C89.4094 6.75342 89.302 6.74601 89.1982 6.72749C89.1982 6.7312 88.9204 6.69045 88.4758 6.69045Z" fill="#828282"/>
<path d="M99.7303 16.7595C98.6374 16.7595 97.6372 16.5706 96.674 16.1853C95.533 15.7259 94.981 14.433 95.4404 13.2957C95.8997 12.1547 97.1926 11.6027 98.33 12.0621C98.7708 12.2399 99.2005 12.3177 99.7303 12.3177C101.901 12.3177 103.668 10.5506 103.668 8.37975C103.668 6.20887 101.901 4.44179 99.7303 4.44179C98.1188 4.44179 96.737 5.342 96.1257 6.79419C95.6478 7.92409 94.3438 8.45384 93.2139 7.97595C92.084 7.49806 91.5543 6.19405 92.0322 5.06415C93.3325 1.98936 96.3554 0 99.7303 0C104.354 0 108.114 3.76014 108.114 8.38345C108.114 13.0068 104.354 16.7595 99.7303 16.7595Z" fill="#828282"/>
<path d="M41.6686 64.6301H12.1172C10.8909 64.6301 9.89441 63.6335 9.89441 62.4073C9.89441 61.1811 10.8909 60.1846 12.1172 60.1846H41.6574C42.8837 60.1846 43.8876 61.1811 43.8876 62.4073C43.8876 63.6335 42.8985 64.6301 41.6686 64.6301Z" fill="url(#paint0_linear_833_28)"/>
<defs>
<linearGradient id="paint0_linear_833_28" x1="9.89441" y1="62.0872" x2="43.8761" y2="62.7478" gradientUnits="userSpaceOnUse">
<stop stop-color="#EB5757"/>
<stop offset="0.817708" stop-color="#EB9659"/>
</linearGradient>
</defs>
</svg>
