<svg width="115" height="106" viewBox="0 0 115 106" fill="none" xmlns="http://www.w3.org/2000/svg">
<path d="M57.493 105.437C56.9481 105.437 56.4254 105.222 56.0388 104.835L10.1128 58.9124C3.58955 52.3986 0 43.7336 0 34.5142C0 25.2979 3.59272 16.633 10.116 10.116C16.6393 3.59272 25.3043 0 34.5174 0C43.0715 0 51.1567 3.10165 57.493 8.77904C64.8147 2.2209 74.4967 -0.887091 84.3497 0.221773C92.1878 1.10253 99.2845 4.52417 104.87 10.1192C111.393 16.6425 114.986 25.3106 114.986 34.5205C114.986 43.7241 111.393 52.3859 104.867 58.9092L58.9472 104.835C58.5607 105.222 58.038 105.437 57.493 105.437ZM34.5174 4.1123C26.4036 4.1123 18.7715 7.27732 13.0244 13.0244C7.28049 18.7652 4.11547 26.3941 4.11547 34.511C4.11547 42.6279 7.28049 50.2601 13.0244 55.9976L57.493 100.473L101.962 56.004C107.709 50.2569 110.874 42.6279 110.874 34.5237C110.874 26.41 107.709 18.7778 101.962 13.0276C97.0383 8.10105 90.7906 5.08493 83.8903 4.3119C74.6392 3.27273 65.5624 6.44725 58.9884 13.0276L58.9504 13.0656C58.1552 13.8608 56.8689 13.8703 56.061 13.0846L56.0198 13.0466C50.2506 7.28049 42.6216 4.1123 34.5174 4.1123Z" fill="#333333"/>
<path d="M11.2502 32.17C11.114 32.17 10.9746 32.1542 10.8352 32.1257C9.80556 31.8976 9.15608 30.8806 9.38419 29.8509C10.5026 24.7945 13.0403 20.1785 16.7185 16.5034C21.8637 11.3582 28.7006 8.52271 35.9653 8.52271C39.6689 8.52271 43.8857 10.262 46.7688 11.7226C47.7097 12.1978 48.0836 13.3447 47.6083 14.2856C47.1331 15.2266 45.9862 15.6004 45.0453 15.1252C41.4937 13.3257 38.2685 12.3372 35.9653 12.3372C29.7176 12.3372 23.8406 14.7735 19.4147 19.1995C16.2496 22.3613 14.0699 26.3279 13.1068 30.6715C12.9135 31.5617 12.1247 32.17 11.2502 32.17Z" fill="#EB5757"/>
</svg>
