<svg width="118" height="93" viewBox="0 0 118 93" fill="none" xmlns="http://www.w3.org/2000/svg">
<path d="M58.9814 30.0268C67.9293 57.4418 75.1977 37.4064 70.7991 22.4826" stroke="#FF0066" stroke-width="4" stroke-linecap="round" stroke-linejoin="round"/>
<path d="M40.3245 23.4361C46.0227 66.5794 66.578 49.2135 55.6918 17.1712" stroke="#FF0066" stroke-width="4" stroke-linecap="round" stroke-linejoin="round"/>
<path d="M41.6238 52.7212C31.4026 55.7268 24.1563 14.3973 35.2307 16.6133C36.5913 16.8869 38.8421 22.7222 39.3399 22.5561C40.4389 22.1906 40.8976 14.3406 42.0806 12.957C47.771 6.31074 52.1164 12.4997 56.6902 13.4143C60.2099 14.1198 65.8066 -0.0912454 73.5838 11.5871C74.9385 13.6214 84.99 32.843 85.4546 32.6105C89.5442 30.5644 101.545 1.99989 114.335 11.5871C117.274 13.7902 111.474 26.5749 107.223 36.6293C98.2665 57.8148 73.7627 82.8118 72.6702 88.8292" stroke="#FF0066" stroke-width="4" stroke-linecap="round" stroke-linejoin="round"/>
<path d="M37.2264 91C39.1472 84.1153 -17.354 -9.86184 9.0331 3.25341C16.9692 7.1976 20.3172 17.5173 24.9315 24.8557" stroke="#FF0066" stroke-width="4" stroke-linecap="round" stroke-linejoin="round"/>
</svg>
