<svg width="77" height="116" viewBox="0 0 77 116" fill="none" xmlns="http://www.w3.org/2000/svg">
<path d="M62.8648 89.8539H10.8479C9.69573 89.8539 8.7594 88.9176 8.7594 87.7655C8.7594 86.6133 9.69573 85.677 10.8479 85.677H62.8648C64.0169 85.677 64.9532 86.6133 64.9532 87.7655C64.9532 88.9176 64.0169 89.8539 62.8648 89.8539Z" fill="#333333"/>
<path d="M61.0095 102.858H12.7032C11.551 102.858 10.6147 101.922 10.6147 100.769C10.6147 99.6172 11.551 98.6809 12.7032 98.6809H61.0095C62.1617 98.6809 63.098 99.6172 63.098 100.769C63.098 101.922 62.1617 102.858 61.0095 102.858Z" fill="#333333"/>
<path d="M75.956 1.53233C75.6984 0.763079 75.0197 0.209634 74.2156 0.115652C66.2655 -0.803275 56.8883 3.81225 50.334 11.8807C44.079 19.5767 41.4301 29.1419 43.3933 36.6013C39.5505 41.8468 38.3009 43.9318 37.2566 46.7338C37.0095 47.3952 36.7937 48.0322 36.5988 48.6448C35.4327 46.0794 33.9186 43.6255 32.0807 41.3073C32.4323 35.477 29.0211 28.7973 23.2256 24.0878C17.1899 19.1834 9.59134 17.2481 3.86545 19.1521C3.0962 19.4097 2.54275 20.0884 2.44877 20.8925C1.75609 26.8864 5.20555 33.928 11.2412 38.8324C15.7349 42.4838 21.0953 44.4922 25.9058 44.4922C26.9779 44.4922 28.0221 44.3913 29.0211 44.1859C31.8753 47.8651 33.7967 51.8924 34.7017 56.1633C34.9106 57.1518 35.0707 57.8619 35.1786 58.2726C35.5963 59.8842 36.6788 60.1244 37.288 60.1244C37.8832 60.1244 38.4505 59.8634 38.8474 59.4178C39.2442 58.9723 39.4286 58.3736 39.3625 57.7818C39.359 57.747 38.9692 54.0783 41.1656 48.1888C42.0427 45.8323 43.174 43.9631 46.6826 39.1701C46.9506 39.1805 47.2152 39.191 47.4867 39.191C54.9599 39.191 63.3242 34.6973 69.3251 27.311C75.8829 19.2495 78.4866 9.13089 75.956 1.53233ZM13.8797 35.5918C9.41382 31.9649 6.65356 27.0743 6.54218 22.7721C10.7783 22.0028 16.1283 23.7049 20.5941 27.3319C23.685 29.8416 25.9545 32.9569 27.0997 36.0652C25.0669 34.2552 22.8044 32.5566 20.3122 30.9867C19.3375 30.3707 18.0462 30.6665 17.4336 31.6411C16.8175 32.6158 17.1133 33.9071 18.0879 34.5198C20.9039 36.295 23.4031 38.2372 25.5577 40.3292C21.8054 40.2456 17.5449 38.5679 13.8797 35.5918ZM66.088 24.683C61.5212 30.301 55.5168 33.9976 49.9163 34.8365C52.9132 30.8788 56.0459 26.9282 59.2552 23.0506C59.9897 22.163 59.8678 20.8472 58.9802 20.1093C58.0926 19.3748 56.7769 19.4967 56.039 20.3843C52.9063 24.1644 49.8536 28.0142 46.9193 31.8744C46.7731 26.3469 49.1574 19.9527 53.5746 14.5157C58.7923 8.09361 65.9 4.17425 72.1202 4.17425C72.2003 4.17425 72.2838 4.17425 72.3639 4.17773C73.7492 10.297 71.3753 18.1775 66.088 24.683Z" fill="#EB5757"/>
<path d="M70.7348 55.9509H2.97782C1.82567 55.9509 0.889343 56.8873 0.889343 58.0394V74.7611C0.889343 75.9132 1.82567 76.8496 2.97782 76.8496H7.17913L12.4978 114.07C12.644 115.1 13.5246 115.862 14.5654 115.862H59.1508C60.1915 115.862 61.0721 115.096 61.2183 114.07L66.537 76.8496H70.7383C71.8904 76.8496 72.8268 75.9132 72.8268 74.7611V58.0394C72.8233 56.8873 71.887 55.9509 70.7348 55.9509ZM57.3373 111.685H16.3719L11.3944 76.8496H62.3113L57.3373 111.685ZM68.6463 72.6726H5.06629V60.1279H68.6463V72.6726Z" fill="#333333"/>
</svg>
