<svg width="264" height="152" viewBox="0 0 264 152" fill="none" xmlns="http://www.w3.org/2000/svg">
<path d="M5 42L26.1667 21C37.8837 9.37525 56.783 9.37526 68.5 21V21C80.217 32.6247 99.1163 32.6247 110.833 21V21C122.55 9.37526 141.45 9.37526 153.167 21V21C164.884 32.6247 183.783 32.6247 195.5 21V21C207.217 9.37526 226.116 9.37527 237.833 21L259 42" stroke="#6481E8" stroke-width="14"/>
<path d="M5 94L26.1667 73C37.8837 61.3753 56.783 61.3753 68.5 73V73C80.217 84.6247 99.1163 84.6247 110.833 73V73C122.55 61.3753 141.45 61.3753 153.167 73V73C164.884 84.6247 183.783 84.6247 195.5 73V73C207.217 61.3753 226.116 61.3753 237.833 73L259 94" stroke="#6481E8" stroke-width="14"/>
<path d="M5 147L26.1667 125.5C37.8028 113.681 56.8638 113.681 68.5 125.5V125.5C80.1362 137.319 99.1972 137.319 110.833 125.5V125.5C122.469 113.681 141.531 113.681 153.167 125.5V125.5C164.803 137.319 183.864 137.319 195.5 125.5V125.5C207.136 113.681 226.197 113.681 237.833 125.5L259 147" stroke="#6481E8" stroke-width="14"/>
</svg>
