<svg width="108" height="107" viewBox="0 0 108 107" fill="none" xmlns="http://www.w3.org/2000/svg">
<path d="M80.8311 106.471H73.9155C70.4425 106.471 67.6173 103.649 67.6173 100.179V98.9503C66.5285 99.0476 65.4368 99.0963 64.348 99.0963H53.5184C51.9553 99.0963 50.3982 98.9989 48.8685 98.8043V104.555C48.8685 105.613 48.0109 106.471 46.9526 106.471H40.0369C36.5639 106.471 33.7387 103.649 33.7387 100.179V93.3424C28.7694 90.1735 24.6 85.8337 21.6379 80.7307C18.396 75.1471 16.6838 68.7606 16.6838 62.2647C16.6838 59.4455 17.0001 56.672 17.6114 53.9897H14.0441C14.0228 53.9897 14.0015 53.9897 13.9802 53.9897C11.8149 53.9167 8.39666 52.9222 6.26176 50.0787H1.91593C0.857608 50.0787 0 49.2211 0 48.1628C0 47.1045 0.857608 46.2468 1.91593 46.2468H4.57695C4.41881 45.4683 4.33062 44.6168 4.33062 43.6892C4.33062 40.8396 5.54709 39.1153 6.56892 38.1695C7.85533 36.9774 9.57967 36.3205 11.4196 36.3205C14.7436 36.3205 18.2744 38.6652 18.2744 43.011C18.2744 44.8357 17.6296 46.4354 16.4071 47.6336C15.1693 48.847 13.5575 49.4583 12.1829 49.7685C13.0801 50.0787 13.8403 50.1456 14.0897 50.1608H18.7092C20.5096 44.9726 23.4748 40.2193 27.4739 36.2201C32.7321 30.9589 39.3588 27.4524 46.6363 26.0778C47.6764 25.8832 48.6769 26.5644 48.8746 27.6045C49.0722 28.6446 48.388 29.6451 47.3479 29.8428C40.8307 31.0714 34.8974 34.2129 30.1866 38.9268C23.9522 45.1611 20.5157 53.4514 20.5157 62.2677C20.5157 73.8333 26.6923 84.7024 36.6369 90.6297C37.2178 90.9763 37.5706 91.5998 37.5706 92.2749V100.182C37.5706 101.538 38.6775 102.642 40.0369 102.642H45.0366V96.6238C45.0366 96.5843 45.0366 96.5447 45.0366 96.5052V92.4969C45.0366 91.4386 45.8942 90.581 46.9526 90.581C48.0109 90.581 48.8685 91.4386 48.8685 92.4969V94.9359C50.3921 95.1519 51.9492 95.2614 53.5184 95.2614H64.348C65.4337 95.2614 66.5285 95.2066 67.6173 95.1002V92.4939C67.6173 91.4356 68.4749 90.578 69.5332 90.578C70.5915 90.578 71.4491 91.4356 71.4491 92.4939V96.7242C71.4522 96.7728 71.4522 96.8245 71.4491 96.8732V100.182C71.4491 101.538 72.5561 102.642 73.9155 102.642H78.9152V93.0504C78.9152 92.3418 79.3045 91.691 79.9309 91.3595C82.7684 89.8481 85.3777 87.9109 87.6859 85.6056C92.2294 81.0621 95.3284 75.3569 96.6422 69.1134C96.8277 68.2254 97.6123 67.5928 98.5186 67.5928H100.06C102.232 67.5928 103.999 65.8259 103.999 63.6545V57.8884C103.999 55.717 102.232 53.9501 100.06 53.9501H97.7431C96.9007 53.9501 96.1556 53.3997 95.9092 52.5938C93.5462 44.851 88.4097 38.2607 81.4515 34.0366C80.9072 33.7051 80.5605 33.1242 80.5331 32.4886C80.5149 32.1237 80.2411 24.8218 84.736 18.8946C80.5818 18.9463 77.3551 19.8617 74.761 21.6955C73.8973 22.3068 72.7021 22.1 72.0908 21.2363C71.4796 20.3726 71.6863 19.1774 72.55 18.5661C78.0667 14.6704 84.736 14.8255 89.2765 15.2847C90.055 15.3638 90.7088 15.9082 90.9248 16.6593C91.1407 17.4105 90.8791 18.2194 90.2618 18.6999C85.2895 22.5774 84.4927 28.9396 84.3741 31.3512C91.2623 35.8187 96.4445 42.4119 99.1298 50.1213H100.057C104.342 50.1213 107.828 53.6065 107.828 57.8915V63.6575C107.828 67.9425 104.342 71.4277 100.057 71.4277H100.036C98.4091 77.805 95.0942 83.6198 90.3926 88.3184C88.0934 90.6175 85.5267 92.5882 82.744 94.1848V104.564C82.7471 105.613 81.8895 106.471 80.8311 106.471ZM8.55784 46.2438H9.40633C9.4337 46.2438 9.46411 46.2438 9.49452 46.2438C10.3339 46.2438 12.5965 46.0066 13.7309 44.8844C14.2174 44.4039 14.4425 43.8078 14.4425 43.005C14.4425 40.7484 12.5418 40.1463 11.4196 40.1463C10.5468 40.1463 9.74998 40.4413 9.17215 40.9765C8.50006 41.5969 8.16249 42.5093 8.16249 43.6862C8.16249 44.6867 8.30846 45.5291 8.55784 46.2438Z" fill="#333333"/>
<path d="M58.3782 34.8517C48.7682 34.8517 40.9524 27.036 40.9524 17.4259C40.9524 7.81579 48.7682 0 58.3782 0C67.9883 0 75.8041 7.81579 75.8041 17.4259C75.8041 27.036 67.9853 34.8517 58.3782 34.8517ZM58.3782 3.83187C50.8818 3.83187 44.7842 9.9294 44.7842 17.4259C44.7842 24.9223 50.8818 31.0199 58.3782 31.0199C65.8747 31.0199 71.9723 24.9223 71.9723 17.4259C71.9723 9.9294 65.8747 3.83187 58.3782 3.83187Z" fill="#EB5757"/>
<path d="M69.3082 38.501C69.0892 38.501 68.8672 38.4645 68.6482 38.3824C68.6391 38.3794 65.7956 37.4366 58.0437 37.4336C58.0376 37.4336 58.0285 37.4336 58.0224 37.4336C50.5473 37.4336 48.3394 38.3185 48.315 38.3277C48.3576 38.3094 48.3759 38.3003 48.3759 38.3003L46.6759 34.8668C47.1016 34.657 49.6532 33.6017 58.0437 33.6047C66.5012 33.6078 69.6366 34.6661 69.965 34.7847C70.9595 35.1497 71.4674 36.2506 71.1055 37.242C70.8226 38.0175 70.0897 38.501 69.3082 38.501Z" fill="#333333"/>
<path d="M80.8068 41.9832C78.5168 41.9832 76.6617 43.8383 76.6617 46.1283C76.6617 48.4183 78.5168 50.2734 80.8068 50.2734C83.0938 50.2734 84.9519 48.4183 84.9519 46.1283C84.9519 43.8383 83.0938 41.9832 80.8068 41.9832Z" fill="#333333"/>
</svg>
