<svg width="433" height="363" viewBox="0 0 433 363" fill="none" xmlns="http://www.w3.org/2000/svg">
<g clip-path="url(#clip0_151_41407)">
<rect width="433" height="363" fill="#1EAF95"/>
<path fill-rule="evenodd" clip-rule="evenodd" d="M230.952 207.312C232.644 207.653 237.319 213.86 238.109 215.579C239.358 218.308 241.105 224.065 245.281 222.537C248.943 221.173 246.182 214.351 244.587 212.564C243.991 211.882 240.62 207.462 243.117 207.462C245.059 207.462 250.344 210.968 249.775 211.473C252.813 214.488 253.146 220.572 253.492 221.705C255.365 226.166 257.654 224.87 258.944 223.506C259.623 222.823 259.471 221.104 260.081 220.777C261.815 219.863 262.772 217.23 260.761 212.455C259.013 208.362 255.337 204.338 249.178 199.153C237.457 190.095 194.374 155.988 183.472 131.609C176.536 137.884 177.618 156.016 184.984 163.069C189.145 167.066 192.71 172.305 196.968 176.78C197.702 177.645 198.379 178.557 198.993 179.508L230.952 207.312Z" fill="#F2C94C"/>
<path d="M255.129 224.106C252.563 226.834 248.79 223.915 249.345 220.34C250.052 215.716 251.051 213.519 246.571 208.894" stroke="#786D0A" stroke-width="0.57" stroke-linecap="round" stroke-linejoin="round"/>
<path d="M260.164 220.75C259.193 226.493 253.437 224.843 252.993 220.682C252.494 216.043 251.966 213.547 247.985 209.877" stroke="#786D0A" stroke-width="0.57" stroke-linecap="round" stroke-linejoin="round"/>
<path fill-rule="evenodd" clip-rule="evenodd" d="M247.417 218.99L252.507 217.517L280.333 310.778L275.242 312.251L247.417 218.99Z" fill="#F2C94C"/>
<path d="M247.417 218.99L252.507 217.517L280.333 310.778L275.242 312.251L247.417 218.99Z" stroke="#786D0A" stroke-width="0.57" stroke-miterlimit="22.93" stroke-linecap="round"/>
<path fill-rule="evenodd" clip-rule="evenodd" d="M194.222 315.361H165.093C164.859 315.368 164.638 315.462 164.473 315.625C164.308 315.787 164.212 316.005 164.205 316.234L162.818 335.552H209.396C210.27 327.462 204.236 325.02 197.135 321.541C194.444 319.536 194.222 315.361 194.222 315.361Z" fill="#F2C94C"/>
<path d="M194.222 315.361H165.093C164.859 315.368 164.638 315.462 164.473 315.625C164.308 315.787 164.212 316.005 164.205 316.234L162.818 335.552H209.396C210.27 327.462 204.236 325.02 197.135 321.541C194.444 319.536 194.222 315.361 194.222 315.361Z" stroke="#786D0A" stroke-width="0.57" stroke-linecap="round" stroke-linejoin="round"/>
<path d="M209.466 332.469H162.318C161.828 332.469 161.431 332.86 161.431 333.342V337.476C161.431 337.958 161.828 338.349 162.318 338.349H209.466C209.956 338.349 210.354 337.958 210.354 337.476V333.342C210.354 332.86 209.956 332.469 209.466 332.469Z" fill="#F2C94C"/>
<path d="M209.466 332.469H162.318C161.828 332.469 161.431 332.86 161.431 333.342V337.476C161.431 337.958 161.828 338.349 162.318 338.349H209.466C209.956 338.349 210.354 337.958 210.354 337.476V333.342C210.354 332.86 209.956 332.469 209.466 332.469Z" stroke="#786D0A" stroke-width="0.57" stroke-linecap="round" stroke-linejoin="round"/>
<path fill-rule="evenodd" clip-rule="evenodd" d="M165.536 315.361H136.407C136.175 315.371 135.955 315.467 135.791 315.628C135.627 315.79 135.53 316.006 135.52 316.234L134.133 335.552H180.781C181.655 327.462 175.621 325.02 168.519 321.541C165.758 319.536 165.536 315.361 165.536 315.361Z" fill="#F2C94C"/>
<path d="M165.536 315.361H136.407C136.175 315.371 135.955 315.467 135.791 315.628C135.627 315.79 135.53 316.006 135.52 316.234L134.133 335.552H180.781C181.655 327.462 175.621 325.02 168.519 321.541C165.758 319.536 165.536 315.361 165.536 315.361Z" stroke="#786D0A" stroke-width="0.57" stroke-linecap="round" stroke-linejoin="round"/>
<path d="M180.781 332.469H133.633C133.143 332.469 132.745 332.86 132.745 333.342V337.476C132.745 337.958 133.143 338.349 133.633 338.349H180.781C181.271 338.349 181.668 337.958 181.668 337.476V333.342C181.668 332.86 181.271 332.469 180.781 332.469Z" fill="#F2C94C"/>
<path d="M180.781 332.469H133.633C133.143 332.469 132.745 332.86 132.745 333.342V337.476C132.745 337.958 133.143 338.349 133.633 338.349H180.781C181.271 338.349 181.668 337.958 181.668 337.476V333.342C181.668 332.86 181.271 332.469 180.781 332.469Z" stroke="#786D0A" stroke-width="0.57" stroke-linecap="round" stroke-linejoin="round"/>
<path fill-rule="evenodd" clip-rule="evenodd" d="M130.512 187.639C130.512 187.926 130.512 188.199 130.512 188.485C130.263 201.677 134.59 208.949 134.549 220.995C134.479 247.121 133.744 314.297 133.827 315.648H195.9C195.9 315.648 196.455 247.298 196.066 221.677C195.872 208.035 199.895 204.119 201.393 188.635C201.414 188.303 201.414 187.971 201.393 187.639H130.512Z" fill="#F2C94C"/>
<path d="M130.512 187.639C130.512 187.926 130.512 188.199 130.512 188.485C130.263 201.677 134.59 208.949 134.549 220.995C134.479 247.121 133.744 314.297 133.827 315.648H195.9C195.9 315.648 196.455 247.298 196.066 221.677C195.872 208.035 199.895 204.119 201.393 188.635C201.414 188.303 201.414 187.971 201.393 187.639H130.512Z" stroke="#786D0A" stroke-width="0.57" stroke-linecap="round" stroke-linejoin="round"/>
<path d="M165.8 221.909C165.8 216.33 175.121 216.862 178.52 208.922" stroke="#786D0A" stroke-width="0.57" stroke-linecap="round" stroke-linejoin="round"/>
<path fill-rule="evenodd" clip-rule="evenodd" d="M194.097 315.552L194.707 317.967C186.995 316.76 179.219 315.985 171.418 315.648L194.097 315.552Z" fill="#786D0A"/>
<path d="M194.097 315.552L194.707 317.967C186.995 316.76 179.219 315.985 171.418 315.648L194.097 315.552Z" stroke="#786D0A" stroke-width="0.57" stroke-miterlimit="22.93" stroke-linecap="round"/>
<path fill-rule="evenodd" clip-rule="evenodd" d="M165.398 315.552L165.994 317.967C158.305 316.761 150.553 315.987 142.774 315.648L165.398 315.552Z" fill="#786D0A"/>
<path d="M165.398 315.552L165.994 317.967C158.305 316.761 150.553 315.987 142.774 315.648L165.398 315.552Z" stroke="#786D0A" stroke-width="0.57" stroke-miterlimit="22.93" stroke-linecap="round"/>
<path d="M165.842 315.607V221.732" stroke="#786D0A" stroke-width="0.57" stroke-miterlimit="22.93" stroke-linecap="round"/>
<path d="M249.775 211.473C251.901 213.476 253.566 215.905 254.657 218.594C256.586 223.014 264.88 222.209 260.761 212.469C259.013 208.376 255.337 204.351 249.178 199.167C237.457 190.108 194.374 156.002 183.472 131.623" stroke="#786D0A" stroke-width="0.57" stroke-linecap="round" stroke-linejoin="round"/>
<path d="M242.825 209.249C242.243 207.885 241.702 205.688 244.49 205.688" stroke="#786D0A" stroke-width="0.57" stroke-linecap="round" stroke-linejoin="round"/>
<path fill-rule="evenodd" clip-rule="evenodd" d="M183.666 94.16C183.666 105.824 183.666 105.62 183.666 117.352C183.641 124.202 184.546 131.025 186.357 137.639C188.659 146.152 191.711 150.095 196.594 165.606C199.16 173.792 201.046 177.421 201.434 188.581H128.307C124.243 150.804 143.842 142.755 143.801 119.344V94.16C143.731 68.3073 183.624 69.1941 183.666 94.16Z" fill="#F2C94C"/>
<path d="M183.666 94.16C183.666 105.824 183.666 105.62 183.666 117.352C183.641 124.202 184.546 131.025 186.357 137.639C188.659 146.152 191.711 150.095 196.594 165.606C199.16 173.792 201.046 177.421 201.434 188.581H128.307C124.243 150.804 143.842 142.755 143.801 119.344V94.16C143.731 68.3073 183.624 69.1941 183.666 94.16Z" stroke="#786D0A" stroke-width="0.57" stroke-linecap="round" stroke-linejoin="round"/>
<path fill-rule="evenodd" clip-rule="evenodd" d="M121.885 260.232C120.941 262.469 117.793 261.964 116.641 260.081C116.475 259.822 110.58 260.341 110.455 254.87C110.288 248.253 112.605 236.603 112.799 233.683C114.783 203.478 120.595 185.497 126.42 164.228C129.722 152.114 138.252 136.766 142.483 131.486C143.87 129.767 145.063 131.309 146.2 131.582C148.004 131.991 149.626 133.096 151.291 139.276C153.039 145.811 149.737 161.541 143.953 165.197C139.293 184.938 132.191 208.949 130.887 229.222C130.637 233.315 130.124 236.78 130.706 239.126C131.289 241.473 132.856 242.482 133.952 246.698C134.646 249.427 129.902 255.893 127.849 254.979C126.462 254.379 126.878 253.41 125.491 248.826C125.144 247.694 123.466 243.219 122.717 242.837C120.872 241.828 121.676 257.503 121.94 260.232" fill="#F2C94C"/>
<path d="M120.151 250.395C120.041 253.292 120.571 256.178 121.704 258.854C122.426 260.723 121.205 261.582 119.818 261.678C117.862 261.869 116.378 260.504 114.991 256.685C113.956 253.408 113.593 249.963 113.923 246.548C114.117 244.584 111.592 244.106 111.87 241.159C113.867 226.616 116.946 169.167 141.97 131.568" stroke="#786D0A" stroke-width="0.57" stroke-linecap="round" stroke-linejoin="round"/>
<path d="M120.192 252.019C119.915 249.29 120.816 241.828 122.661 242.837C123.466 243.219 125.144 247.694 125.436 248.826C125.99 250.654 126.115 252.823 126.531 253.806C127.918 257.148 132.524 252.823 133.314 249.822C134.826 244.079 130.887 239.849 130.651 239.126C129.819 236.643 130.651 232.305 130.831 229.222C132.135 208.949 139.237 184.938 143.898 165.197" stroke="#786D0A" stroke-width="0.57" stroke-linecap="round" stroke-linejoin="round"/>
<path fill-rule="evenodd" clip-rule="evenodd" d="M120.581 244.338C119.291 248.431 120.317 259.972 124.076 262.21C125.907 263.301 128.418 262.455 128.723 261.255C129.458 258.349 127.877 257.585 127.169 253.383C126.612 249.829 126.668 246.209 127.336 242.674C127.918 239.836 124.173 237.503 121.385 242.578C121.038 243.126 120.767 243.718 120.581 244.338V244.338Z" fill="#F2C94C"/>
<path d="M120.581 244.338C119.291 248.431 120.317 259.972 124.076 262.21C125.907 263.301 128.418 262.455 128.723 261.255C129.458 258.349 127.877 257.585 127.169 253.383C126.612 249.829 126.668 246.209 127.336 242.674C127.918 239.836 124.173 237.503 121.385 242.578C121.038 243.126 120.767 243.718 120.581 244.338V244.338Z" stroke="#786D0A" stroke-width="0.57" stroke-miterlimit="22.93" stroke-linecap="round"/>
<path d="M112.535 236.439C112.66 237.175 109.761 246.48 110.191 253.028C110.413 256.684 112.591 261.391 115.74 259.768" stroke="#786D0A" stroke-width="0.57" stroke-miterlimit="22.93" stroke-linecap="round"/>
<path fill-rule="evenodd" clip-rule="evenodd" d="M123.355 234.638C124.531 234.525 125.715 234.765 126.75 235.326C127.785 235.888 128.623 236.744 129.154 237.783C129.685 238.821 129.883 239.994 129.723 241.146C129.564 242.298 129.053 243.375 128.259 244.236C127.465 245.097 126.424 245.701 125.274 245.97C124.124 246.238 122.918 246.157 121.816 245.739C120.713 245.32 119.765 244.583 119.096 243.624C118.428 242.666 118.07 241.53 118.07 240.368C118.033 239.65 118.14 238.932 118.386 238.255C118.631 237.578 119.011 236.955 119.502 236.423C119.993 235.89 120.586 235.458 121.247 235.152C121.908 234.846 122.625 234.671 123.355 234.638Z" fill="#F2C94C"/>
<path fill-rule="evenodd" clip-rule="evenodd" d="M114.006 235.607C115.143 235.607 119.124 245.716 115.032 246.098C110.94 246.48 113.312 252.919 112.258 252.919C111.204 252.919 110.871 249.317 110.871 247.639C110.871 245.961 112.91 235.566 114.034 235.566" fill="#F2C94C"/>
<path fill-rule="evenodd" clip-rule="evenodd" d="M132.135 217.83L143.953 165.197C144.841 171.404 140.43 181.841 139.931 185.47C137.406 203.969 132.884 226.834 135.686 245.061C136.505 250.395 132.607 251.773 132.801 251.391C133.723 249.342 133.951 247.056 133.453 244.87C132.954 242.141 131.123 240.777 132.066 239.413L132.135 217.83Z" fill="#786D0A"/>
<path d="M132.135 217.83L143.953 165.197C144.841 171.404 140.43 181.841 139.931 185.47C137.406 203.969 132.884 226.834 135.686 245.061C136.505 250.395 132.607 251.773 132.801 251.391C133.723 249.342 133.951 247.056 133.453 244.87C132.954 242.141 131.123 240.777 132.066 239.413L132.135 217.83Z" stroke="#786D0A" stroke-width="0.57" stroke-miterlimit="22.93" stroke-linecap="round"/>
<path d="M126.947 245.129C126.947 243.942 128.015 243.56 128.182 245.361C128.288 246.94 127.859 248.509 126.961 249.822" stroke="#786D0A" stroke-width="0.57" stroke-miterlimit="22.93" stroke-linecap="round"/>
<path fill-rule="evenodd" clip-rule="evenodd" d="M279.681 332.251H248.471C248.471 324.11 251.759 316.302 257.612 310.546C263.465 304.789 271.403 301.555 279.681 301.555C287.958 301.555 295.896 304.789 301.749 310.546C307.602 316.302 310.89 324.11 310.89 332.251H279.681Z" fill="#F2C94C"/>
<path d="M279.681 332.251H248.471C248.471 324.11 251.759 316.302 257.612 310.546C263.465 304.789 271.403 301.555 279.681 301.555C287.958 301.555 295.896 304.789 301.749 310.546C307.602 316.302 310.89 324.11 310.89 332.251H279.681Z" stroke="#786D0A" stroke-width="0.57" stroke-miterlimit="22.93" stroke-linecap="round"/>
<path fill-rule="evenodd" clip-rule="evenodd" d="M280.305 314.079C281.087 314.079 281.851 314.307 282.501 314.734C283.151 315.161 283.658 315.769 283.957 316.479C284.256 317.19 284.335 317.971 284.182 318.726C284.03 319.48 283.653 320.173 283.1 320.716C282.547 321.26 281.843 321.63 281.076 321.78C280.309 321.93 279.514 321.853 278.792 321.559C278.07 321.265 277.452 320.767 277.018 320.127C276.583 319.488 276.352 318.736 276.352 317.967C276.355 316.937 276.773 315.95 277.514 315.222C278.254 314.493 279.258 314.082 280.305 314.079V314.079Z" fill="#F2C94C"/>
<path d="M280.305 314.079C281.087 314.079 281.851 314.307 282.501 314.734C283.151 315.161 283.658 315.769 283.957 316.479C284.256 317.19 284.335 317.971 284.182 318.726C284.03 319.48 283.653 320.173 283.1 320.716C282.547 321.26 281.843 321.63 281.076 321.78C280.309 321.93 279.514 321.853 278.792 321.559C278.07 321.265 277.452 320.767 277.018 320.127C276.583 319.488 276.352 318.736 276.352 317.967C276.355 316.937 276.773 315.95 277.514 315.222C278.254 314.493 279.258 314.082 280.305 314.079V314.079Z" stroke="#786D0A" stroke-width="0.57" stroke-miterlimit="22.93" stroke-linecap="round"/>
<path fill-rule="evenodd" clip-rule="evenodd" d="M247.764 210.832C248.79 210.534 249.883 210.543 250.905 210.857C251.926 211.17 252.83 211.775 253.502 212.594C254.174 213.413 254.584 214.41 254.68 215.458C254.776 216.506 254.554 217.559 254.041 218.483C253.529 219.407 252.749 220.161 251.801 220.649C250.853 221.137 249.779 221.338 248.715 221.226C247.651 221.113 246.645 220.693 245.824 220.018C245.002 219.344 244.403 218.444 244.102 217.435C243.698 216.081 243.856 214.626 244.543 213.388C245.23 212.149 246.388 211.23 247.764 210.832V210.832Z" fill="#F2C94C"/>
<path d="M247.764 210.832C248.79 210.534 249.883 210.543 250.905 210.857C251.926 211.17 252.83 211.775 253.502 212.594C254.174 213.413 254.584 214.41 254.68 215.458C254.776 216.506 254.554 217.559 254.041 218.483C253.529 219.407 252.749 220.161 251.801 220.649C250.853 221.137 249.779 221.338 248.715 221.226C247.651 221.113 246.645 220.693 245.824 220.018C245.002 219.344 244.403 218.444 244.102 217.435C243.698 216.081 243.856 214.626 244.543 213.388C245.23 212.149 246.388 211.23 247.764 210.832V210.832Z" stroke="#786D0A" stroke-width="0.57" stroke-miterlimit="22.93" stroke-linecap="round"/>
<path fill-rule="evenodd" clip-rule="evenodd" d="M244.032 212.441C244.032 212.837 246.335 216.398 246.668 218.185C247.056 219.187 247.056 220.294 246.668 221.295C246.432 221.691 244.532 220.722 244.185 220.409C241.757 218.185 241.078 216.589 242.368 213.587C242.562 213.124 244.046 212.755 244.074 212.496" fill="#F2C94C"/>
<path d="M248.693 210.463C246.279 208.39 243.034 206.289 242.59 207.735C242.285 208.553 244.24 212.919 244.795 213.969C247.056 218.212 247.5 219.658 246.973 221.023C245.683 224.392 242.049 223.219 240.911 221.146C237.47 214.479 232.762 208.524 227.04 203.601C218.856 196.289 209.438 189.031 200.602 181.077" stroke="#786D0A" stroke-width="0.57" stroke-linecap="round" stroke-linejoin="round"/>
<path fill-rule="evenodd" clip-rule="evenodd" d="M189.436 146.288L194.984 160.681L199.645 176.22C199.895 176.329 199.839 176.22 199.825 176.48C199.659 178.785 198.702 172.387 198.591 171.868C197.939 168.703 193.403 147.844 193.611 147.475L186.814 137.926L189.436 146.288Z" fill="#786D0A"/>
<path fill-rule="evenodd" clip-rule="evenodd" d="M247.764 210.832C246.293 213.778 248.374 217.025 248.956 219.863C249.04 220.272 249.456 221.623 248.79 221.227C248.124 220.832 247.556 221.227 247.181 219.072C246.945 217.585 244.199 213.478 244.545 213.096C245.431 212.248 246.465 211.564 247.597 211.077C247.668 211.017 247.724 210.942 247.764 210.859" fill="#786D0A"/>
<path fill-rule="evenodd" clip-rule="evenodd" d="M181.89 107.748C181.432 107.748 180.984 107.614 180.603 107.364C180.222 107.114 179.926 106.758 179.75 106.342C179.575 105.925 179.529 105.467 179.618 105.025C179.708 104.583 179.928 104.177 180.252 103.859C180.576 103.54 180.989 103.323 181.438 103.235C181.888 103.147 182.353 103.192 182.777 103.365C183.2 103.537 183.562 103.829 183.816 104.204C184.071 104.579 184.207 105.019 184.207 105.47C184.207 106.074 183.963 106.653 183.528 107.081C183.094 107.508 182.505 107.748 181.89 107.748V107.748Z" fill="white"/>
<path d="M181.89 107.748C181.432 107.748 180.984 107.614 180.603 107.364C180.222 107.114 179.926 106.758 179.75 106.342C179.575 105.925 179.529 105.467 179.618 105.025C179.708 104.583 179.928 104.177 180.252 103.859C180.576 103.54 180.989 103.323 181.438 103.235C181.888 103.147 182.353 103.192 182.777 103.365C183.2 103.537 183.562 103.829 183.816 104.204C184.071 104.579 184.207 105.019 184.207 105.47C184.207 106.074 183.963 106.653 183.528 107.081C183.094 107.508 182.505 107.748 181.89 107.748V107.748Z" stroke="#786D0A" stroke-width="0.57" stroke-linecap="round" stroke-linejoin="round"/>
<path fill-rule="evenodd" clip-rule="evenodd" d="M162.443 103.191C162.901 103.194 163.347 103.33 163.726 103.582C164.105 103.834 164.4 104.191 164.573 104.607C164.747 105.024 164.791 105.482 164.7 105.923C164.609 106.364 164.387 106.768 164.062 107.086C163.738 107.403 163.325 107.618 162.876 107.705C162.427 107.792 161.962 107.746 161.54 107.573C161.117 107.4 160.756 107.108 160.502 106.734C160.248 106.36 160.113 105.92 160.113 105.47C160.113 105.169 160.173 104.872 160.291 104.595C160.408 104.317 160.58 104.066 160.796 103.854C161.013 103.642 161.27 103.475 161.553 103.361C161.835 103.247 162.138 103.19 162.443 103.191Z" fill="white"/>
<path d="M162.443 103.191C162.901 103.194 163.347 103.33 163.726 103.582C164.105 103.834 164.4 104.191 164.573 104.607C164.747 105.024 164.791 105.482 164.7 105.923C164.609 106.364 164.387 106.768 164.062 107.086C163.738 107.403 163.325 107.618 162.876 107.705C162.427 107.792 161.962 107.746 161.54 107.573C161.117 107.4 160.756 107.108 160.502 106.734C160.248 106.36 160.113 105.92 160.113 105.47C160.113 105.169 160.173 104.872 160.291 104.595C160.408 104.317 160.58 104.066 160.796 103.854C161.013 103.642 161.27 103.475 161.553 103.361C161.835 103.247 162.138 103.19 162.443 103.191Z" stroke="#786D0A" stroke-width="0.57" stroke-linecap="round" stroke-linejoin="round"/>
<path d="M181.016 98.9623C181.93 98.8414 182.86 98.9836 183.694 99.3715" stroke="#786D0A" stroke-width="0.57" stroke-miterlimit="22.93" stroke-linecap="round"/>
<path d="M163.414 98.1709C162.5 98.0393 161.567 98.182 160.737 98.5802" stroke="#786D0A" stroke-width="0.57" stroke-miterlimit="22.93" stroke-linecap="round"/>
<path fill-rule="evenodd" clip-rule="evenodd" d="M169.129 107.885H176.148C176.148 108.8 175.778 109.678 175.12 110.325C174.462 110.972 173.569 111.336 172.638 111.336C171.708 111.336 170.815 110.972 170.157 110.325C169.499 109.678 169.129 108.8 169.129 107.885Z" fill="#786D0A"/>
<path d="M169.129 107.885H176.148C176.148 108.8 175.778 109.678 175.12 110.325C174.462 110.972 173.569 111.336 172.638 111.336C171.708 111.336 170.815 110.972 170.157 110.325C169.499 109.678 169.129 108.8 169.129 107.885Z" stroke="#786D0A" stroke-width="0.57" stroke-miterlimit="22.93" stroke-linecap="round"/>
<path fill-rule="evenodd" clip-rule="evenodd" d="M183 104.283C183.035 104.281 183.07 104.286 183.103 104.299C183.136 104.311 183.166 104.33 183.191 104.354C183.216 104.379 183.235 104.408 183.248 104.441C183.26 104.473 183.266 104.508 183.264 104.542C183.264 104.611 183.236 104.677 183.186 104.725C183.137 104.774 183.07 104.801 183 104.801C182.931 104.798 182.866 104.77 182.817 104.722C182.769 104.674 182.74 104.61 182.736 104.542C182.736 104.473 182.764 104.407 182.814 104.359C182.863 104.31 182.93 104.283 183 104.283Z" fill="#786D0A"/>
<path d="M183 104.283C183.035 104.281 183.07 104.286 183.103 104.299C183.136 104.311 183.166 104.33 183.191 104.354C183.216 104.379 183.235 104.408 183.248 104.441C183.26 104.473 183.266 104.508 183.264 104.542C183.264 104.611 183.236 104.677 183.186 104.725C183.137 104.774 183.07 104.801 183 104.801C182.931 104.798 182.866 104.77 182.817 104.722C182.769 104.674 182.74 104.61 182.736 104.542C182.736 104.473 182.764 104.407 182.814 104.359C182.863 104.31 182.93 104.283 183 104.283Z" stroke="#786D0A" stroke-width="0.57" stroke-linecap="round" stroke-linejoin="round"/>
<path fill-rule="evenodd" clip-rule="evenodd" d="M163.262 104.801C163.192 104.801 163.125 104.774 163.075 104.725C163.026 104.677 162.998 104.611 162.998 104.542C162.996 104.508 163.002 104.473 163.014 104.441C163.027 104.408 163.046 104.379 163.071 104.354C163.096 104.33 163.126 104.311 163.158 104.299C163.191 104.286 163.226 104.281 163.262 104.283C163.332 104.283 163.399 104.31 163.448 104.359C163.497 104.407 163.525 104.473 163.525 104.542C163.522 104.61 163.493 104.674 163.444 104.722C163.396 104.77 163.33 104.798 163.262 104.801V104.801Z" fill="#786D0A"/>
<path d="M163.262 104.801C163.192 104.801 163.125 104.774 163.075 104.725C163.026 104.677 162.998 104.611 162.998 104.542C162.996 104.508 163.002 104.473 163.014 104.441C163.027 104.408 163.046 104.379 163.071 104.354C163.096 104.33 163.126 104.311 163.158 104.299C163.191 104.286 163.226 104.281 163.262 104.283C163.332 104.283 163.399 104.31 163.448 104.359C163.497 104.407 163.525 104.473 163.525 104.542C163.522 104.61 163.493 104.674 163.444 104.722C163.396 104.77 163.33 104.798 163.262 104.801V104.801Z" stroke="#786D0A" stroke-width="0.57" stroke-linecap="round" stroke-linejoin="round"/>
<path fill-rule="evenodd" clip-rule="evenodd" d="M144.009 122.359H183.541C184.277 122.359 184.982 122.647 185.503 123.159C186.023 123.67 186.315 124.364 186.315 125.088C186.315 125.812 186.023 126.506 185.503 127.017C184.982 127.529 184.277 127.816 183.541 127.816H144.009C143.273 127.816 142.567 127.529 142.047 127.017C141.527 126.506 141.234 125.812 141.234 125.088C141.234 124.364 141.527 123.67 142.047 123.159C142.567 122.647 143.273 122.359 144.009 122.359Z" fill="#F2C94C"/>
<path d="M144.009 122.359H183.541C184.277 122.359 184.982 122.647 185.503 123.159C186.023 123.67 186.315 124.364 186.315 125.088C186.315 125.812 186.023 126.506 185.503 127.017C184.982 127.529 184.277 127.816 183.541 127.816H144.009C143.273 127.816 142.567 127.529 142.047 127.017C141.527 126.506 141.234 125.812 141.234 125.088C141.234 124.364 141.527 123.67 142.047 123.159C142.567 122.647 143.273 122.359 144.009 122.359Z" stroke="#786D0A" stroke-width="0.57" stroke-miterlimit="22.93" stroke-linecap="round"/>
<path fill-rule="evenodd" clip-rule="evenodd" d="M183.707 127.748L184.304 130.163C176.599 128.936 168.827 128.157 161.028 127.83L183.707 127.748Z" fill="#786D0A"/>
<path d="M183.707 127.748L184.304 130.163C176.599 128.936 168.827 128.157 161.028 127.83L183.707 127.748Z" stroke="#786D0A" stroke-width="0.57" stroke-miterlimit="22.93" stroke-linecap="round"/>
<path d="M143.787 94.542H204.597" stroke="#786D0A" stroke-width="0.57" stroke-miterlimit="22.93" stroke-linecap="round"/>
<path fill-rule="evenodd" clip-rule="evenodd" d="M183 94.4465L183.61 96.8613C175.9 95.6368 168.124 94.8624 160.321 94.542L183 94.4465Z" fill="#786D0A"/>
<path d="M183 94.4465L183.61 96.8613C175.9 95.6368 168.124 94.8624 160.321 94.542L183 94.4465Z" stroke="#786D0A" stroke-width="0.57" stroke-miterlimit="22.93" stroke-linecap="round"/>
<path fill-rule="evenodd" clip-rule="evenodd" d="M271.594 300.013C272.287 299.686 276.809 298.649 277.017 299.29C277.115 299.631 278.072 301.487 277.711 301.473C276.241 301.473 272.717 302.606 272.093 302.551C271.982 302.237 271.303 300.15 271.594 300.013" fill="#786D0A"/>
<path fill-rule="evenodd" clip-rule="evenodd" d="M280.763 35.5377C277.697 41.977 272.065 40.6264 272.065 40.6264C272.231 42.1666 272.481 43.6968 272.815 45.2103C272.815 45.2103 282.358 45.7288 284.535 37.0248C283.675 36.7792 280.763 35.5377 280.763 35.5377Z" fill="#F2C94C"/>
<path d="M280.763 35.5377C277.697 41.977 272.065 40.6264 272.065 40.6264C272.231 42.1666 272.481 43.6968 272.815 45.2103C272.815 45.2103 282.358 45.7288 284.535 37.0248C283.675 36.7792 280.763 35.5377 280.763 35.5377Z" stroke="#373435" stroke-width="0.57" stroke-miterlimit="22.93" stroke-linecap="round"/>
<path fill-rule="evenodd" clip-rule="evenodd" d="M329.464 104.583C335.858 101.281 339.492 105.702 339.492 105.702C340.315 104.38 341.061 103.014 341.725 101.609C341.725 101.609 334.443 95.5379 327.341 101.2C327.896 101.854 329.464 104.583 329.464 104.583Z" fill="#F2C94C"/>
<path d="M329.464 104.583C335.858 101.281 339.492 105.702 339.492 105.702C340.315 104.38 341.061 103.014 341.725 101.609C341.725 101.609 334.443 95.5379 327.341 101.2C327.896 101.854 329.464 104.583 329.464 104.583Z" stroke="#373435" stroke-width="0.57" stroke-miterlimit="22.93" stroke-linecap="round"/>
<path fill-rule="evenodd" clip-rule="evenodd" d="M244.629 72.632C239.524 70.4083 241.411 64.7193 241.411 64.7193C241.827 61.8271 237.735 61.0222 236.972 65.1286C236.972 65.1286 235.294 73.7234 243.519 76.261C245.988 77.1341 248.194 74.2009 244.629 72.632Z" fill="#F2C94C"/>
<path d="M244.629 72.632C239.524 70.4083 241.411 64.7193 241.411 64.7193C241.827 61.8271 237.735 61.0222 236.972 65.1286C236.972 65.1286 235.294 73.7234 243.519 76.261C245.988 77.1341 248.194 74.2009 244.629 72.632Z" stroke="#373435" stroke-width="0.57" stroke-miterlimit="22.93" stroke-linecap="round"/>
<path fill-rule="evenodd" clip-rule="evenodd" d="M246.002 94.7739C242.284 95.6061 243.741 92.0453 243.741 92.0453C244.324 89.3168 240.079 88.3482 239.316 92.4546C239.201 93.3361 239.285 94.2315 239.56 95.0778C239.836 95.9241 240.297 96.7005 240.911 97.3523C242.298 98.7166 244.004 99.0986 246.917 98.5938C250.011 98.3073 250.219 93.8189 246.002 94.7739Z" fill="#F2C94C"/>
<path d="M246.002 94.7739C242.284 95.6061 243.741 92.0453 243.741 92.0453C244.324 89.3168 240.079 88.3482 239.316 92.4546C239.201 93.3361 239.285 94.2315 239.56 95.0778C239.836 95.9241 240.297 96.7005 240.911 97.3523C242.298 98.7166 244.004 99.0986 246.917 98.5938C250.011 98.3073 250.219 93.8189 246.002 94.7739Z" stroke="#373435" stroke-width="0.57" stroke-miterlimit="22.93" stroke-linecap="round"/>
<path fill-rule="evenodd" clip-rule="evenodd" d="M240.384 42.3453C246.238 42.4954 244.698 46.5745 248.499 49.4668C249.886 50.5582 251.869 50.6673 255.226 51.3494C259.693 52.2499 261.052 53.7915 261.787 55.9743C261.787 55.9743 258.361 59.0712 258.084 58.3754C255.573 52.0998 248.374 58.8665 242.285 48.2526C241.995 47.7244 241.564 47.284 241.038 46.9787C240.513 46.6735 239.913 46.5149 239.302 46.52C239.191 46.1243 240.093 44.1598 240.384 42.3453Z" fill="#F2C94C"/>
<path d="M240.384 42.3453C246.238 42.4954 244.698 46.5745 248.499 49.4668C249.886 50.5582 251.869 50.6673 255.226 51.3494C259.693 52.2499 261.052 53.7915 261.787 55.9743C261.787 55.9743 258.361 59.0712 258.084 58.3754C255.573 52.0998 248.374 58.8665 242.285 48.2526C241.995 47.7244 241.564 47.284 241.038 46.9787C240.513 46.6735 239.913 46.5149 239.302 46.52C239.191 46.1243 240.093 44.1598 240.384 42.3453Z" stroke="#373435" stroke-width="0.57" stroke-miterlimit="22.93" stroke-linecap="round"/>
<path fill-rule="evenodd" clip-rule="evenodd" d="M273.411 112.85C268.57 116.111 267.391 111.923 262.592 111.772C260.775 111.772 259.138 112.741 256.017 114.133C251.856 115.988 249.844 115.497 247.944 114.133C247.944 114.133 248.873 109.644 249.511 110.04C255.296 113.669 257.029 104.078 268.348 109.112C268.896 109.374 269.506 109.484 270.113 109.429C270.719 109.373 271.299 109.155 271.788 108.798C272.121 109.112 272.565 111.24 273.411 112.85Z" fill="#F2C94C"/>
<path d="M273.411 112.85C268.57 116.111 267.391 111.923 262.592 111.772C260.775 111.772 259.138 112.741 256.017 114.133C251.856 115.988 249.844 115.497 247.944 114.133C247.944 114.133 248.873 109.644 249.511 110.04C255.296 113.669 257.029 104.078 268.348 109.112C268.896 109.374 269.506 109.484 270.113 109.429C270.719 109.373 271.299 109.155 271.788 108.798C272.121 109.112 272.565 111.24 273.411 112.85Z" stroke="#373435" stroke-width="0.57" stroke-miterlimit="22.93" stroke-linecap="round"/>
<path fill-rule="evenodd" clip-rule="evenodd" d="M278.904 65.838C282.677 61.4587 284.91 61.4178 291.526 61.9771C292.657 62.0221 293.774 61.7208 294.723 61.1147C295.672 60.5087 296.407 59.6278 296.825 58.5938C297.033 58.7575 298.046 63.5324 298.046 63.5324C294.245 69.4396 288.336 64.2145 284.757 67.134C283.8 67.9116 282.594 69.4396 281.983 69.8625L278.904 65.838Z" fill="#F2C94C"/>
<path d="M278.904 65.838C282.677 61.4587 284.91 61.4178 291.526 61.9771C292.657 62.0221 293.774 61.7208 294.723 61.1147C295.672 60.5087 296.407 59.6278 296.825 58.5938C297.033 58.7575 298.046 63.5324 298.046 63.5324C294.245 69.4396 288.336 64.2145 284.757 67.134C283.8 67.9116 282.594 69.4396 281.983 69.8625L278.904 65.838Z" stroke="#373435" stroke-width="0.57" stroke-miterlimit="22.93" stroke-linecap="round"/>
<path fill-rule="evenodd" clip-rule="evenodd" d="M223.531 76.3428C225.723 81.677 224.71 83.6279 221.131 89.1259C220.574 90.0924 220.329 91.2034 220.431 92.3102C220.532 93.4171 220.975 94.467 221.7 95.3196C221.45 95.4288 216.29 95.3196 216.29 95.3196C212.753 89.2623 220.577 85.4287 219.633 80.913C219.384 79.7261 218.565 77.9526 218.496 77.2841L223.531 76.3428Z" fill="#F2C94C"/>
<path d="M223.531 76.3428C225.723 81.677 224.71 83.6279 221.131 89.1259C220.574 90.0924 220.329 91.2034 220.431 92.3102C220.532 93.4171 220.975 94.467 221.7 95.3196C221.45 95.4288 216.29 95.3196 216.29 95.3196C212.753 89.2623 220.577 85.4287 219.633 80.913C219.384 79.7261 218.565 77.9526 218.496 77.2841L223.531 76.3428Z" stroke="#373435" stroke-width="0.57" stroke-miterlimit="22.93" stroke-linecap="round"/>
<path fill-rule="evenodd" clip-rule="evenodd" d="M270.9 83.1776C270.664 83.737 271.774 88.0753 279.833 89.6852L276.393 93.2322C269.68 92.4546 266.156 87.7752 265.837 84.7192C265.837 84.7192 270.956 83.0276 270.9 83.1776Z" fill="#F2C94C"/>
<path d="M270.9 83.1776C270.664 83.737 271.774 88.0753 279.833 89.6852L276.393 93.2322C269.68 92.4546 266.156 87.7752 265.837 84.7192C265.837 84.7192 270.956 83.0276 270.9 83.1776Z" stroke="#373435" stroke-width="0.57" stroke-miterlimit="22.93" stroke-linecap="round"/>
<path fill-rule="evenodd" clip-rule="evenodd" d="M302.776 90.9266L308.407 89.1394C308.935 89.4532 310.987 91.445 309.462 97.2295C309.17 98.3345 307.991 99.8625 307.866 99.0712C307.71 97.4205 307.17 95.8273 306.287 94.415C305.404 93.0027 304.203 91.8091 302.776 90.9266V90.9266Z" fill="#F2C94C"/>
<path d="M302.776 90.9266L308.407 89.1394C308.935 89.4532 310.987 91.445 309.462 97.2295C309.17 98.3345 307.991 99.8625 307.866 99.0712C307.71 97.4205 307.17 95.8273 306.287 94.415C305.404 93.0027 304.203 91.8091 302.776 90.9266V90.9266Z" stroke="#373435" stroke-width="0.57" stroke-miterlimit="22.93" stroke-linecap="round"/>
<path fill-rule="evenodd" clip-rule="evenodd" d="M224.793 53.7915L222.81 59.2486C222.227 59.4669 219.356 59.8489 215.638 55.1558C214.931 54.269 214.418 52.4273 215.125 52.7956C216.552 53.6781 218.165 54.2268 219.842 54.3994C221.518 54.5721 223.212 54.3641 224.793 53.7915V53.7915Z" fill="#F2C94C"/>
<path d="M224.793 53.7915L222.81 59.2486C222.227 59.4669 219.356 59.8489 215.638 55.1558C214.931 54.269 214.418 52.4273 215.125 52.7956C216.552 53.6781 218.165 54.2268 219.842 54.3994C221.518 54.5721 223.212 54.3641 224.793 53.7915V53.7915Z" stroke="#373435" stroke-width="0.57" stroke-miterlimit="22.93" stroke-linecap="round"/>
<path fill-rule="evenodd" clip-rule="evenodd" d="M308.713 98.7711C309.212 98.1572 302.873 101.295 303.164 106.479C303.164 107.011 308.116 107.175 308.713 107.298C307.839 104.774 307.742 99.958 308.713 98.7711Z" fill="#F2C94C"/>
<path d="M308.713 98.7711C309.212 98.1572 302.873 101.295 303.164 106.479C303.164 107.011 308.116 107.175 308.713 107.298C307.839 104.774 307.742 99.958 308.713 98.7711Z" stroke="#373435" stroke-width="0.57" stroke-miterlimit="22.93" stroke-linecap="round"/>
<path fill-rule="evenodd" clip-rule="evenodd" d="M214.903 53.6141C215.097 54.3917 216.443 47.5295 212.129 44.5691C211.685 44.2689 208.55 47.9934 208.079 48.4026C210.589 49.2212 214.487 52.1407 214.903 53.6141Z" fill="#F2C94C"/>
<path d="M214.903 53.6141C215.097 54.3917 216.443 47.5295 212.129 44.5691C211.685 44.2689 208.55 47.9934 208.079 48.4026C210.589 49.2212 214.487 52.1407 214.903 53.6141Z" stroke="#373435" stroke-width="0.57" stroke-miterlimit="22.93" stroke-linecap="round"/>
<path fill-rule="evenodd" clip-rule="evenodd" d="M314.649 70.7628C320.115 69.3986 320.198 63.5323 328.132 65.9197C330.726 67.284 329.228 70.7356 325.483 69.7942C322.362 69.0166 320.447 73.314 317.59 74.6783C316.523 75.1509 315.361 75.3794 314.192 75.3468C311.098 75.4286 310.682 71.7588 314.649 70.7628Z" fill="#F2C94C"/>
<path d="M314.649 70.7628C320.115 69.3986 320.198 63.5323 328.132 65.9197C330.726 67.284 329.228 70.7356 325.483 69.7942C322.362 69.0166 320.447 73.314 317.59 74.6783C316.523 75.1509 315.361 75.3794 314.192 75.3468C311.098 75.4286 310.682 71.7588 314.649 70.7628Z" stroke="#373435" stroke-width="0.57" stroke-miterlimit="22.93" stroke-linecap="round"/>
<path fill-rule="evenodd" clip-rule="evenodd" d="M198.646 69.6852C193.431 67.5433 189.769 72.1681 184.914 65.5924C183.694 62.8639 186.981 61.104 189.395 64.0644C191.628 66.7929 197.953 63.3687 201.878 66.3155C204.25 68.1572 202.419 71.2404 198.646 69.6852Z" fill="#F2C94C"/>
<path d="M198.646 69.6852C193.431 67.5433 189.769 72.1681 184.914 65.5924C183.694 62.8639 186.981 61.104 189.395 64.0644C191.628 66.7929 197.953 63.3687 201.878 66.3155C204.25 68.1572 202.419 71.2404 198.646 69.6852Z" stroke="#373435" stroke-width="0.57" stroke-miterlimit="22.93" stroke-linecap="round"/>
<path fill-rule="evenodd" clip-rule="evenodd" d="M238.72 28.8392C239.287 28.3178 239.733 27.6823 240.027 26.976C240.321 26.2697 240.457 25.5092 240.426 24.7464C240.426 24.3508 235.973 25.0466 235.973 25.0466C235.973 26.0834 235.196 29.3303 234.017 29.3167C236.112 29.8488 237.457 30.2171 238.72 28.8392Z" fill="#F2C94C"/>
<path d="M238.72 28.8392C239.287 28.3178 239.733 27.6823 240.027 26.976C240.321 26.2697 240.457 25.5092 240.426 24.7464C240.426 24.3508 235.973 25.0466 235.973 25.0466C235.973 26.0834 235.196 29.3303 234.017 29.3167C236.112 29.8488 237.457 30.2171 238.72 28.8392Z" stroke="#373435" stroke-width="0.57" stroke-linecap="round" stroke-linejoin="round"/>
<path fill-rule="evenodd" clip-rule="evenodd" d="M225.487 29.0029C227.048 27.9095 228.679 26.9161 230.369 26.0288C231.576 28.0343 235.418 30.0261 238.179 29.2894C236.336 30.6862 234.054 31.4053 231.729 31.3221C229.48 31.0916 227.329 30.2926 225.487 29.0029V29.0029Z" fill="#F2C94C"/>
<path d="M225.487 29.0029C227.048 27.9095 228.679 26.9161 230.369 26.0288C231.576 28.0343 235.418 30.0261 238.179 29.2894C236.336 30.6862 234.054 31.4053 231.729 31.3221C229.48 31.0916 227.329 30.2926 225.487 29.0029V29.0029Z" stroke="#373435" stroke-width="0.57" stroke-linecap="round" stroke-linejoin="round"/>
<path fill-rule="evenodd" clip-rule="evenodd" d="M258.541 140.695C259.105 140.171 259.548 139.535 259.842 138.829C260.136 138.123 260.275 137.364 260.247 136.602C260.247 136.207 255.795 136.902 255.795 136.902C255.795 137.939 255.018 141.186 253.839 141.172C255.934 141.691 257.279 142.073 258.541 140.695Z" fill="#F2C94C"/>
<path d="M258.541 140.695C259.105 140.171 259.548 139.535 259.842 138.829C260.136 138.123 260.275 137.364 260.247 136.602C260.247 136.207 255.795 136.902 255.795 136.902C255.795 137.939 255.018 141.186 253.839 141.172C255.934 141.691 257.279 142.073 258.541 140.695Z" stroke="#373435" stroke-width="0.57" stroke-linecap="round" stroke-linejoin="round"/>
<path fill-rule="evenodd" clip-rule="evenodd" d="M245.308 140.845C246.869 139.755 248.5 138.766 250.191 137.885C251.398 139.876 255.24 141.868 257.986 141.131C256.154 142.539 253.873 143.259 251.55 143.164C249.3 142.937 247.149 142.137 245.308 140.845V140.845Z" fill="#F2C94C"/>
<path d="M245.308 140.845C246.869 139.755 248.5 138.766 250.191 137.885C251.398 139.876 255.24 141.868 257.986 141.131C256.154 142.539 253.873 143.259 251.55 143.164C249.3 142.937 247.149 142.137 245.308 140.845V140.845Z" stroke="#373435" stroke-width="0.57" stroke-linecap="round" stroke-linejoin="round"/>
<path fill-rule="evenodd" clip-rule="evenodd" d="M292.067 126.684C292.656 127.255 293.361 127.696 294.135 127.978C294.91 128.26 295.737 128.377 296.562 128.321C296.978 128.321 296.048 123.655 296.048 123.655C294.925 123.655 291.374 123.014 291.332 121.786C290.875 123.996 290.528 125.429 292.067 126.684Z" fill="#F2C94C"/>
<path d="M292.067 126.684C292.656 127.255 293.361 127.696 294.135 127.978C294.91 128.26 295.737 128.377 296.562 128.321C296.978 128.321 296.048 123.655 296.048 123.655C294.925 123.655 291.374 123.014 291.332 121.786C290.875 123.996 290.528 125.429 292.067 126.684Z" stroke="#373435" stroke-width="0.57" stroke-linecap="round" stroke-linejoin="round"/>
<path fill-rule="evenodd" clip-rule="evenodd" d="M291.346 112.823C292.601 114.41 293.746 116.078 294.772 117.816C292.65 119.18 290.611 123.273 291.568 126.138C289.974 124.264 289.1 121.897 289.099 119.453C289.262 117.091 290.035 114.809 291.346 112.823V112.823Z" fill="#F2C94C"/>
<path d="M291.346 112.823C292.601 114.41 293.746 116.078 294.772 117.816C292.65 119.18 290.611 123.273 291.568 126.138C289.974 124.264 289.1 121.897 289.099 119.453C289.262 117.091 290.035 114.809 291.346 112.823V112.823Z" stroke="#373435" stroke-width="0.57" stroke-linecap="round" stroke-linejoin="round"/>
</g>
<defs>
<clipPath id="clip0_151_41407">
<rect width="433" height="363" fill="white"/>
</clipPath>
</defs>
</svg>
