<svg width="183" height="185" viewBox="0 0 183 185" fill="none" xmlns="http://www.w3.org/2000/svg">
<path d="M100.989 22.8926L114.837 4.42915L117.651 27.385L117.758 28.2647L118.456 27.7174L136.584 13.4873L133.394 36.3958L133.272 37.2715L134.085 36.9248L155.26 27.8975L146.282 49.1975L145.939 50.0097L146.812 49.8868L169.591 46.6784L155.436 64.9172L154.897 65.6118L155.77 65.72L178.6 68.5505L160.234 82.4838L159.534 83.0144L160.347 83.3453L181.673 92.0229L160.347 100.7L159.534 101.031L160.234 101.562L178.6 115.495L155.77 118.326L154.897 118.434L155.436 119.129L169.591 137.367L146.812 134.159L145.939 134.036L146.282 134.848L155.26 156.148L134.085 147.121L133.272 146.774L133.394 147.65L136.584 170.558L118.456 156.328L117.758 155.781L117.651 156.661L114.837 179.617L100.989 161.153L100.456 160.443L100.125 161.267L91.5 182.706L82.8751 161.267L82.5439 160.443L82.0113 161.153L68.1632 179.617L65.3495 156.661L65.2416 155.781L64.5444 156.328L46.4162 170.558L49.6063 147.65L49.7282 146.774L48.9149 147.121L27.7405 156.148L36.7184 134.848L37.0607 134.036L36.1879 134.159L13.4092 137.367L27.5639 119.129L28.1029 118.434L27.2304 118.326L4.39971 115.495L22.7664 101.562L23.4658 101.031L22.6527 100.7L1.32663 92.0229L22.6527 83.3453L23.4658 83.0144L22.7664 82.4838L4.39971 68.5505L27.2304 65.72L28.1029 65.6118L27.5639 64.9172L13.4092 46.6784L36.1879 49.8868L37.0607 50.0097L36.7184 49.1975L27.7405 27.8975L48.9149 36.9248L49.7282 37.2715L49.6063 36.3958L46.4162 13.4873L64.5444 27.7174L65.2416 28.2647L65.3495 27.385L68.1632 4.42915L82.0113 22.8926L82.5439 23.6027L82.8751 22.7792L91.5 1.3397L100.125 22.7792L100.456 23.6027L100.989 22.8926Z" fill="#F2C94C" stroke="black"/>
<g clip-path="url(#clip0_248_24)">
<path d="M93.4397 47.0221C94.1104 47.3848 94.6096 47.999 94.8275 48.7297C95.0453 49.4604 94.964 50.2478 94.6014 50.9185L93.234 53.4475L123.582 69.8557L124.95 67.3267C125.312 66.6559 125.927 66.1567 126.657 65.9389C127.388 65.721 128.175 65.8024 128.846 66.165C129.517 66.5276 130.016 67.1419 130.234 67.8726C130.452 68.6033 130.37 69.3906 130.008 70.0614L91.722 140.874C91.3594 141.545 90.7451 142.044 90.0144 142.262C89.2837 142.48 88.4964 142.398 87.8257 142.036C87.1549 141.673 86.6557 141.059 86.4378 140.328C86.22 139.598 86.3013 138.81 86.664 138.139L88.0313 135.61L57.683 119.202L56.3156 121.731C55.953 122.402 55.3387 122.901 54.608 123.119C53.8773 123.337 53.09 123.256 52.4193 122.893C51.7485 122.53 51.2493 121.916 51.0314 121.185C50.8136 120.455 50.8949 119.667 51.2576 118.997L89.5433 48.1838C89.9059 47.5131 90.5202 47.0139 91.2509 46.796C91.9816 46.5781 92.7689 46.6595 93.4397 47.0221ZM60.4177 114.144L90.766 130.552L96.2354 120.436L65.8871 104.028L60.4177 114.144ZM68.6218 98.9701L98.9701 115.378L104.439 105.262L74.0911 88.8539L68.6218 98.9701ZM76.8258 83.7959L107.174 100.204L112.644 90.0879L82.2952 73.6798L76.8258 83.7959ZM85.0299 68.6217L115.378 85.0299L120.848 74.9138L90.4993 58.5056L85.0299 68.6217Z" fill="#1C43CE"/>
</g>
<defs>
<clipPath id="clip0_248_24">
<rect width="92" height="92" fill="white" transform="translate(73.4131 29.658) rotate(28.3984)"/>
</clipPath>
</defs>
</svg>
