<svg width="82" height="59" viewBox="0 0 82 59" fill="none" xmlns="http://www.w3.org/2000/svg">
<path d="M23.6817 11.4962H39.9671C45.225 11.4962 49.4874 7.2338 49.4874 1.9759C49.4874 0.884642 48.6028 0 47.5115 0H21.1961C14.1307 0.658635 0 5.81994 0 21.1961C0 36.5722 14.1307 41.7335 21.1961 42.3921H43.7393C46.9139 42.3921 49.4874 39.8186 49.4874 36.644C49.4874 33.4695 46.9139 30.896 43.7393 30.896H23.6817C22.0284 30.896 20.3578 30.7911 18.8153 30.1962C15.5272 28.9282 11.4962 26.1315 11.4962 21.1961C11.4962 16.2607 15.5272 13.4639 18.8153 12.1959C20.3578 11.601 22.0284 11.4962 23.6817 11.4962Z" fill="#EB5757"/>
<path d="M58.3183 47.0629H42.0329C36.775 47.0629 32.5126 51.3253 32.5126 56.5832C32.5126 57.6744 33.3972 58.5591 34.4885 58.5591L60.8039 58.5591C67.8693 57.9004 82 52.7391 82 37.363C82 21.9869 67.8693 16.8256 60.8039 16.1669L38.2607 16.1669C35.0861 16.1669 32.5126 18.7405 32.5126 21.915C32.5126 25.0896 35.0861 27.6631 38.2607 27.6631H58.3183C59.9716 27.6631 61.6422 27.768 63.1847 28.3629C66.4728 29.6309 70.5038 32.4276 70.5038 37.363C70.5038 42.2984 66.4728 45.0951 63.1847 46.3632C61.6422 46.958 59.9716 47.0629 58.3183 47.0629Z" fill="#EB5757"/>
</svg>
