<svg width="687" height="581" viewBox="0 0 687 581" fill="none" xmlns="http://www.w3.org/2000/svg">
<path fill-rule="evenodd" clip-rule="evenodd" d="M142.216 318.547C145.804 345.472 149.39 372.398 152.978 399.324L155.874 421.067C156.24 423.811 155.894 429.223 157.287 431.68C157.78 432.546 159.073 432.957 160.024 433.468C163.297 435.227 166.57 436.986 169.843 438.745C197.53 453.622 225.217 468.5 252.903 483.377C279.474 497.655 306.046 511.933 332.617 526.211C335.366 527.689 339.814 531.544 342.782 530.528C345.604 529.563 348.487 527.182 351.049 525.68C355.967 522.795 360.883 519.911 365.801 517.027C395.556 499.574 425.311 482.121 455.066 464.668C467.342 457.468 479.618 450.267 491.895 443.066C495.253 441.096 498.613 439.126 501.972 437.155C503.729 436.125 503.957 436.161 504.649 434.412C507.234 427.874 508.431 420.383 510.26 413.599C512.276 406.122 514.292 398.646 516.308 391.169C517.207 387.833 516.785 387.403 515.318 384.182C512.417 377.808 509.516 371.434 506.615 365.061C500.176 350.914 493.738 336.767 487.298 322.62C484.694 316.9 478.422 312.874 473.906 308.667L403.795 243.335C402.014 241.675 400.234 240.016 398.453 238.356C398.159 248.33 396.19 259.052 399.079 268.687C403.819 284.499 408.558 300.311 413.297 316.123C415.588 323.766 417.878 331.408 420.169 339.05C420.595 340.47 423.186 346.101 422.494 347.35C422.11 348.042 418.837 348.743 418.128 349.012C415.082 350.172 412.037 351.331 408.991 352.491C400.506 355.722 392.02 358.953 383.535 362.184C375.903 365.09 368.271 367.996 360.639 370.902C358.051 371.887 355.012 373.712 352.279 373.56C349.834 373.424 347.054 372.213 344.688 371.603C340.528 370.531 336.368 369.458 332.208 368.385C324.038 366.279 315.866 364.173 307.695 362.066C298.502 359.696 290.739 352.736 282.877 347.584C269.364 338.728 255.851 329.872 242.338 321.017C239.245 318.99 239.233 317.833 238 314.132C235.23 305.813 232.459 297.494 229.689 289.176C228.21 284.734 226.39 280.274 225.273 275.727C223.43 268.222 222.337 260.453 220.878 252.866C220.438 250.576 219.997 248.286 219.557 245.997C213.898 248.295 208.239 250.595 202.579 252.894C201.759 253.226 197.762 254.22 197.407 255.036C197.182 255.552 198.371 257.893 198.541 258.396C203.233 272.306 207.926 286.216 212.619 300.125C214.095 304.5 215.57 308.875 217.046 313.251C213.52 307.703 209.992 302.155 206.464 296.608C203.693 305.938 200.922 315.269 198.15 324.599C191.6 317.034 185.049 309.468 178.498 301.903C176.23 309.468 173.962 317.034 171.695 324.599C164.64 315.269 157.586 305.938 150.531 296.608C149.693 301.477 148.854 306.346 148.015 311.214C147.761 312.684 147.812 316.9 146.835 318.064C146.03 319.022 143.712 318.547 142.216 318.547Z" fill="#F2C94C"/>
<path fill-rule="evenodd" clip-rule="evenodd" d="M588.88 376.749C588.483 389.424 588.758 405.877 581.828 417.021C580.709 418.819 576.92 424.422 576.497 419.493C576.082 414.655 577.271 409.863 576.093 404.968C575.463 402.349 573.342 396.629 569.718 398.994C567.872 400.2 567.385 403.177 566.662 405.056C565.593 407.836 564.396 410.573 563.271 413.332C559.34 422.963 555.268 434.456 546.531 440.83C547.674 432.525 550.791 423.657 548.695 415.262C547.982 412.401 545.819 407.177 542.094 408.853C538.465 410.486 536.113 417.775 534.4 421.02C529.206 430.86 523.895 440.514 518.048 449.987C515.107 454.751 511.931 459.106 508.083 463.181C505.677 465.73 502.677 470.039 498.885 470.419C498.885 463.154 501.273 456.135 503.454 449.294C505.8 441.937 507.938 434.518 510.24 427.148C512.237 420.755 513.877 414.411 515.206 407.855C515.757 405.144 516.193 402.336 518.502 400.585C520.577 399.012 523.856 398.263 526.171 397.106C532.248 394.067 538.498 390.788 544.144 387.011C546.462 385.46 548.457 383.457 550.884 382.066C553.65 380.481 556.232 379.147 558.791 377.216C569.831 368.881 579.783 358.629 586.489 346.425C587.578 351.328 589.02 356.119 589.179 361.173C589.342 366.355 589.042 371.57 588.88 376.749ZM498.019 435.007C496.253 432.023 493.563 433.245 491.193 434.684C487.515 436.916 483.827 439.133 480.13 441.338C472.607 445.824 465.223 450.544 457.873 455.307C442.911 465 427.427 472.934 411.653 481.139C396.407 489.068 381.764 498.504 367.48 508.042C364.046 510.334 360.638 512.68 357.341 515.166C354.415 517.373 352.075 520.472 348.995 522.436C345.787 524.482 343.582 522.822 340.514 521.314C336.678 519.427 332.679 517.846 328.757 516.144C312.93 509.277 297.058 502.148 281.662 494.353C266.358 486.606 251.859 477.68 237.196 468.814C230.212 464.592 223.349 460.102 216.46 455.725C209.13 451.067 201.54 447.578 193.851 443.618C190.449 441.865 187.435 439.486 183.941 437.892C180.268 436.218 176.387 435.017 173.097 432.601C171.623 431.518 170.379 430.224 168.693 429.457C167.309 428.829 165.738 428.723 164.372 428.055C161.592 426.696 160.796 423.939 160.258 421.071C156.795 402.659 154.955 383.738 152.948 365.122C151.82 354.654 150.562 344.226 149.003 333.812C148.3 329.118 149.713 325.48 150.456 320.913C151.322 315.579 151.664 310.133 152.245 304.762C154.984 309.842 157.353 315.172 160.838 319.807C163.407 323.223 167.796 328.067 172.527 327.952C179.88 327.775 179.543 315.152 179.84 310.142C183.189 313.134 184.205 318.008 186.985 321.484C189.523 324.656 192.977 328.593 196.875 330.014C205.082 333.006 204.293 317.759 203.841 313.434C203.615 311.265 202.391 307.834 205.294 308.823C207.968 309.733 210.569 313.509 212.816 315.241C216.701 318.235 220.962 320.723 224.946 323.581C229.89 327.128 235.225 329.691 240.266 332.994C243.419 335.06 246.858 335.524 250.295 337.043C255.33 339.269 259.779 342.587 264.572 345.256C274.063 350.539 284.592 355.276 294.974 358.461C298.333 359.491 302.809 362.396 305.357 359.411C306.926 357.574 307.957 354.769 309.289 352.709C310.974 350.102 312.763 347.564 314.621 345.078C321.225 336.241 328.555 327.897 336.695 320.443C346.165 311.773 356.52 303.97 367.597 297.472C372.356 294.68 392.227 282.165 396.595 290.973C393.006 290.749 389.895 292.063 386.825 293.708C386.076 294.11 382.213 296.871 383.117 294.438C381.994 294.648 381.01 296.112 380.161 296.764C378.692 297.89 376.464 299.189 374.764 300.121C373.083 301.042 371.006 301.267 369.474 302.384C368.914 302.792 368.575 303.453 368.041 303.894L366.511 303.906C366.282 304.754 366.053 305.601 365.824 306.449C364.96 303.675 363.726 307.283 362.282 308.455C361.413 309.159 360.038 309.885 359.015 310.339C358.251 310.679 358.133 309.889 357.391 310.49C356.732 311.023 356.312 312.198 355.603 312.867C354.733 313.685 353.619 314.322 352.65 315.021C350.792 316.36 348.826 317.411 346.944 318.681C344.412 320.389 343.084 323.326 340.626 325.113C339.461 325.958 337.653 326.057 337.022 326.599C335.442 327.959 335.962 330.02 333.015 330.111C333.283 330.54 333.444 331.007 333.499 331.51C332.797 331.389 332.173 331.097 331.626 330.635C331.749 333.578 328.857 334.629 327.124 336.441C326.125 337.485 324.88 338.953 324.176 340.209C324.058 340.42 323.835 342.097 323.786 342.12C323.519 342.248 321.89 340.816 322.044 340.936C321.59 343.655 318.961 346.225 317.81 348.742C317.204 350.068 316.588 352.2 315.393 353.133C315.068 353.386 314.068 353.122 313.241 354.003C312.635 354.649 311.936 355.844 311.69 356.701C311.526 357.273 311.723 358.755 311.487 359.098C311.055 359.726 310.382 359.095 309.705 359.56C308.453 360.417 308.421 361.758 306.59 361.934C307.852 365.004 315.474 365.951 318.244 366.824C326.079 369.291 334.298 371.756 341.622 375.535C343.516 376.513 345.308 377.319 345.644 379.571C346.111 382.704 344.516 386.871 344.211 390.036C343.387 398.584 343.218 407.384 343.39 415.968C343.554 424.099 343.817 432.306 344.195 440.427C344.546 447.957 346.063 455.337 346.882 462.814C347.106 464.866 346.956 474.12 350.482 473.654C353.425 473.265 351.566 466.945 351.511 465.133C351.388 461.123 352.232 457.028 352.196 452.982C352.179 451.038 353.029 449.362 353.111 447.501C353.192 445.662 352.279 444.208 352.552 442.302C352.815 440.473 358.218 429.951 353.029 431.184C353.333 429.68 353.599 428.163 354 426.681C354.555 427.18 355.003 427.763 355.34 428.429C355.802 425.197 355.647 421.972 355.934 418.738C356.062 417.273 356.656 415.668 356.453 414.192C356.492 413.58 356.414 412.979 356.22 412.39C355.901 412.052 355.506 411.874 355.037 411.857C354.789 411.048 354.726 410.826 355.164 410.032C355.353 409.494 355.726 409.159 356.285 409.025C357.349 408.899 357.47 408.287 356.649 407.189C357.077 405.023 357.133 403.655 356.823 401.493C356.563 399.676 357.52 396.159 356.545 394.542C355.408 392.652 354.842 394.485 354.631 391.865C354.585 391.31 354.549 390.154 354.772 389.601C355.016 388.999 355.75 389.246 355.844 389.032C356.481 387.575 356.523 384.708 354.269 384.957C354.357 383.917 354.446 382.877 354.533 381.836C356.162 383.713 355.593 382.125 356.517 381.081C357.761 379.676 358.978 379.434 360.756 378.878C365.496 377.398 370.063 375.172 374.695 373.365C384.503 369.539 394.493 366.124 404.014 361.603C424.039 352.093 443.666 341.772 463.814 332.513C462.375 329.839 463.27 329.709 464.322 327.199C465.726 328.175 465.431 327.494 466.43 327.434C466.339 326.597 466.599 326.344 467.21 326.676C467.696 326.825 468.194 326.878 468.705 326.834C469.952 327.048 470.971 327.735 472.105 327.996C472.477 328.271 472.886 328.477 473.332 328.615C473.732 328.524 474.074 328.325 474.357 328.02C476.192 328.36 476.81 329.744 476.891 331.747C476.905 332.096 475.839 332.453 476.144 332.921C476.677 333.74 478.112 333.545 478.933 333.649C478.753 334.499 478.573 335.349 478.394 336.198C481.995 334.535 481.056 339.742 482.148 341.452C482.453 341.93 483.131 341.548 483.484 342.102C483.943 342.823 483.805 343.845 484.197 344.564C485.084 346.19 485.971 345.992 486.855 347.854C491.472 357.574 497.615 366.631 502.047 376.56C504.158 381.286 506.061 386.093 508.264 390.777C510.292 395.088 511.45 398.754 510.005 403.461C506.654 414.383 503.069 425.504 498.677 436.053C498.458 435.705 498.239 435.356 498.019 435.007ZM264.237 516.53C263.922 517.066 263.608 517.601 263.293 518.138C262.595 514.117 264.456 515.982 264.237 516.53ZM249.454 509.001C248.446 508.699 248.881 507.053 248.914 506.348C249.551 507.143 250.176 507.954 250.707 508.827C250.289 508.885 249.871 508.943 249.454 509.001ZM208.937 493.544C209.995 492.95 210.757 492.524 211.956 491.85C210.737 494.229 210.737 494.229 208.937 493.544ZM145.196 284.039C143.58 288.01 148.509 312.533 143.92 313.334C143.261 311.181 143.179 305.255 140.454 304.548C137.073 303.669 137.407 309.771 136.945 311.657C130.004 306.824 126.921 297.49 123.605 290.093C119.378 280.665 116.052 270.858 112.876 261.034C110.16 252.634 107.914 244.087 105.17 235.701C103.446 230.434 101.587 225.154 100.428 219.725C100.176 218.546 99.185 215.555 100.027 214.434C101.251 212.804 105.656 214.671 107.075 215.099C116.284 217.873 125.837 219.066 135.298 220.678C145.809 222.467 156.298 224.317 166.873 225.704C169.515 226.051 172.159 226.379 174.805 226.698C176.521 226.905 179.118 226.698 180.748 227.468C184.046 229.026 184.748 234.987 185.974 238.08C190.544 249.618 195.924 260.792 200.736 272.226C205.072 282.526 208.358 293.484 214.59 302.862C209.943 300.8 204.052 289.897 198.859 296.181C196.626 298.884 197.189 302.444 197.367 305.678C197.626 310.353 197.707 315.063 197.707 319.746C192.624 318.424 189.209 312.65 186.541 308.559C182.896 302.973 180.601 297.708 178.987 291.303C178.288 288.53 176.435 288.461 174.788 286.801C173.729 285.735 173.197 284.297 171.679 285.849C169.772 287.799 171.041 293.2 171.37 295.503C172.153 300.982 174.719 309.415 172.224 314.564C168.858 321.512 159.837 304.029 158.78 301.503C158.243 300.218 148.645 275.567 145.196 284.039ZM138.894 164.956C139.462 165.043 140.03 165.13 140.599 165.217C140.14 165.622 139.187 167.041 138.409 166.666C138.571 166.096 138.732 165.527 138.894 164.956ZM169 158.49C168.822 158.686 168.643 158.881 168.465 159.077C167.65 158.058 167.939 156.571 167.939 155.392C169.016 156.043 169.279 157.346 169 158.49ZM171.433 169.805V173.138C169.176 172.159 169.131 171.654 171.433 169.805ZM174.174 174.043C172.593 173.608 172.404 173.258 172.626 170.826C173.281 172.189 173.713 173.086 174.174 174.043ZM183.276 198.728C182.613 200.434 178.739 196.367 178.881 195.15C179.017 193.989 179.611 193.642 180.432 194.389C180.704 194.636 180.301 195.53 180.474 195.84C181.099 196.963 182.359 197.881 183.276 198.728ZM183.319 209.01C182.348 211.436 180.618 207.616 183.154 207.512C183.32 207.999 183.376 208.499 183.319 209.01ZM181.436 205.186C181.06 204.684 180.695 204.176 180.341 203.659C181.647 203.923 182.684 205.828 184.062 204.557C183.899 206.495 182.523 206.548 181.436 205.186ZM96.9726 173.682C94.8721 171.387 108.569 169.777 110.221 169.383C122.212 166.521 133.534 162.38 144.745 157.298C150.094 154.874 155.415 152.421 160.638 149.734C162.893 148.574 165.985 147.591 167.868 145.849C169.213 144.606 169.159 143.666 170.907 142.925C172.391 142.298 172.465 142.89 173.144 141.756C173.553 141.075 174.014 138.58 173.775 137.841C173.125 135.827 172.162 137.46 170.812 136.072C169.839 135.071 170.075 132.225 170.34 131.046C170.685 131.608 170.883 132.218 170.936 132.874C172.401 132.151 171.81 129.667 173.413 129.26C175.103 128.832 174.928 130.149 175.369 131.496C176.645 129.62 175.622 128.02 174.931 126.187C178.444 125.529 182.218 124.891 185.699 126.061C188.217 126.906 190.372 128.984 193.03 129.386C195.633 129.779 196.134 128.543 198.053 127.29C199.611 126.272 200.949 127.47 201.751 126.702C201.256 129.297 197.006 128.942 197.529 132.184C197.765 133.644 199.552 134.955 200.365 136.09C201.386 137.515 202.2 139.091 202.896 140.697C205.601 146.945 206.757 154.194 207.893 160.875C210.694 177.365 211.048 194.181 213.683 210.724C214.939 218.604 216.197 226.489 216.85 234.446C217.013 236.435 218.227 240.948 217.234 242.862C216.394 244.478 214.525 244.482 212.885 244.873C209.676 245.637 206.662 246.674 203.584 247.823C200.824 248.853 200.022 249.484 198.25 246.886C196.537 244.371 195.689 241.374 194.463 238.617C192.902 235.104 191.015 231.715 189.204 228.327C192.762 228.327 194.81 226.405 194.715 222.786C194.612 218.778 191.319 217.827 189.961 214.533C188.641 216.25 188.53 216.298 187.589 214.669C186.512 212.806 185.786 209.396 185.128 207.282C185.599 207.785 186.07 208.288 186.54 208.791C187.728 207.155 185.868 204.577 185.246 203.037C184.286 200.658 184.116 198.087 183.206 195.715C182.709 194.421 181.559 193.402 181.277 192.051C181.088 191.147 181.843 190.287 181.664 189.37C181.352 187.772 179.546 186.058 178.985 184.433C178.121 181.933 177.183 179.732 176.111 177.297C174.661 174.001 174.998 170.542 174.732 167.034C174.457 163.397 173.293 159.917 172.882 156.296C172.598 153.794 173.487 150.644 171.596 148.64C171.375 151.971 172.329 151.919 169.202 152.518C165.642 153.2 163.06 155.855 159.694 156.647C159 156.81 158.494 153.777 158.765 157.915C157.15 156.722 153.704 158.203 154.99 158.911C154.016 159.954 152.097 159.233 151.776 160.795C148.465 157.574 143.155 168.541 139.212 162.82C138.561 166.697 135.756 168.989 131.99 169.502C130.097 169.759 128.93 170.391 127.249 170.959C126.908 171.073 126.783 171.564 126.379 171.697C125.763 171.898 124.857 171.291 124.413 171.409C123.508 171.649 122.502 172.841 121.239 173.077C119.79 173.349 118.211 173.224 116.761 173.056C114.948 172.846 114.151 172.631 112.376 173.229C110.78 173.767 109.07 175.273 107.589 173.633C105.261 177.663 99.7126 176.678 96.9726 173.682ZM204.565 125.051C202.803 124.84 204.026 123.324 204.842 122.869C207.058 121.632 206.466 125.28 204.565 125.051ZM107.044 139.513C117.381 124.587 135.062 114.331 150.619 105.703C159.116 100.99 167.79 96.421 176.712 92.5635C181.148 90.6465 185.636 88.8037 190.166 87.1197C192.584 86.2202 195.033 85.4024 197.482 84.5884C198.16 84.3637 199.392 83.6738 200.101 83.7411C199.978 83.729 201.862 84.2419 201.492 84.403C202.706 83.8742 203.283 82.4951 204.711 81.9436C206.314 81.3233 208.358 81.0668 210.076 81.0108C211.596 80.9609 212.912 81.5896 214.36 81.6388C215.311 81.6705 216.12 81.2181 217.052 81.1516C217.529 81.1183 217.487 81.8324 217.774 81.874C217.899 81.8922 219.169 81.4148 219.181 81.4231C219.643 81.7205 220.053 82.8809 220.471 83.3341C221.67 84.6338 223.429 85.5393 225.028 86.2232C226.974 87.0554 231.72 87.8921 229.52 90.9711C231.082 90.7464 231.81 92.1595 229.853 92.5174C228.794 92.7118 228.341 91.7404 227.554 91.0777C225.736 89.5496 221.324 87.3739 218.705 87.4722C217.232 87.5274 216.094 88.6463 214.736 89.0526C213.398 89.452 212.736 88.8324 211.563 88.9308C210.192 89.045 209.309 90.2062 208.002 90.4128C206.779 90.6064 206.097 89.7712 205.003 89.8295C203.703 89.8983 202.444 91.0286 201.203 91.4083C199.228 92.012 197.779 92.4236 195.851 93.4244C192.116 95.3649 187.944 96.1017 184.094 97.7721C181.017 99.1073 177.527 99.8101 174.679 101.287C171.512 102.928 168.33 104.563 165.229 106.346C162.989 107.634 158.434 108.077 155.964 107.75C155.928 112.302 153.689 109.111 151.433 111.105C151.967 111.576 152.573 111.923 153.249 112.144C150.804 113.122 148.544 114.338 146.175 115.462C143.727 116.624 141.115 116.879 139.506 119.077C138.025 121.102 138.527 120.057 136.316 120.855C135.301 121.221 134.419 122.338 133.688 123.087C132.432 124.376 132.154 126.328 131.437 123.679C131.227 124.002 130.404 126.059 130.243 126.111C129.345 125.156 129.215 126.288 128.713 126.693C128.977 127.573 128.599 128.149 127.579 128.422C127.063 128.806 126.54 129.183 126.011 129.552C124.094 130.882 121.654 132.024 120.304 134.007C119.309 133.419 118.94 132.404 119.546 131.369C117.644 133.124 115.374 134.927 114.859 137.628C114.623 137.4 114.347 137.235 114.034 137.133C113.261 137.655 114.267 139.211 114.757 139.561C116.893 138.73 114.224 139.031 115.659 139.165C116.068 139.203 116.488 139.51 116.939 139.515C118.263 139.532 119.506 139.469 120.818 139.267C123.712 138.82 126.555 137.989 129.357 137.155C132.407 136.247 135.459 135.341 138.442 134.228C140.899 133.311 143.314 132.289 145.729 131.27C146.694 130.863 147.658 130.451 148.623 130.047C150.458 129.28 151.425 128.02 151.169 130.179C152.63 129.936 153.896 127.869 155.018 127.026C156.596 125.84 158.371 124.956 160.241 124.351C160.998 124.105 161.555 123.794 162.338 123.792C162.722 123.791 162.952 124.874 163.193 124.815C164.871 124.408 164.107 123.478 164.861 122.137C166.511 119.207 170.955 117.587 173.685 115.922C175.417 114.865 176.647 113.444 178.246 112.274C178.995 111.727 179.538 111.485 180.322 111.253C180.922 111.075 181.658 112.455 182.048 111.069C180.652 110.497 179.5 109.793 178.157 109.376C177.207 109.08 178.347 108.069 176.841 108.671C176.237 108.913 176.029 110.084 175.806 110.575C174.125 109.071 169.396 110.629 167.401 111.258C167.263 111.302 166.647 110.976 166.357 110.996C165.205 111.073 164.403 112.625 163.645 113.293C161.629 115.07 159.442 115.813 156.96 116.828C157.62 113.215 162.475 111.736 165.309 110.352C169.451 108.329 173.308 105.747 177.843 104.659C180.863 103.934 184.865 103.351 186.17 106.865C186.951 108.972 187.049 114.207 184.407 115.179C184.128 114.195 185.022 113.355 185.291 112.501C182.661 113.506 182.228 116.667 180.231 118.317C179.109 119.244 178.707 119.541 178.165 120.437C177.626 121.327 177.367 122.157 176.104 123.103C174.04 118.715 174.389 124.726 173.342 125.48C173.763 125.177 171.636 126.063 171.89 125.969C171.792 126.005 170.865 124.503 170.265 124.534C169.171 124.592 169.381 125.797 168.854 126.404C167.068 128.457 164.76 129.804 161.886 129.48C161.819 130.941 162.269 132.687 160.276 132.82L160.014 129.581C158.93 130.68 157.502 131.723 156.619 132.994C155.614 134.442 155.722 135.333 154.055 136.297C152.314 137.306 148.608 139.292 146.536 139.464C147.048 138.736 146.958 138.079 146.265 137.493C145.223 138.569 143.684 138.675 142.574 139.646C146.426 141.257 139.615 141.174 138.751 141.356C138.173 141.479 137.668 142.006 137.082 142.125C136.305 142.283 136.204 141.464 135.534 141.724C134.555 142.104 134.952 143.176 133.927 143.714C133.191 144.102 131.942 144.096 131.112 144.464C129.132 145.341 124.915 147.285 123.577 144.928C122.899 148.972 115.975 146.51 113.412 146.238C109.902 145.865 103.787 144.216 107.044 139.513ZM121.787 98.133C122.284 97.7085 122.781 97.7396 123.279 98.2268C122.586 94.5668 127.942 92.7897 130.278 91.2336C133.377 89.1698 137.025 85.1656 141.08 85.4826C140.388 85.9955 139.698 86.5084 139.007 87.0213C139.994 87.1492 140.979 87.277 141.964 87.4049C141.409 88.2219 140.853 89.0382 140.295 89.8545C139.385 84.8343 134.637 91.1723 133.263 92.096C131.879 93.0257 130.499 93.7187 129.269 94.8527C128.051 95.9761 126.951 97.9991 124.936 96.9884C124.753 99.8555 122.45 99.0778 120.857 100.666C120.79 99.6694 121.36 98.9651 121.787 98.133ZM142.826 83.8205C147.728 81.983 151.995 78.5855 156.614 76.1586C161.026 73.8399 165.528 71.758 170.013 69.5951C172.288 68.4974 176.456 65.659 179.057 67.1054C182.566 69.0587 177.735 69.6889 176.48 70.3652C176.016 67.3574 174.39 70.0823 175.361 71.7557C172.683 70.5982 166.843 75.1267 164.288 76.3757C163.71 76.6586 163.969 76.8221 163.311 77.1549C163.15 77.2366 161.473 77.6187 160.993 77.7798C158.588 78.5855 157.003 77.9455 155.967 80.8512C155.75 80.1673 155.533 79.4827 155.316 78.7981C153.81 82.1819 149.233 83.6632 146.307 85.6641C145.552 86.1801 143.398 88.1811 142.441 87.7672C141.109 87.1908 141.644 84.2631 142.826 83.8205ZM231.252 94.0228C233.321 94.1598 231.326 95.1258 231.894 95.7643C231.83 95.6925 233.141 96.8113 232.969 96.5042C233.2 96.9172 233.756 96.9021 234.04 97.7418C235.019 100.629 230.745 103.613 229.303 105.252C226.5 108.439 224.881 112.475 221.96 115.56C220.641 116.953 219.329 117.916 217.5 118.435C216.221 118.799 214.867 118.41 213.691 119.641C212.744 120.633 212.958 121.197 211.912 121.724C210.067 122.654 209.255 121.838 207.46 123.848C205.916 119.646 210.353 119.653 212.668 117.304C215.864 114.063 219.366 110.792 222.363 107.325C225.025 104.243 226.092 101.542 227.355 97.7986C227.754 96.6184 228.188 94.0879 229.286 93.3473C230.996 92.1943 229.97 93.9373 231.252 94.0228ZM241.429 203.172C246.856 197.096 253.59 191.64 260.888 187.98C263.497 186.671 267.21 184.954 269.914 186.968C272.566 188.943 271.995 192.882 270.926 195.562C269.902 195.159 270.869 191.393 270.337 190.463C269.178 188.432 266.676 189.51 264.974 190.191C262.98 190.989 261.2 191.869 259.621 193.316C258.98 193.903 257.754 194.428 257.343 194.832C256.727 194.575 256.363 194.762 256.254 195.391C256.381 195.777 256.366 196.157 256.208 196.531C256.118 196.65 255.316 196.162 255.202 196.26C254.682 196.706 254.195 197.23 253.683 197.644C252.656 198.475 251.782 198.868 250.837 200.027C249.011 202.267 246.595 203.58 244.76 205.714C244.346 206.197 243.85 207.434 243.757 207.542C242.829 208.625 241.454 209.482 240.408 210.629C238.6 212.61 236.668 213.94 234.581 215.639C233.683 216.37 232.634 217.158 232.036 218.175C231.764 218.638 231.611 221.18 231.601 221.191C229.554 223.436 229.952 218.923 230.107 218.357C231.769 212.268 237.389 207.696 241.429 203.172ZM230.256 244.347C230.511 245.303 230.72 246.094 230.979 247.064C229.356 245.732 229.356 245.732 230.256 244.347ZM228.503 247.479C227.907 248.08 227.308 248.678 226.704 249.272C225.376 247.867 228.747 247.238 228.503 247.479ZM227.661 223.299C227.026 225.87 224.702 228.986 223.104 231.015C223.28 230.791 221.74 231.241 221.565 231.343C220.996 231.673 222.358 233.811 220.386 232.855C219.686 233.252 221.064 234.866 220.113 235.589C217.365 229.321 224.869 223.891 227.775 219.238C229.196 220.544 228.017 221.858 227.661 223.299ZM209.81 257.186C211.813 257.702 212.856 257.378 214.209 255.408C215.022 254.224 215.319 252.129 217.179 253.899L217.507 251.623C220.163 252.713 219.94 256.653 221.1 258.836C221.664 256.366 223.002 249.466 227.096 250.573C231.692 251.816 224.042 259.727 223.332 261.666C221.77 259.239 222.384 261.496 221.192 261.838C220.169 262.132 218.571 261.379 217.329 261.447C213.548 261.653 210.227 263.355 206.773 264.796C205.899 262.436 205.025 260.077 204.15 257.717C206.184 257.874 210.388 252.457 210.985 256.394C209.477 256.132 209.052 256.198 208.317 257.572C208.787 257.334 209.284 257.205 209.81 257.186ZM218.296 287.985C218.29 287.966 222.207 288.208 222.556 288.08C225.237 287.1 224.246 284.057 224.794 281.907C225.899 282.923 225.313 284.779 225.654 286.095C226.054 287.641 227.212 288.959 227.319 290.613C227.563 294.349 224.5 293.52 222.178 294.729C220.194 295.762 219.974 297.062 218.298 294.277C217.844 293.524 216.869 291.561 216.969 290.597C217.067 289.642 218.578 288.848 218.296 287.985ZM221.453 304.153L220.37 302.938C223.597 303.927 221.694 302.441 222.436 300.408C224.913 302.059 226.934 303.755 228.894 300.45L232.28 314.12C230.005 314.656 227.071 311.139 225.511 309.931C224.61 309.233 219.61 306.543 222.612 305.759C222.225 305.224 221.839 304.688 221.453 304.153ZM243.557 261.227C241.677 263.016 239.784 264.018 237.737 265.424C235.942 266.659 236.56 268.075 235.004 269.452C233.971 270.368 231.548 271.3 230.271 271.998C227.997 273.242 225.96 273.478 223.621 272.086C224.257 277.216 220.747 277.618 216.377 278.634C214.293 279.119 213.06 279.86 211.558 277.949C210.529 276.642 210.126 274.275 211.406 273.079C213.438 271.179 218.853 271.835 221.461 270.639C223.44 269.733 225.456 264.626 227.897 266.484C226.637 264.476 228.104 263.935 229.2 262.503C230.399 260.933 231.136 259.098 232.377 257.541C234.736 254.582 238.356 251.605 241.705 249.82C244.652 248.25 246.2 249.362 246.641 252.659C246.863 254.316 246.855 256.785 245.928 258.256C245.632 258.725 244.656 258.73 244.361 259.171C243.846 259.94 244.318 260.502 243.557 261.227ZM278.14 221.44C280.491 223.261 280.262 227.089 280.633 229.696C281.155 233.371 280.776 236.926 280.72 240.669C280.662 244.59 278.739 247.144 277.835 250.819C276.829 254.907 275.532 257.072 273.276 260.503C275.722 260.888 272.082 268.199 271.482 269.145C270.83 270.173 265.576 274.907 267.829 274.907C266.586 276.547 265.233 278.23 263.995 279.825C263.507 280.453 262.652 280.699 262.268 281.143C261.486 282.044 261.439 282.847 260.878 283.899C260.028 285.494 259.748 285.068 258.631 286.226C257.859 287.025 257.352 288.081 256.594 288.847C254.151 291.315 253.84 289.293 252.474 287.392C252.265 287.901 251.893 288.221 251.358 288.35C250.931 286.198 253.875 284.025 255.113 282.718C257.141 280.575 258.995 278.215 260.788 275.872C264.628 270.852 268.078 265.518 270.801 259.805C273.697 253.725 276.011 247.145 277.213 240.512C278.129 235.456 278.999 226.784 272.25 225.498C267.34 224.562 261.928 227.548 257.881 229.965C255.415 231.437 252.935 232.901 250.586 234.557C248.036 236.353 245.832 238.895 243.064 240.336C244.578 239.547 239.582 241.92 240.347 241.253C239.989 241.564 240.298 242.517 240.061 242.946C239.753 243.506 238.681 244.058 238.2 244.419C236.931 245.374 234.902 246.351 234.324 247.927C226.27 242.176 242.287 231.966 246.393 229.366C254.538 224.209 268.709 214.132 278.14 221.44ZM299.866 165.509C299.789 161.367 303.159 155.714 305.435 152.337C306.548 150.684 308.327 150.75 308.979 148.8C309.355 147.678 308.862 146.5 308.974 145.373C309.125 143.849 309.786 142.626 310.547 141.316C317.436 129.471 325.805 118.988 334.718 108.654C339.114 103.559 343.281 98.2691 348.021 93.4834C350.001 91.4847 355.323 84.2994 358.368 85.0181C359.98 85.3986 360.918 87.8611 361.646 89.1176C362.849 91.1958 364.173 93.1423 365.635 95.0532C369.495 100.098 373.948 104.527 379.207 108.103C382.49 110.338 385.808 112.51 389.019 114.851C391.662 116.778 395.658 118.981 397.545 121.686C399.434 124.392 396.661 126.684 395.146 128.93C392.79 132.425 390.624 136.045 388.259 139.536C387.319 138.86 387.562 137.486 386.918 136.62C386.347 135.852 385.539 135.539 384.749 135.065C383.237 134.158 381.752 133.049 380.387 134.569C377.996 137.229 381.283 143.516 384.827 142.826C385.244 145.451 378.168 149.775 376.395 151.22C370.953 155.651 365.339 159.504 358.15 159.905C355.241 160.067 352.213 159.846 349.449 158.872C348.125 158.405 346.661 157.764 345.646 156.747C344.43 155.529 344.121 153.716 342.941 152.51C341.919 151.464 340.514 151.303 339.492 150.253C338.469 149.202 337.963 147.542 337.548 146.181C336.737 143.522 336.583 140.718 335.803 138.052C335.334 136.449 334.948 134.306 333.418 135.847C331.195 138.084 332.311 145.121 332.88 147.802C333.694 151.627 335.603 154.71 337.602 158.001C339.77 161.571 340.57 164.882 340.959 169.013C341.686 176.745 343.903 184.165 347.353 191.122C348.805 194.051 350.544 196.805 352.111 199.667C352.844 201.002 354.485 205.558 356.477 205.534C359.659 205.495 355.126 196.207 354.497 194.648C351.011 186.012 347.681 176.936 346.935 167.585C351.932 168.873 357.378 170.096 362.553 169.28C359.213 176.756 362.702 184.199 362.275 191.894C362.062 195.753 361.907 199.313 361.987 203.161C362.057 206.535 360.535 209.907 359.219 212.958C356.605 219.017 353.315 226.492 348.461 231.133C344.402 235.013 338.974 235.316 333.672 234.423C321.609 232.389 313.684 223.109 308.622 212.57C305.37 205.799 302.884 198.571 301.34 191.218C299.553 182.708 300.025 174.14 299.866 165.509ZM315.531 108.157C304.275 100.005 320.631 90.7487 328.957 92.009C330.91 92.304 334.504 93.112 334.321 95.6629C334.171 97.7479 330.696 100.072 329.362 101.359C325.558 105.031 321.687 112.613 315.531 108.157ZM397.416 289.278C397.03 288.932 393.879 289.782 395.127 287.916C396.164 286.366 399.04 288.309 400.084 288.708C399.223 289.303 398.474 290.225 397.416 289.278ZM350.546 387.866C349.579 387.985 348.567 385.374 352.055 387.325C351.552 387.505 351.049 387.686 350.546 387.866ZM350.446 430.428C350.566 431.598 350.924 432.37 350.093 433.221C349.391 432.355 349.3 431.133 350.446 430.428ZM351.862 448.014C351.759 448.651 351.656 449.288 351.555 449.924C350.749 449.516 349.945 449.108 349.139 448.7C350.046 448.471 350.955 448.243 351.862 448.014ZM352.848 433.185C354.048 433.634 353.489 432.197 354.361 431.995C354.673 433.491 354.288 434.772 353.43 436.006C353.349 435.714 352.909 433.207 352.848 433.185ZM383.523 327.065C381.839 326.85 381.585 328.631 380.329 329.322C379.519 329.768 377.052 329.433 376.591 330.287C377.199 330.463 377.808 330.639 378.415 330.814C377.024 331.565 375.632 332.316 374.241 333.066C377.588 333.066 381.075 331.466 384.399 331.936C385.805 332.135 386.835 332.61 387.716 333.754C388.251 334.449 388.721 335.566 388.808 336.416C388.901 337.336 388.184 337.972 388.311 338.41C389.809 338.451 389.632 340.911 389.296 341.913C388.567 344.087 385.669 347.49 383.073 346.112C384.159 347.654 383.883 348.535 382.276 349.43C382.422 348.92 382.529 348.028 381.709 348.117C381.498 348.971 381.579 350.327 380.881 350.972C380.1 351.693 379.403 350.85 378.656 351.319C377.771 351.876 378.037 352.749 377.341 353.353C376.421 354.15 376.289 353.584 375.189 353.739C373.522 353.975 374.585 352.939 373.251 354.29C372.789 354.756 372.867 355.968 372.118 356.651C370.681 357.96 366.845 359.325 365.467 357.646C362.156 362.898 352.231 364.158 347.611 360.012C340.243 353.399 353.981 339.951 358.517 335.689C363.07 331.411 368.127 327.716 373.243 324.15C376.15 322.124 379.133 320.285 382.18 318.48C384.059 317.366 386.418 315.332 388.728 315.527C390.799 315.702 392.568 317.311 394.749 317.629C396.325 317.859 399.389 318.239 397.4 320.38C396.469 321.38 392.815 322.997 391.571 323.241C390.84 323.384 390.07 323.11 389.346 323.258C388.12 323.51 387.278 324.546 385.944 324.414C386.366 326.396 385.595 327.328 383.523 327.065ZM405.329 253.51C405.33 255.06 402.503 254.673 401.913 254.147C400.941 253.28 400.907 250.69 400.546 249.512C402.189 249.926 405.328 251.441 405.329 253.51ZM382.557 202.371C388.495 197.486 394.738 193.008 401.338 189.063C403.702 187.651 407.039 184.802 409.975 185.157C411.206 185.307 413.752 186.723 412.824 188.283C412.651 188.575 411.281 188.693 410.858 188.904C410.378 189.144 410.001 189.805 409.556 190.132C406.472 192.396 402.767 193.788 399.673 196.106C397.13 198.01 394.759 200.141 392.022 201.775C389.396 203.342 386.653 204.333 384.16 206.069C384.209 206.034 380.917 207.219 381.563 207.434C378.673 206.467 381.725 203.056 382.557 202.371ZM422.147 200.552C425.675 199.144 429.126 197.437 432.819 196.491C434.662 196.019 436.554 195.665 438.462 195.877C438.786 195.309 439.217 195.183 439.757 195.5C440.178 196.148 440.733 196.645 441.422 196.992C442.474 197.802 446.348 198.86 445.574 200.648C445.062 201.83 441.178 201.928 440.112 202.194C436.899 202.995 433.903 204.797 430.593 205.24C430.282 205.281 429.268 204.905 429.257 204.907C427.965 205.189 426.89 206.53 425.781 207.173C423.392 208.557 419.96 208.789 418.245 211.178C423.799 214.946 428.618 211.209 433.501 208.363C436.426 206.66 439.566 205.43 442.762 204.338C444.433 203.768 446.118 203.174 447.812 202.674C448.512 202.418 449.233 202.234 449.972 202.121C450.66 201.984 451.152 202.235 451.449 202.873C453.496 202.805 453.671 201.52 454.903 203.917C456.64 207.297 453.982 207.126 451.485 207.541C448.022 208.116 444.499 209.411 441.087 210.27C440.3 210.468 433.398 212.069 433.39 212.126C433.077 214.306 452.885 212.287 454.586 211.961C457.586 211.383 460.805 209.742 463.911 210.137C466.297 210.441 471.731 213.943 467.926 216.27C467.177 212.681 464.605 215.646 463.263 216.857C461.474 218.469 458.912 218.314 456.459 218.945C453.105 219.808 444.518 223.044 442.135 218.918C442.889 222.534 429.2 220.697 427.318 220.577C425.483 220.46 423.115 220.85 421.342 220.327C420.186 219.986 419.542 219.233 418.454 219.063C418.187 219.351 417.867 219.547 417.496 219.65C416.944 219.371 416.446 219.016 416.001 218.585C412.335 216.899 406.663 215.967 408.7 210.595C410.622 205.529 417.487 202.411 422.147 200.552ZM456.508 203.683C456.599 203.367 456.691 203.052 456.781 202.736C456.793 203.703 459.098 204.116 458.832 205.37C458.242 208.145 455.581 203.975 455.353 203.52C455.738 203.575 456.122 203.628 456.508 203.683ZM470.583 208.294C470.85 209.432 473.916 211.852 473.156 212.411C471.948 210.766 468.607 211.513 470.583 208.294ZM418.87 312.042C419.992 309.814 423.385 313.608 423.027 309.805C424.872 309.972 423.72 311.377 425.931 310.759C426.759 310.528 427.319 309.609 428.329 309.397C428.598 309.34 429.762 309.432 430.163 309.42C431.493 309.379 436.703 309.231 433.117 307.486C435.124 306.157 435.372 306.831 437.183 308.049C436.719 305.533 439.384 306.961 440.626 307.275C439.74 305.84 441.937 304.313 442.65 303.343C442.394 304.837 442.529 306.51 444.689 305.555C445.227 305.317 445.106 304.261 445.533 304.088C446.315 303.773 446.752 304.347 447.032 304.315C447.308 304.284 447.889 304.439 448.469 304.22C449.223 303.936 448.859 302.924 449.815 302.774C450.437 302.676 450.891 303.591 451.651 303.599C452.041 303.603 452.691 303.206 452.988 303.227C453.04 303.231 453.411 302.336 453.867 302.314C454.533 302.281 454.805 304.069 455.048 304.416C456.215 306.073 457.767 307.153 459.557 308.037C456.319 311.008 449.787 310.693 445.715 311.695C443.509 312.238 441.628 313.021 439.61 314.03C439.123 314.347 438.703 314.736 438.353 315.197C438.067 315.007 437.781 314.817 437.495 314.627C436.389 314.695 435.343 314.148 434.098 314.358C430.253 315.007 427.242 317.89 423.335 318.532C421.579 318.821 420.136 319.225 418.992 317.701C417.988 316.365 418.155 313.463 418.87 312.042ZM413.598 294.285C414.469 295.022 413.421 297.424 415.108 297.163C416.305 296.977 416.066 295.118 417.007 294.724C418.242 294.208 418.987 295.434 420.148 295.32C422.312 295.107 422.188 293.216 420.359 292.385C422.26 291.883 422.87 294.133 424.553 294.112C426.764 294.086 426.236 291.475 428.118 291.042C428.932 290.855 428.66 292.052 429.189 292.201C430.247 292.499 430.984 291.988 431.92 291.539C432.757 291.137 433.354 290.361 434.269 290.097C434.685 289.977 435.743 290.197 436.049 289.974C436.665 289.525 437.217 287.774 437.823 287.543C437.699 287.59 439.687 288.587 439.972 288.681C439.797 289.42 439.393 289.507 438.758 288.945C438.758 290.613 443.39 291.132 442.44 289.071C444.945 290.109 443.079 290.643 442.829 292.092C442.729 292.674 442.391 292.658 442.491 293.274C442.537 293.558 443.85 293.313 443.834 293.7C443.723 296.19 435.795 296.955 434.293 297.175C431.183 297.629 428.241 298.394 425.243 299.336C423.011 300.037 419.164 302.046 416.789 301.921C413.373 301.742 412.928 297.281 413.598 294.285ZM405.966 268.88C405.133 266.11 407.805 260.389 411.285 261.104C412.14 261.28 412.351 261.989 413.015 262.304C413.941 262.744 415.449 262.513 416.252 262.967C418.053 263.988 417.146 266.588 418.951 267.528C416.101 268.219 407.289 273.282 405.966 268.88ZM409.263 279.64C410.491 278.98 412.481 278.895 413.318 277.625C413.735 277.914 414.523 279.668 415.271 279.4C415.62 279.275 415.981 278.324 415.956 278.325C416.622 278.306 416.754 277.403 417.772 277.505C418.706 277.598 419.753 278.723 420.585 279.142C420.442 276.355 421.155 276.088 423.413 274.597C423.908 274.27 424.322 273.043 424.778 272.546C424.341 275.471 425.443 275.487 427.776 275.927C430.701 276.477 432.524 278.049 433.696 280.878C431.203 280.391 427.988 280.977 427.005 283.659C425.016 280.021 417.785 285.041 415.446 286.069C413.709 286.832 411.69 287.858 410.234 286.08C409.209 284.827 409.796 283.32 409.818 282.207C409.824 281.858 410.185 281.837 410.152 281.317C410.109 280.652 409.245 280.387 409.263 279.64ZM435.877 336.848C435.219 337.098 431.83 337.238 431.808 336.114C431.79 335.122 437.789 336.122 435.877 336.848ZM430.373 333.214C427.809 334.796 424.941 329.222 423.998 327.617C426.688 327.961 428 325.709 429.585 323.998C431.092 327.303 433.381 325.557 435.788 324.453C438.627 323.151 441.738 323.141 444.647 322.096C445.555 321.77 446.391 321.285 447.277 320.912C447.991 320.645 448.702 320.371 449.41 320.091C449.913 319.637 450.092 319.078 449.945 318.415C449.707 317.858 449.87 317.507 450.433 317.361C451.103 317.561 451.786 317.678 452.484 317.709C453.605 317.486 455.216 316.428 453.863 315.287C455.313 313.969 456.765 315.279 458.161 315.857C457.829 314.91 457.499 313.964 457.167 313.017C457.859 313.312 459.915 316.186 460.125 316.171C461.453 316.071 461.315 314.286 462.078 313.566C462.519 314.11 462.645 318.165 464.378 316.799C465.118 316.215 463.524 314.226 463.131 313.772C465.112 314.22 466.843 316.588 467.378 318.427C466.437 318.563 465.567 318.374 464.768 317.858C464.258 320.418 468.992 319.38 469.759 320.718C471.26 323.336 461.496 325.155 460.224 325.398C457.678 325.883 454.673 326.064 452.34 327.194C450.104 328.275 449.575 328.584 446.963 328.787C443.981 329.018 441.072 330.002 438.187 330.767C435.683 331.432 432.593 331.845 430.373 333.214ZM484.871 239.489C487.225 238.641 495.156 234.241 497.174 236.198C496.961 235.99 498.63 239.442 498.613 239.224C498.756 241.02 498.713 241.742 496.505 242.602C494.923 243.218 493.546 241.909 492.124 242.429C490.561 243 491.654 244.011 490.85 244.717C489.969 245.491 488.27 245.825 487.173 246.164C484.488 246.994 481.782 247.688 479.11 248.582C473.673 250.401 467.916 252.094 462.329 253.381C458.153 254.343 451.066 256.732 447.219 253.91C446.843 255.514 445.926 255.295 444.651 255.529C443.651 255.712 441.843 256.207 440.954 256.233C439.475 256.276 435.363 255.888 435.929 253.811C435.773 254.383 439.128 252.426 438.547 252.304C439.972 252.604 439.51 251.886 440.677 251.487C442.202 250.965 443.795 250.993 445.351 250.441C449.275 249.049 452.566 247.243 456.707 246.37C466.167 244.379 475.744 242.776 484.871 239.489ZM105.658 454.029C104.892 454.05 104.295 451.87 106.627 453.427C106.304 453.628 105.982 453.828 105.658 454.029ZM87.2379 451.209C86.1955 451.476 85.7798 450.894 85.9922 449.463C87.4457 448.888 87.8607 449.47 87.2379 451.209ZM73.0171 448.29C72.7503 447.014 73.6952 446.727 74.5515 446.154C74.4654 447.844 74.4654 447.844 73.0171 448.29ZM37.2363 437.794C35.7948 437.477 33.8742 436.066 33.5439 438.435C33.3028 437.886 32.0722 435.307 32.6006 434.71C32.8765 434.397 33.9211 435.842 33.81 435.699C35.0715 433.145 37.2461 436.227 38.4615 437.139C38.0534 437.358 37.6444 437.576 37.2363 437.794ZM412.003 155.543C412.501 154.49 413.088 154.156 413.762 154.541C412.703 157.004 409.114 158.339 412.003 155.543ZM436.939 132.421C437.828 134.089 436.491 134.794 435.536 136.181C436.095 134.685 436.482 133.649 436.939 132.421ZM545.314 295.255C548.52 295.255 555.35 293.561 557.283 297.229C558.563 294.736 560.017 299.411 561.128 300.161C561.252 300.245 562.052 299.633 562.424 299.859C562.985 300.198 563.469 301.124 563.79 301.674C564.758 303.332 565.175 305.303 565.711 307.128C560.111 307.128 554.369 305.823 548.773 305.349C545.1 305.037 541.5 305.028 537.822 305.226C537.091 305.266 535.639 305.024 535.014 305.162C534.379 305.302 533.228 306.596 532.528 306.388C533.616 308.431 547.546 313.378 548.608 311.116C547.349 310.353 544.552 309.767 544.555 307.925C544.557 305.86 547.178 305.864 548.568 305.924C551.606 306.058 556.695 307.07 557.94 310.232C558.474 311.588 558.638 315.001 558.051 316.31C557.673 317.155 557.032 318.171 556.016 318.343C555.599 318.413 554.999 317.858 554.936 317.872C552.851 318.315 548.992 319.99 546.719 317.628C545.079 319.751 537.182 317.432 534.764 316.631C530.536 315.229 524.713 313.306 522.145 309.357C519.014 304.544 525.379 300.476 529.034 298.52C534.029 295.846 539.737 295.258 545.314 295.255ZM566.652 306.384C567.636 306.661 568.618 306.94 569.601 307.217C569.338 308.942 565.46 307.577 566.652 306.384ZM596.364 369.081C596.667 362.17 594.671 356.084 593.518 349.4C593.232 347.744 593.524 344.847 592.266 343.484C591.065 342.182 588.384 343.241 588.277 340.938C587.095 342.325 587.214 342.614 585.756 341.02C586.022 341.704 586.06 342.399 585.872 343.107C584.967 342.588 581.688 340.865 581.964 343.221C579.268 342.624 580.048 340.936 578.51 339.648C578.292 339.465 577.414 340.115 577.072 339.838C576.454 339.336 576.147 338.881 575.626 338.235C574.963 339.037 574.06 339.616 573.25 340.25C572.779 339.224 571.862 338.47 570.76 338.221C571.791 340.378 574.338 343.173 570.844 344.401C568.759 345.133 565.343 344.235 563.135 344.406C554.949 345.041 545.983 343.255 538.068 341.303C529.937 339.299 521.715 336.469 514.403 332.332C512.844 331.45 511.862 330.406 510.52 329.312C509.215 328.248 508.267 328.08 506.698 327.4C503.875 326.176 501.293 324.213 499.146 322.025C494.528 317.32 490.238 311.168 491.524 304.28C492.806 297.414 497.521 292.049 502.566 287.528C508.524 282.189 515.252 277.731 522.392 274.137C525.585 272.531 533.751 266.495 536.905 270.026C538.921 272.282 537.788 275.161 535.033 275.662C534.354 275.787 533.644 275.33 532.957 275.643C531.967 276.094 532.315 276.626 531.906 277.002C531.196 277.655 530.442 278.673 529.382 279.239C525.68 281.215 522.102 282.78 518.564 285.185C516.933 286.294 515.363 286.77 513.925 287.738C512.495 288.699 512.17 290.291 510.247 289.309C510.932 292.108 506.82 295.106 505.208 296.821C502.712 299.476 499.719 302.865 500.883 306.794C503.164 314.484 513.467 320.325 520.06 323.706C528.289 327.924 537.363 331.283 546.525 332.672C551.079 333.363 555.787 333.79 560.376 334.228C563.949 334.569 569.432 333.32 572.002 336.54C572.082 332.785 583.8 333.116 586.295 332.636C581.294 315.528 571.475 300.316 560.977 286.105C555.825 279.128 550.766 271.953 544.893 265.558C538.464 258.556 531.119 252.299 524.14 245.857C510.451 233.221 494.97 221.943 479.216 212.009C463.499 202.098 447.221 192.343 430.002 185.277C410.335 177.206 389.63 171.898 368.902 167.377C371.714 163.791 376.288 162.042 379.888 159.419C381.149 158.5 382.852 156.296 384.489 155.995C386.263 155.668 387.659 157.577 388.921 158.536C392.544 161.286 395.05 160.118 399.199 159.953C401.682 159.854 407.562 161.237 408.609 157.876C410.001 159.731 407.982 161.218 406.949 162.579C407.701 163.629 408.307 162.539 409.05 162.375C409.279 162.185 409.508 161.995 409.737 161.805C410.105 161.271 410.438 161.268 410.734 161.794C411.177 162.461 411.623 162.314 412.072 161.351C412.195 161.274 412.317 161.196 412.44 161.118C412.977 160.833 413.495 160.38 413.994 160.024C417.765 157.327 421.125 155.029 425.288 153.043C428.784 151.375 426.904 148.185 429.208 145.932C429.73 145.422 430.607 145.678 431.165 145.246C431.711 144.822 431.793 144.341 432.192 143.886C433.149 142.793 432.01 141.524 434.453 142.862L433.571 137.899C438.361 142.55 438.342 129.166 438.997 127.185C438.911 127.447 439.427 125.42 439.426 125.438C439.567 121.421 440.115 118.51 435.415 118.277C437.194 117.157 437.738 119.345 438.56 117.08C438.971 115.945 437.687 113.995 439.734 114.726C440.165 112.314 439.739 110.363 439.202 108.019C438.652 105.62 438.976 104.019 439 101.62C439.028 98.8993 437.756 96.1645 437.348 93.485C437.029 91.3864 437.358 88.0767 434.648 88.8475C434.267 88.2507 435.605 86.4146 435.551 85.5068C435.466 84.0967 433.937 82.6638 433.504 81.3097C432.867 81.9678 431.969 82.1872 431.102 81.8899C431.916 80.0501 431.152 79.432 430.372 77.8456C429.926 76.937 430.195 75.9339 429.239 75.2826C428.691 74.9088 427.757 75.5383 427.328 75.1002C426.407 74.1622 426.747 72.9177 426.114 71.6816C425.319 70.1315 423.505 68.9475 422.254 67.784C415.224 61.244 407.589 56.2457 398.237 53.6902C388.803 51.112 377.805 50.1883 368.402 53.1622C364.644 54.3507 361.308 54.2289 357.926 56.4485C356.829 57.1687 356.711 56.9758 356.154 58.1763C356.025 58.4563 357.193 59.2014 356.478 59.6591C355.701 60.1561 354.843 59.1454 354.447 58.3065C349.554 61.8515 344.969 66.5774 342.182 71.9963C339.412 77.3811 339.158 83.7071 338.101 89.5587C333.223 83.9817 326.626 81.3082 319.454 83.9892C313.202 86.3253 308.358 91.4605 307.135 98.1133C306.389 102.169 307.204 106.276 309.044 109.935C309.84 111.516 310.804 113.267 312.267 114.331C313.424 115.173 315.406 115.055 315.951 116.572C316.786 118.897 311.962 123.918 310.71 125.953C308.445 129.636 306.34 133.439 304.737 137.461C298.992 129.338 293.492 120.467 286.959 112.977C280.794 105.908 273.444 99.5688 266.235 93.5939C251.274 81.1932 235.717 69.5429 218.98 59.6636C203.397 50.4645 184.573 45.3573 166.411 47.1631C148.666 48.928 135.08 60.1607 123.648 73.1159C101.666 98.0255 88.2024 133.529 86.8872 166.688C86.4918 176.649 87.25 186.48 89.708 196.141C90.8789 200.742 90.7088 205.266 91.3891 209.926C92.157 215.182 93.4851 220.419 94.7693 225.568C99.6612 245.182 105.894 264.781 112.888 283.745C116.524 293.607 120.924 303.248 126.877 311.944C129.626 315.961 133.187 319.104 136.146 322.918C139.016 326.617 139.774 331.158 140.405 335.697C141.918 346.581 142.922 357.511 143.832 368.458C144.218 373.098 144.67 377.697 145.283 382.304C145.819 386.321 144.472 386.124 141.096 387.488C141.781 383.878 125.649 386.334 124.126 386.581C122.468 386.848 120.713 386.852 119.408 387.065C117.948 387.303 116.52 387.647 114.839 387.599C112.368 387.528 107.741 386.896 106.798 390.053C106.149 386.393 101.86 390.395 105.033 389.716C101.776 390.08 98.4526 389.473 95.1563 389.781C91.3785 390.132 87.5682 390.466 83.8169 391.035C81.2054 391.431 78.7133 392.437 76.0973 392.729C72.7496 393.104 69.256 393.069 65.8758 393.367C53.4079 394.468 40.485 397.19 28.3655 400.307C25.6202 401.012 22.466 401.514 19.8432 402.647C19.141 402.95 18.5091 403.628 17.8364 403.888C16.7086 404.324 16.8628 404.023 15.8613 404.222C9.86055 405.423 3.67006 407.384 -2.32995 408.923C-5.658 409.777 -11.0715 410.547 -13.7865 412.872C-15.0034 413.913 -16.0669 415.759 -14.1168 416.942C-12.559 417.887 -10.3353 416.379 -9.07448 415.563C-10.1977 418.493 -12.3164 419.953 -11.172 423.286C-10.2687 425.921 -8.22943 429.167 -5.09186 427.468C-4.6716 428.446 -4.50153 430.392 -3.26419 430.751C-2.15232 431.074 -1.34733 429.664 -0.258137 429.996C0.131886 430.115 -0.0162611 430.852 0.332946 431.045C0.93461 431.377 1.54459 431.517 2.23393 431.751C2.82653 431.952 3.78042 432.365 4.39871 432.409C4.791 432.437 5.71542 431.765 5.7124 431.765C6.61338 431.902 7.09789 433.628 7.74641 434.126C8.58844 434.774 9.28383 434.922 10.3383 435.156C12.5302 435.643 15.3557 436.478 16.8024 434.232C16.4713 435.836 18.6504 435.679 19.6119 435.882C19.5053 435.037 19.039 434.263 18.3194 433.8C20.469 433.942 19.5975 436.081 21.1864 436.646C22.3186 437.047 22.1901 436.026 23.0563 435.913C24.1977 435.764 25.0639 436.593 26.8462 435.828C27.2325 437.546 27.3738 439.278 29.4819 439.535C30.7193 439.685 33.6044 437.449 33.4411 439.31C36.2053 438.499 37.2544 439.048 38.6989 441.486C38.943 439.989 40.1244 440.423 41.2083 440.331C42.9264 440.184 42.9702 440.322 44.302 439.349C44.4237 439.26 45.4714 436.858 45.937 438.351C46.1463 439.02 44.7624 440.593 44.2499 440.993C44.8863 441.316 46.9717 442.444 47.7737 442.236C48.4676 442.057 48.4699 440.87 49.3036 440.809C49.0995 441.491 48.8962 442.174 48.6913 442.857C50.3134 443.093 51.6686 442.006 52.9498 441.21C54.1713 444.302 57.6626 442.56 59.5613 444.886C60.5659 446.117 60.6127 447.052 62.5266 447.374C64.485 447.703 66.1955 446.843 67.8599 448.459C67.3323 447.456 66.0179 446.624 67.324 445.546C68.2129 446.809 68.6717 448.329 69.6967 449.503C69.838 448.906 69.9793 448.31 70.1207 447.712C72.7927 450.572 76.1562 450.597 79.5788 452.183V450.09C82.0293 453.833 82.16 451.464 85.0875 449.935C84.8887 451.036 84.6891 452.137 84.4903 453.237C86.5969 453.078 88.5652 455.576 90.2946 453.454C91.3392 455.207 92.6052 454.344 94.3173 454.901C95.2908 455.218 96.0157 456.177 96.9628 456.524C98.383 457.045 98.8071 457.021 100.144 457.474C101.333 457.876 102.009 458.66 103.497 458.911C104.464 459.075 105.341 459.063 106.266 459.018C106.623 459.001 106.506 458.196 107.3 458.383C108.528 458.674 109.443 460.216 110.327 461.007C111.657 457.66 115.382 462.143 117.183 462.74C117.355 461.882 117.324 460.848 117.945 460.143C118.673 461.741 118.951 463.083 120.464 464.112C121.337 464.706 122.619 465.131 123.627 465.348C124.264 465.485 125.422 465.321 125.823 465.518C126.506 465.853 126.758 466.748 127.448 466.832C127.854 466.881 128.456 465.812 128.76 465.895C130.15 466.275 130.923 467.966 132.327 468.881C136.506 471.602 141.766 471.866 146.422 472.463C147.59 472.612 147.76 472.292 148.709 472.979C149.215 473.345 148.986 474.461 149.608 474.773C151.955 475.95 151.957 473.439 152.449 471.878C153.225 472.903 153.359 474.256 154.421 475.072C155.001 475.055 155.581 475.068 156.16 475.111C156.487 475.484 156.701 475.915 156.801 476.403C158.207 477.353 159.8 477.022 161.252 477.735C161.728 477.969 162.571 479.383 163.158 479.789C164.208 480.517 165.831 480.906 167.031 481.222C169.546 481.885 173.153 481.004 174.65 483.633C176.637 481.501 175.868 484.047 177.218 484.582C178.014 484.897 179.212 483.642 180.096 483.767C181.687 483.991 182.26 485.715 182.769 486.969C183.738 486.752 183.073 484.008 183.046 483.407C184.25 483.265 184.518 486.438 184.726 487.136C186.627 486.22 183.506 483.368 185.55 482.454C185.363 484.883 187.297 486.883 183.843 487.231C184.32 488.694 195.461 490.319 196.235 489.028C196.407 491.415 198.009 489.185 198.6 488.368C198.667 489.761 198.193 491.738 199.754 492.385C200.816 492.825 203.209 491.688 203.625 490.647C204.101 492.237 204.897 492.186 205.887 493.196C206.568 493.889 207.016 495.092 207.729 495.673C209.042 496.742 211.485 496.579 213.014 496.34C216.008 495.872 215.654 495.298 216.72 498.412C216.962 497.23 217.717 494.759 219.036 496.596C219.875 497.763 218.088 500.336 217.572 501.361C218.726 500.727 219.871 499.975 221.183 499.702C221.256 500.107 221.324 500.966 221.13 501.34C221.169 501.264 222.569 502.204 223.089 502.464C222.964 502.402 223.499 500.062 223.484 500.139C225.33 501.28 224.049 503.461 225.685 504.586C226.107 504.877 227.099 504.537 227.61 504.714C228.5 505.023 229.269 505.857 230.06 506.345C229.429 505.498 229.519 504.076 229.562 503.098C229.965 503.32 230.252 504.152 230.658 504.218C230.811 504.243 232.402 504.454 232.392 504.446C234.048 505.607 233.707 505.753 232.285 507.149C232.793 507.947 234.916 506.559 235.491 506.329C235.611 506.641 235.642 507.776 235.868 507.979C236.005 508.314 236.142 508.65 236.28 508.986C236.704 508.67 237.159 508.564 237.644 508.669C237.951 508.776 240.346 509.751 240.509 509.417C239.985 509.248 239.51 508.988 239.085 508.637C240.467 507.394 241.377 506.733 242.65 508.529C242.81 508.755 242.259 509.567 242.423 509.862C243.031 510.961 244.281 511.834 245.13 512.729C245.482 511.494 244.664 508.401 246.615 508.513C248.175 508.603 249.361 512.384 248.821 513.559C249.441 512.881 253.141 512.207 253.84 512.418C255.815 513.018 255.261 514.845 257.691 512.167C259.348 513.312 257.888 513.745 258.186 515.14C258.624 515.232 259.038 515.124 259.43 514.816C259.137 520.745 263.508 516.215 266.346 517.12C267.46 517.476 267.745 518.741 268.941 519.111C269.574 519.307 270.278 518.844 270.893 518.957C271.386 518.887 271.875 518.8 272.362 518.696C272.979 518.387 273.268 518.732 273.231 519.734C274.222 520.248 273.847 520.45 275.007 520.549C275.754 520.615 276.441 519.837 277.29 519.969C278.754 520.199 278.56 521.324 279.496 521.912C280.338 522.441 281.287 522.424 282.324 522.322C282.853 522.27 284.337 521.588 284.515 521.586C285.623 521.571 285.022 521.335 286.352 522.287C287.388 523.03 287.823 523.511 289.094 523.853C290.552 524.244 293.139 525.1 294.12 524.045C295.445 526.033 296.482 524.574 298.232 524.706C299.126 524.774 299.269 525.123 300.065 525.262C301.356 525.487 302.967 525.292 304.34 525.733C306.504 526.429 306.749 526.779 308.96 526.872C309.359 526.717 309.758 526.56 310.157 526.404C310.276 527.071 310.59 527.615 311.099 528.036C312.336 528.295 313.148 527.671 314.169 526.986C314.929 529.356 317.396 529.563 319.507 529.875C322.912 530.378 326.168 530.653 329.452 531.773C332.225 532.719 335.003 533.781 337.671 534.992C340.018 536.058 342.234 537.652 344.89 536.904C350.908 535.208 356.74 529.025 361.775 525.474C367.739 521.27 374.17 517.805 380.402 514.025C405.209 498.975 431.417 486.243 455.877 470.633C469.23 462.111 481.621 451.985 495.962 445.091C493.921 453.534 490.445 462.105 491.073 470.945C491.326 474.508 492.374 478.716 495.134 481.203C498.547 484.278 502.348 482.32 505.612 480.123C512.606 475.417 517.27 468.549 522.504 462.101C528.695 454.472 533.497 446.276 538.044 437.581C539.133 439.112 538.305 441.676 538.32 443.373C538.342 445.538 538.925 447.624 539.928 449.557C542.518 454.545 547.446 455.755 551.899 452.337C560.469 445.759 565.442 434.045 570.034 424.611C572.653 429.488 576.37 435.626 582.66 432.143C587.85 429.269 590.899 422.847 592.486 417.408C597.121 401.53 595.652 385.357 596.364 369.081Z" fill="#333333"/>
<path fill-rule="evenodd" clip-rule="evenodd" d="M588.494 273.71C587.902 272.271 587.642 272.506 588.73 271.111C589.579 271.947 588.9 272.638 588.494 273.71ZM614.722 360.794C613.058 356.058 614.086 350.915 613.075 346.058C612.611 343.829 611.879 341.667 611.615 339.398C611.498 338.391 610.602 333.859 611.212 333.146C609.334 332.008 609.328 331.166 608.894 328.935C609.563 328.224 609.479 327.618 608.642 327.115C608.095 326.453 607.547 325.789 606.999 325.127C609.394 326.298 607.977 323.299 607.733 321.57C607.539 320.204 607.409 318.779 606.954 317.469C606.394 315.859 605.148 315.045 607.74 315.045C606.887 314.075 605.612 313.073 605.187 311.885C604.576 310.174 605.584 307.914 604.338 306.403C603.644 305.56 600.063 305.23 600.691 303.41C601.011 302.483 602.462 303.175 602.911 302.525C604.676 299.971 599.465 298.913 599.21 297.826C598.879 296.418 600.761 296.103 600.876 294.786C600.989 293.497 598.987 291.379 598.458 290.226C597.736 290.401 596.946 291.543 596.12 290.997C595.964 290.894 596.199 286.432 596.012 285.839C595.827 285.257 595.45 283.712 595.315 283.426C594.781 282.291 593.252 281.738 593.009 280.396C592.864 279.596 595.998 278.384 592.404 278.346C593.695 276.069 591.33 274.685 590.469 272.74C589.362 270.238 588.71 267.536 587.573 265.021C586.468 262.577 585.232 260.257 583.639 258.096C582.197 256.139 581.573 254.257 580.421 252.19C580.19 252.008 579.959 251.827 579.729 251.645C578.767 251.784 578.459 251.346 578.804 250.33C578.068 249.24 577.522 248.077 576.873 246.938C576.12 245.615 575.103 244.536 574.324 243.249C573.291 241.543 572.986 239.62 571.818 237.908C570.383 235.803 568.768 233.947 567.437 231.763C565.77 229.026 563.923 227.326 561.825 225.207C560.826 224.197 560.706 221.677 559.482 220.244C558.15 218.683 556.834 218.26 555.91 216.212C554.708 213.547 552.945 212.274 551.228 209.971C549.812 208.07 549.12 205.886 547.56 204.048C546.219 202.469 544.696 201.026 543.263 199.529C541.455 197.639 540.12 195.341 538.238 193.544C538.51 193.803 536.6 192.289 536.696 192.337C536.274 192.121 534.91 191.948 535.109 192.065C532.268 190.394 528.709 184.278 524.435 187.519C522.186 189.223 523.265 192.349 524.835 194.047C525.509 194.776 529.012 198.371 529.769 196.855C530.586 198.014 533.102 203.617 535.195 202.011C534.982 203.926 536.09 203.291 536.822 204.585C537.303 205.439 537.069 205.858 537.42 207.191C538.385 210.856 542.067 214.435 544.029 217.63C548.911 225.583 554.297 233.127 559.183 241.089C563.84 248.677 569.055 255.878 573.523 263.569C578.605 272.314 584.936 280.569 588.764 289.996C588.894 290.313 589.957 290.815 590.221 291.291C590.681 292.118 590.582 293.548 590.879 294.484C591.906 297.731 593.571 300.927 595.468 303.617C597.133 305.976 597.253 309.183 598.399 311.951C600.014 315.852 601.72 319.713 603.289 323.634C605.731 329.737 607.386 335.586 609.074 341.957C610.167 346.086 611.037 350.213 611.386 354.477C611.706 358.398 611.785 362.482 613.235 366.194C614.223 364.666 615.388 362.687 614.722 360.794Z" fill="#333333"/>
<path fill-rule="evenodd" clip-rule="evenodd" d="M56.0381 444.813C54.283 444.458 52.6315 443.985 52.2596 441.968C52.0048 442.919 51.7509 443.87 51.4962 444.821C53.633 445.305 55.7705 445.79 57.9073 446.274C57.4085 445.394 57.0442 445.016 56.0381 444.813Z" fill="#333333"/>
<path fill-rule="evenodd" clip-rule="evenodd" d="M60.7474 113.808C60.8805 113.24 61.0528 112.682 61.2652 112.138C61.4096 112.668 62.117 113.815 61.7051 114.315C61.1805 114.95 60.6499 114.591 60.7474 113.808ZM69.3514 97.4239C69.9273 97.6781 71.1737 97.7273 71.8888 97.9421C70.0339 99.5391 69.7074 99.0693 67.309 98.884C67.2025 97.2681 67.8586 96.7665 69.3514 97.4239ZM53.2735 137.427C53.5222 137.433 53.7716 137.44 54.0218 137.446C54.0369 136.742 54.0188 136.039 53.9659 135.337C56.495 135.89 55.0634 131.467 54.269 130.55C56.7361 130.632 57.9379 122.815 58.7195 121.308C59.4133 119.971 60.1994 119.453 60.7066 117.822C61.1503 116.395 61.6303 115.11 62.2705 113.76C63.7414 110.655 65.6711 107.836 65.3151 104.217C66.5615 106.932 67.6575 104.222 68.4481 102.924C69.7217 100.832 72.8291 98.163 73.1594 95.6786C73.4512 93.4916 71.8276 93.3758 72.786 91.3476C73.755 89.2945 74.5517 89.5002 76.2493 88.8436C77.3786 88.4063 77.6031 88.9374 78.3998 87.5106C78.916 86.5869 78.7339 85.8985 79.3952 85.1412C79.6681 85.3788 79.9788 85.4771 80.3264 85.4362C80.8631 84.7274 81.2153 83.9376 81.3824 83.0669C81.82 81.8912 82.0317 80.8117 82.6908 79.6921C83.3159 78.6314 84.4255 75.7938 85.0135 75.2824C85.6379 74.7392 89.1791 75.0153 89.164 75.035C90.6265 73.1936 87.9425 71.3591 91.659 71.7472C90.9251 70.3794 93.5033 68.6818 94.2516 67.9208C96.1209 66.0212 96.2698 65.1421 96.6644 62.753C96.8647 61.5351 95.557 61.6758 97.3098 61.3981C98.0347 61.2839 98.7301 62.2114 99.2532 62.0752C101.562 61.4761 99.1466 61.5903 99.7838 60.6484C99.9848 60.3496 101.012 59.1437 101.002 59.1566C100.952 59.2171 101.234 58.1073 101.466 57.8221C101.908 57.7843 102.342 57.7071 102.769 57.5906C102.986 57.1518 103.178 56.7025 103.345 56.2425C105.016 54.8475 107.516 54.2234 108.672 52.6907C109.419 51.6997 109.196 50.7291 110.162 49.7411C111.082 48.8 112.299 49.4816 112.481 47.3558C112.713 44.6513 109.81 43.4477 108.623 46.1771C105.403 42.2077 91.944 56.7713 90.3892 58.6739C83.6356 66.9335 76.9976 75.3974 71.458 84.5307C66.0604 93.4303 61.6303 102.794 58.1677 112.61C56.498 117.343 55.4814 122.054 54.4617 126.95C54.1193 128.589 51.5607 135.895 52.6257 137.53C52.8411 137.496 53.0573 137.461 53.2735 137.427Z" fill="#333333"/>
<path fill-rule="evenodd" clip-rule="evenodd" d="M584.873 339.974C586.011 339.215 586.011 339.215 586.21 337.78C584.685 338.058 584.685 338.058 584.873 339.974Z" fill="#333333"/>
<path fill-rule="evenodd" clip-rule="evenodd" d="M24.1488 436.524C24.1631 436.523 24.1737 436.527 24.182 436.535C24.1578 436.504 24.0701 436.412 24.1488 436.524Z" fill="#333333"/>
<path fill-rule="evenodd" clip-rule="evenodd" d="M23.3855 437.294C23.737 438.055 24.3016 438.244 25.0802 437.86C25.3871 438.299 22.418 435.122 23.3855 437.294Z" fill="#333333"/>
<path fill-rule="evenodd" clip-rule="evenodd" d="M74.7279 90.2866C72.9463 93.7825 75.1776 91.2398 75.0635 92.3753C75.1383 91.6294 75.4475 90.5665 74.7279 90.2866Z" fill="#333333"/>
<path fill-rule="evenodd" clip-rule="evenodd" d="M364.367 144.393C365.138 150.661 373.707 147.697 375.634 143.905C377.038 141.145 380.582 130.236 376.769 127.932C373.942 126.224 373.338 133.586 372.641 135.231C371.473 137.985 370.561 136.034 367.965 136.74C365.099 137.52 364.048 141.794 364.367 144.393Z" fill="#333333"/>
<path fill-rule="evenodd" clip-rule="evenodd" d="M355.005 132.92C358.068 133.6 361.07 133.249 363.245 130.829C364.45 129.488 366.053 126.829 363.884 125.531C361.918 124.357 359.689 127.108 357.619 126.539C354.803 125.765 356.253 122.744 355.287 120.748C351.737 122.794 349.757 131.753 355.005 132.92Z" fill="#333333"/>
<path fill-rule="evenodd" clip-rule="evenodd" d="M358.18 148.748C355.228 148.742 355.204 152.376 356.745 153.933C358.22 155.424 361.949 156.932 363.948 155.773C367.892 153.486 360.57 148.984 358.18 148.748Z" fill="#333333"/>
<path fill-rule="evenodd" clip-rule="evenodd" d="M186.397 293.269C187.028 293.576 188.886 295.152 189.669 294.44C188.564 293.326 187.458 292.212 186.353 291.097C185.742 291.767 185.323 292.747 186.397 293.269Z" fill="#333333"/>
<path fill-rule="evenodd" clip-rule="evenodd" d="M172.445 133.826C172.131 134.061 171.817 134.294 171.503 134.528C172.562 135.411 172.536 135.674 173.603 134.838C173.286 134.42 172.901 134.083 172.445 133.826Z" fill="#333333"/>
<path fill-rule="evenodd" clip-rule="evenodd" d="M372.543 341.802C371.95 340.736 370.829 342.703 370.071 343.023C368.837 343.542 367.825 340.789 368.179 344.089C365.39 342.812 363.698 345.743 361.9 347.27C359.359 349.427 356.252 350.598 354.557 353.661C362.534 355.529 371.298 348.647 377.246 344.126C378.217 343.387 383.068 339.663 379.78 339.303C378.435 339.156 373.541 343.595 372.543 341.802Z" fill="#333333"/>
<path fill-rule="evenodd" clip-rule="evenodd" d="M370.177 335.34C371.74 334.109 368.37 333.996 367.837 333.867C367.883 334.846 367.928 335.825 367.974 336.805C368.728 336.347 369.463 335.859 370.177 335.34Z" fill="#333333"/>
<path fill-rule="evenodd" clip-rule="evenodd" d="M364.308 339.448C364.775 339.156 366.077 338.245 365.191 337.565C364.391 338.075 363.819 338.907 363.693 339.857C363.898 339.721 364.103 339.585 364.308 339.448Z" fill="#333333"/>
<path fill-rule="evenodd" clip-rule="evenodd" d="M235.122 260.009C234.124 260.401 233.676 261.02 233.781 261.869C235.316 261.555 235.023 260.105 235.122 260.009Z" fill="#333333"/>
</svg>
