<svg width="50" height="29" viewBox="0 0 50 29" fill="none" xmlns="http://www.w3.org/2000/svg">
<path d="M16.3134 16.3616C12.0136 20.1964 9.71747 20.8417 8.57242 20.9569C4.65871 21.3113 3.50824 19.5318 3.50824 17.2138" stroke="#0D2371" stroke-width="2" stroke-linecap="round" stroke-linejoin="round"/>
<path d="M3.52209 17.5016C3.52209 13.9386 8.92395 8.90166 13.1369 10.069C16.0989 10.8897 16.2052 13.3912 17.2349 15.674C17.9944 17.3573 19.4257 19.258 20.6238 20.6967C22.2443 22.6424 24.3337 24.7495 26.6921 25.9376C33.4081 29.3212 41.7101 27.8396 45.6853 21.4974C49.4681 15.4626 52.2514 1.74024 40.9656 1.03257C33.0904 0.538958 26.8956 5.73908 22.2239 10.9393" stroke="#0D2371" stroke-width="2" stroke-linecap="round" stroke-linejoin="round"/>
<path d="M18.3509 19.2156C13.0131 23.9824 1 27.4387 1 17.8894" stroke="#0D2371" stroke-width="2" stroke-linecap="round" stroke-linejoin="round"/>
<path d="M1 17.8888C1.43082 6.34123 17.3956 1.27763 22.5151 12.7617C24.3711 16.925 26.4151 20.6206 31.1054 22.5159C42.652 27.1817 50.5276 4.13928 38.5924 4.82738C31.8658 5.21507 26.2074 11.8 24.3636 13.7583" stroke="#0D2371" stroke-width="2" stroke-linecap="round" stroke-linejoin="round"/>
</svg>
