<svg  viewBox="0 0 140 140" fill="none" xmlns="http://www.w3.org/2000/svg">
<path d="M136.036 39.7761C133.848 39.7761 132.072 41.5507 132.072 43.7402V92.4071H100.335V45.2709L138.408 7.19852C138.479 7.12715 138.543 7.05223 138.608 6.97703C139.459 6.24996 140 5.17098 140 3.96402C140 1.77461 138.225 0 136.036 0H43.6294C42.1342 0 40.8332 0.828789 40.1578 2.05133L19.6295 22.5796C18.0815 24.1276 18.0815 26.6377 19.6295 28.1859C20.4036 28.96 21.418 29.347 22.4325 29.347C23.4469 29.347 24.4614 28.96 25.2355 28.1859L39.6653 13.7561V39.6648H3.96451C1.77564 39.6648 0.000488281 41.4395 0.000488281 43.6289V136.036C0.000488281 138.225 1.77537 140 3.96451 140H96.3713C97.8671 140 99.1681 139.171 99.8429 137.948L122.265 115.526C123.813 113.978 123.813 111.468 122.265 109.92C120.716 108.372 118.207 108.372 116.658 109.92L100.335 126.244V100.335H136.036C138.225 100.335 140 98.5605 140 96.3711V43.7399C140 41.5507 138.225 39.7761 136.036 39.7761ZM47.5934 7.92805H126.466L94.7293 39.6651H47.5934V7.92805ZM7.92854 47.5932H92.4076V132.072H7.92854V47.5932Z" fill="url(#paint0_linear_766_44)"/>
<defs>
<linearGradient id="paint0_linear_766_44" x1="0.000488852" y1="59.92" x2="140.005" y2="60.2759" gradientUnits="userSpaceOnUse">
<stop stop-color="#EB5757"/>
<stop offset="0.817708" stop-color="#EB9659"/>
</linearGradient>
</defs>
</svg>
