<svg width="553" height="528" viewBox="0 0 553 528" fill="none" xmlns="http://www.w3.org/2000/svg">
<path d="M164.275 391.934L200.62 407.088L236.959 422.221L257.671 365.93L278.36 309.656H342.521L342.46 281.456L342.405 253.25L289.55 253.308L236.688 253.361C229.814 253.368 223.114 255.437 217.533 259.276C211.951 263.114 207.768 268.53 205.571 274.761C198.686 294.286 191.804 313.822 184.926 333.369L164.275 391.934Z" fill="#EB5757" stroke="#333333" stroke-width="3" stroke-miterlimit="10" stroke-linecap="round"/>
<path d="M181.31 263.345L152.892 373L124.48 482.655" stroke="#333333" stroke-width="3" stroke-miterlimit="10" stroke-linecap="round"/>
<path d="M259.327 395.926L251.858 346.864C249.377 330.514 246.899 314.156 244.422 297.792C242.838 287.448 243.87 277.918 246.818 270.336C249.766 262.754 254.706 257.136 260.983 254.554C262.689 253.864 264.484 253.395 266.321 253.16C269.054 252.824 271.826 252.899 274.535 253.382H419.782C419.997 254.992 420.24 257.03 420.439 259.422C420.637 261.814 420.786 264.56 420.825 267.585C420.919 275.584 421.029 284.206 419.588 292.237C418.148 300.268 415.172 307.713 409.1 313.357C407.5 314.836 405.738 316.146 403.845 317.264C400.9 318.987 397.722 320.314 394.4 321.209C392.686 321.682 390.942 322.045 389.178 322.296C387.413 322.549 385.634 322.704 383.851 322.761L358.027 323.6L332.193 324.44L335.273 357.899L338.354 391.353L298.846 393.64L259.327 395.926Z" fill="#EB5757" stroke="#333333" stroke-width="3" stroke-miterlimit="10" stroke-linecap="round"/>
<path d="M429.9 263.345H135.951C135.698 263.349 135.447 263.304 135.212 263.214C134.978 263.123 134.764 262.989 134.584 262.819C134.404 262.649 134.262 262.447 134.165 262.223C134.068 262 134.018 261.76 134.019 261.518V255.214C134.019 254.729 134.22 254.264 134.578 253.92C134.936 253.577 135.422 253.383 135.929 253.382H429.9C430.407 253.383 430.893 253.577 431.251 253.92C431.609 254.264 431.81 254.729 431.81 255.214V261.518C431.811 261.758 431.762 261.996 431.666 262.218C431.57 262.44 431.43 262.642 431.252 262.812C431.075 262.981 430.864 263.116 430.632 263.208C430.4 263.299 430.151 263.346 429.9 263.345Z" fill="#D1B7E5" stroke="#333333" stroke-width="3" stroke-miterlimit="10" stroke-linecap="round"/>
<path d="M356.211 86.7293C367.594 85.9162 379.363 85.8792 390.817 87.4474C402.272 89.0155 413.395 92.1994 423.48 97.7645C432.798 102.928 440.157 110.093 446.229 118.261C452.301 126.43 457.087 135.59 461.244 144.756C466.615 156.573 474.05 170.053 479.184 183.924C484.318 197.794 487.139 212.061 483.28 225.445C480.045 236.66 472.058 243.646 462.199 247.827C452.34 252.009 440.604 253.382 429.9 253.382H213.106C212.314 246.598 210.474 239.965 207.647 233.698C202.966 223.36 194.398 212.05 178.787 208.064L188.768 204.896L210.749 198L234.701 190.434L242.683 187.91C242.683 187.91 243.235 182.836 244.085 176.257C244.936 169.678 246.15 161.594 247.491 155.586C249.099 148.084 251.467 140.751 254.563 133.69C258.283 125.395 263.643 116.635 271.504 109.006C277.952 102.749 286.083 99.1003 294.75 96.6346C303.416 94.1688 312.613 92.8805 321.202 91.3546C326.772 90.3672 332.535 89.4274 338.398 88.6301C344.26 87.8328 350.211 87.157 356.211 86.7293Z" fill="#4F4F4F" stroke="#333333" stroke-width="3" stroke-miterlimit="10" stroke-linecap="round"/>
<path d="M322.124 124.439L307.728 188.902L293.336 253.366L317.868 253.308L342.405 253.25L332.502 188.834L322.593 124.418C322.588 124.364 322.562 124.314 322.52 124.278C322.478 124.242 322.423 124.222 322.367 124.222C322.336 124.221 322.305 124.226 322.276 124.236C322.247 124.246 322.221 124.262 322.198 124.282C322.175 124.302 322.157 124.326 322.144 124.353C322.132 124.38 322.125 124.409 322.124 124.439Z" fill="#FFF8F8" stroke="#333333" stroke-width="3" stroke-miterlimit="10" stroke-linecap="round"/>
<path d="M178.787 208.063C166.974 209.822 156.464 213.391 148.023 218.095C139.583 222.8 133.235 228.655 129.741 234.991C127.962 238.409 126.601 242.011 125.683 245.726C124.822 248.999 124.425 251.497 124.375 251.845C123.834 254.971 123.552 258.133 123.53 261.302C123.586 264.813 124.287 268.06 126.517 269.148C126.987 269.371 127.5 269.5 128.024 269.528C128.473 269.549 128.923 269.519 129.365 269.438C129.406 270.873 129.995 272.245 131.021 273.293C131.972 274.286 133.287 274.889 134.692 274.977C135.825 275.026 136.945 274.728 137.888 274.127C138.883 273.504 139.664 272.615 140.135 271.571C140.502 272.485 141.092 273.302 141.857 273.953C142.564 274.561 143.444 274.952 144.386 275.077C145.059 275.136 145.737 275.066 146.382 274.871C147.026 274.676 147.624 274.36 148.139 273.942C149.336 272.994 150.143 271.672 150.419 270.209C150.422 270.194 150.43 270.181 150.442 270.171C150.454 270.161 150.47 270.156 150.485 270.156C150.493 270.156 150.501 270.156 150.509 270.159C150.517 270.161 150.524 270.165 150.53 270.17C150.536 270.174 150.541 270.18 150.545 270.187C150.549 270.194 150.551 270.201 150.552 270.209C150.801 271.441 151.392 272.587 152.263 273.525C152.965 274.317 153.948 274.834 155.023 274.977C156.364 275.098 157.866 274.417 158.997 273.176C159.628 272.463 160.103 271.637 160.395 270.745C160.687 269.854 160.79 268.916 160.698 267.986L161.029 262.115L161.36 256.238C161.405 255.466 161.758 254.74 162.345 254.209C162.932 253.678 163.709 253.382 164.518 253.382H213.095C212.245 246.51 210.358 239.793 207.492 233.439C202.778 223.016 194.189 211.686 178.787 208.063Z" fill="#FFC0C0" stroke="#333333" stroke-width="3" stroke-miterlimit="10" stroke-linecap="round"/>
<path d="M349.394 253.382H301.368C301.37 246.625 304.177 240.145 309.173 235.367C314.169 230.59 320.944 227.906 328.009 227.906H349.394C351.143 227.905 352.875 228.234 354.491 228.874C356.107 229.513 357.575 230.451 358.812 231.634C360.049 232.817 361.031 234.221 361.7 235.766C362.369 237.312 362.714 238.968 362.714 240.641C362.715 242.314 362.371 243.971 361.702 245.518C361.032 247.064 360.051 248.468 358.814 249.652C357.577 250.835 356.109 251.773 354.492 252.413C352.876 253.053 351.143 253.382 349.394 253.382Z" fill="#F9851C" stroke="#333333" stroke-width="3" stroke-miterlimit="10" stroke-linecap="round"/>
<path d="M326.121 227.906C328.373 229.841 330.243 232.148 331.641 234.717C334.075 239.11 335.875 245.483 333.352 253.382" stroke="#333333" stroke-width="3" stroke-miterlimit="10" stroke-linecap="round"/>
<path d="M192.428 234.458L178.18 239.886L163.938 245.314C162.638 245.91 161.604 246.93 161.023 248.192C160.776 248.692 160.646 249.238 160.641 249.791C160.636 250.345 160.757 250.893 160.996 251.397C161.436 252.152 162.151 252.727 163.005 253.012C163.49 253.2 163.998 253.325 164.518 253.382" stroke="#333333" stroke-width="3" stroke-miterlimit="10" stroke-linecap="round"/>
<path d="M229.451 446.266C230.39 442.332 231.952 437.49 233.79 431.909C235.629 426.328 237.732 420.008 239.763 413.107C240.005 412.401 240.173 411.674 240.266 410.937C240.396 409.821 240.335 408.692 240.083 407.595C239.855 406.634 239.445 405.722 238.874 404.902C238.31 404.074 237.585 403.357 236.738 402.79C234.365 401.257 231.821 399.98 229.153 398.983C226.669 398.017 224.389 397.315 222.811 396.771C220.741 396.014 218.625 395.381 216.474 394.875C213.924 394.306 211.307 394.061 208.69 394.147C206.848 394.208 205.015 394.427 203.214 394.801C201.841 395.085 200.489 395.455 199.168 395.91C199.168 395.91 201.884 391.86 202.408 387.404C202.933 382.948 201.249 378.069 192.472 376.427L183.088 374.843L173.703 373.259C172.934 373.13 172.145 373.148 171.382 373.311C170.62 373.474 169.899 373.779 169.26 374.209C168.621 374.639 168.077 375.186 167.659 375.817C167.241 376.449 166.958 377.153 166.825 377.89L165.539 384.912L164.275 391.919C163.929 393.92 162.981 395.782 161.548 397.278C159.158 399.78 154.703 401.919 146.461 400.483L131.507 397.156L116.553 393.835C114.102 393.307 111.656 392.721 109.217 392.14C106.777 391.56 104.337 390.958 101.902 390.35C97.6352 389.294 90.2768 387.932 83.5974 389.041C76.9179 390.15 70.901 393.714 69.3387 402.494L141.57 444.502L213.796 486.51C219.085 477.006 222.998 466.974 225.593 459.265C228.187 451.556 229.451 446.266 229.451 446.266Z" fill="#F9851C" stroke="#333333" stroke-width="3" stroke-miterlimit="10" stroke-linecap="round"/>
<path d="M199.157 395.926C196.686 398.605 193.962 401.06 191.02 403.26C186.157 406.898 179.693 410.478 173.3 410.251" stroke="#333333" stroke-width="3" stroke-miterlimit="10" stroke-linecap="round"/>
<path d="M154.935 400.662L158.352 406.47L161.774 412.278" stroke="#333333" stroke-width="3" stroke-miterlimit="10" stroke-linecap="round"/>
<path d="M137.248 398.64L139.809 404.654C140.659 406.66 141.511 408.665 142.365 410.668" stroke="#333333" stroke-width="3" stroke-miterlimit="10" stroke-linecap="round"/>
<path d="M122.018 395.34L124.419 402.008L126.842 408.672" stroke="#333333" stroke-width="3" stroke-miterlimit="10" stroke-linecap="round"/>
<path d="M213.658 413.778C212.843 414.767 211.695 415.456 210.409 415.726C209.123 415.996 207.778 415.831 206.605 415.26C205.431 414.688 204.501 413.745 203.974 412.591C203.446 411.437 203.352 410.144 203.71 408.932C204.067 407.719 204.853 406.663 205.933 405.943C207.014 405.223 208.322 404.883 209.634 404.982C210.947 405.081 212.184 405.612 213.133 406.485C214.082 407.358 214.685 408.519 214.84 409.77C214.928 410.48 214.869 411.199 214.667 411.887C214.464 412.574 214.121 413.217 213.658 413.778Z" fill="#EB5757" stroke="#333333" stroke-width="3" stroke-miterlimit="10" stroke-linecap="round"/>
<path d="M213.918 486.732L141.747 444.502L69.5596 402.262C68.4935 406.259 68.7935 410.478 70.4157 414.301C72.0378 418.123 74.8968 421.348 78.574 423.504L105.441 439.296L132.324 455.057C133.983 456.026 135.745 456.824 137.579 457.438C139.415 458.048 141.314 458.467 143.243 458.69L144.993 458.89L146.743 459.091C146.967 459.117 147.182 459.193 147.369 459.314C147.556 459.436 147.711 459.598 147.819 459.788C147.929 459.976 147.989 460.186 147.996 460.401C148.003 460.616 147.955 460.83 147.858 461.023C147.526 461.688 147.462 462.447 147.681 463.154C147.899 463.861 148.383 464.466 149.039 464.851L161.454 472.127L173.863 479.403C174.441 479.743 175.114 479.905 175.791 479.867C176.469 479.83 177.118 479.594 177.65 479.192L178.163 478.806L178.677 478.421C178.799 478.328 178.946 478.27 179.101 478.253C179.256 478.237 179.413 478.264 179.553 478.33C179.693 478.395 179.811 478.498 179.892 478.626C179.974 478.753 180.015 478.9 180.013 479.049L179.836 480.274L179.654 481.499C179.602 481.854 179.66 482.215 179.82 482.538C179.979 482.862 180.235 483.134 180.554 483.321L183.115 484.826L185.682 486.325C186.017 486.527 186.41 486.624 186.806 486.602C187.202 486.581 187.581 486.441 187.89 486.204L188.845 485.486L189.8 484.768C189.922 484.674 190.07 484.615 190.225 484.599C190.381 484.584 190.538 484.611 190.678 484.678C190.818 484.743 190.936 484.846 191.018 484.973C191.1 485.1 191.143 485.246 191.141 485.396L191.025 486.172L190.915 486.948C190.817 487.614 190.924 488.293 191.224 488.901C191.524 489.509 192.004 490.019 192.604 490.37L194.393 491.426L196.181 492.482C197.704 493.376 199.414 493.939 201.19 494.132C202.965 494.325 204.764 494.142 206.457 493.597C208.151 493.053 209.699 492.159 210.992 490.979C212.285 489.799 213.291 488.361 213.94 486.769L213.918 486.732Z" fill="#EF3F3F" stroke="#333333" stroke-width="3" stroke-miterlimit="10" stroke-linecap="round"/>
<path d="M153.98 241.048C153.428 243.619 152.876 246.328 152.395 249.205C151.915 252.083 151.523 255.082 151.214 258.229C151.008 260.341 150.851 262.398 150.745 264.401C150.638 266.404 150.574 268.34 150.552 270.209" stroke="#333333" stroke-width="3" stroke-miterlimit="10" stroke-linecap="round"/>
<path d="M140.135 271.572C140.168 267.986 140.328 264.227 140.648 260.315C140.969 256.402 141.454 252.347 142.133 248.171C142.343 246.888 142.569 245.626 142.801 244.38C143.033 243.133 143.281 241.914 143.541 240.71" stroke="#333333" stroke-width="3" stroke-miterlimit="10" stroke-linecap="round"/>
<path d="M133.759 240.44C133.391 241.778 133.04 243.147 132.705 244.548C132.37 245.949 132.053 247.389 131.755 248.867C130.999 252.595 130.453 256.191 130.066 259.628C129.68 263.065 129.459 266.344 129.36 269.438" stroke="#333333" stroke-width="3" stroke-miterlimit="10" stroke-linecap="round"/>
<path d="M388.924 253.382L365.667 253.318L342.405 253.25C340.087 253.25 337.757 253.297 335.428 253.334C333.098 253.371 330.769 253.403 328.45 253.334C326.815 253.32 325.211 252.9 323.797 252.114C323.089 251.722 322.496 251.164 322.072 250.494C321.649 249.825 321.408 249.063 321.373 248.281C321.333 247.392 321.557 246.509 322.019 245.736C322.474 244.959 323.099 244.286 323.852 243.762C325.057 243.01 326.446 242.571 327.882 242.489C329.339 242.331 330.852 242.32 332.21 242.104C333.233 241.942 334.248 241.75 335.257 241.528C336.267 241.301 337.272 241.048 338.26 240.752C340.59 240.092 342.831 239.174 344.939 238.017C347.052 236.868 348.881 235.296 350.299 233.407C350.782 232.745 351.195 232.037 351.53 231.295C351.867 230.552 352.123 229.777 352.292 228.983C352.516 227.945 352.499 226.872 352.242 225.841C351.99 224.814 351.474 223.863 350.741 223.074L350.492 222.826C350.404 222.742 350.321 222.668 350.238 222.599C348.069 220.709 344.63 220.112 340.517 220.741C336.405 221.369 331.613 223.222 326.717 226.227L325.613 226.897C325.245 227.119 324.877 227.335 324.509 227.547L316.356 232.124L308.197 236.702C307.97 236.829 307.739 236.966 307.512 237.103C307.286 237.241 307.06 237.378 306.833 237.515C305.034 238.67 303.001 239.449 300.866 239.802C299.088 240.034 297.598 239.738 296.643 238.893C296.308 238.595 296.038 238.236 295.848 237.837C295.734 237.597 295.645 237.345 295.583 237.088C295.204 235.867 295.288 234.558 295.821 233.392C296.411 232.225 297.62 231.1 299.745 229.944C304.559 227.04 309.809 223.872 315.08 220.735C320.352 217.599 325.569 214.426 330.366 211.554L328.644 210.978L326.921 210.408L326.424 212.314L325.928 214.215L312.171 222.483L298.387 230.736C298.757 228.692 299.16 226.829 299.563 225.165C299.966 223.502 300.369 222.04 300.734 220.804C302.042 216.342 303.14 212.668 304.531 209.832C305.922 206.997 307.606 205.012 310.079 203.934C311.015 203.529 312.012 203.267 313.032 203.158C313.815 203.073 314.605 203.062 315.39 203.127C315.83 202.425 316.331 201.759 316.886 201.136C317.611 200.325 318.434 199.599 319.337 198.971C321.289 197.645 323.549 196.794 325.922 196.49C327.857 196.242 329.815 196.21 331.757 196.395C338.85 196.923 346.661 197.899 353.021 198.786C359.38 199.674 364.282 200.476 365.546 200.682C367.371 201.649 369.127 202.732 370.801 203.924C372.616 205.219 374.322 206.649 375.902 208.201C384.143 216.284 387.577 226.295 388.863 234.923C389.743 241.046 389.764 247.254 388.924 253.382Z" fill="#FFC0C0" stroke="#333333" stroke-width="3" stroke-miterlimit="10" stroke-linecap="round"/>
<path d="M400.759 157.317L407.058 172.608L413.356 187.899L389.448 194.299L365.546 200.693" stroke="#333333" stroke-width="3" stroke-miterlimit="10" stroke-linecap="round"/>
<path d="M236.214 98.3292C234.513 99.9555 231.704 100.214 228.541 99.3166C225.378 98.419 221.856 96.3704 218.726 93.3766C215.596 90.3828 213.448 87.0406 212.51 83.9888C211.572 80.9369 211.842 78.2758 213.542 76.6496C215.243 75.0233 218.047 74.7646 221.215 75.6622C224.384 76.5598 227.9 78.6084 231.03 81.6022C234.16 84.596 236.308 87.9699 237.24 90.9953C238.173 94.0208 237.908 96.7083 236.214 98.3292Z" fill="#F7CE21" stroke="#333333" stroke-width="3" stroke-miterlimit="10" stroke-linecap="round"/>
<path d="M233.807 100.352C232.416 101.699 230.636 102.619 228.695 102.992C226.759 103.368 224.749 103.173 222.932 102.432C221.41 101.812 219.953 101.053 218.582 100.167C216.968 99.1277 215.486 97.9122 214.166 96.545C212.864 95.1826 211.727 93.6842 210.777 92.0781C209.957 90.6962 209.262 89.2494 208.701 87.7538C208.163 86.3153 208.071 84.7585 208.436 83.2711C208.799 81.7805 209.593 80.4175 210.727 79.3375L212.068 78.0492L213.415 76.7661C213.244 76.9761 213.087 77.1965 212.946 77.4261C212.759 77.7269 212.597 78.0411 212.46 78.366C211.185 81.4548 212.62 84.9712 214.459 87.796C215.72 89.7079 217.202 91.4789 218.875 93.076C221.267 95.2967 224.023 97.1284 227.034 98.4986C230.042 99.808 233.04 100.315 235.17 99.0952C235.362 98.9771 235.546 98.8484 235.722 98.7098C235.916 98.5672 236.092 98.4247 236.175 98.356L235.038 99.3434L233.807 100.352Z" fill="#F9851C" stroke="#333333" stroke-width="3" stroke-miterlimit="10" stroke-linecap="round"/>
<path d="M210.975 92.347L213.073 90.5571L215.171 88.7725" stroke="#333333" stroke-width="3" stroke-miterlimit="10" stroke-linecap="round"/>
<path d="M214.668 96.4869L216.474 94.9452L218.279 93.4087" stroke="#333333" stroke-width="3" stroke-miterlimit="10" stroke-linecap="round"/>
<path d="M226.708 98.3081L224.748 100.045L222.789 101.782" stroke="#333333" stroke-width="3" stroke-miterlimit="10" stroke-linecap="round"/>
<path d="M453.471 176.452C455.166 178.073 455.436 180.761 454.498 183.786C453.56 186.812 451.429 190.186 448.288 193.179C445.147 196.173 441.664 198.222 438.473 199.119C435.282 200.017 432.5 199.758 430.8 198.132C429.1 196.506 428.829 193.823 429.768 190.793C430.706 187.762 432.853 184.399 435.983 181.405C439.113 178.411 442.635 176.363 445.798 175.465C448.961 174.567 451.771 174.826 453.471 176.452Z" fill="#F7CE21" stroke="#333333" stroke-width="3" stroke-miterlimit="10" stroke-linecap="round"/>
<path d="M455.58 178.749C456.988 180.082 457.949 181.786 458.34 183.644C458.732 185.494 458.526 187.415 457.749 189.151C457.101 190.607 456.308 192 455.381 193.311C454.295 194.855 453.024 196.273 451.594 197.535C450.171 198.782 448.605 199.87 446.924 200.777C445.48 201.562 443.967 202.226 442.403 202.762C440.9 203.279 439.271 203.367 437.717 203.016C436.16 202.668 434.735 201.911 433.604 200.83L432.257 199.542L430.916 198.253C431.137 198.415 431.368 198.564 431.606 198.702C431.92 198.881 432.249 199.036 432.588 199.167C435.818 200.386 439.494 199.019 442.447 197.255C444.444 196.046 446.296 194.629 447.968 193.031C450.292 190.731 452.208 188.083 453.637 185.191C455.006 182.318 455.536 179.446 454.261 177.408C454.136 177.225 454.001 177.049 453.858 176.88C453.709 176.695 453.56 176.526 453.493 176.452L454.548 177.598L455.58 178.749Z" fill="#F9851C" stroke="#333333" stroke-width="3" stroke-miterlimit="10" stroke-linecap="round"/>
<path d="M447.211 200.587L445.346 198.581L443.474 196.58" stroke="#333333" stroke-width="3" stroke-miterlimit="10" stroke-linecap="round"/>
<path d="M451.539 197.055L449.933 195.328L448.321 193.602" stroke="#333333" stroke-width="3" stroke-miterlimit="10" stroke-linecap="round"/>
<path d="M453.444 185.539L455.26 187.413L457.076 189.288" stroke="#333333" stroke-width="3" stroke-miterlimit="10" stroke-linecap="round"/>
<path d="M332.193 324.44L331.624 317.048L331.056 309.656" stroke="#333333" stroke-width="3" stroke-miterlimit="10" stroke-linecap="round"/>
<path d="M360.567 342.762V383.671V424.581" stroke="#333333" stroke-width="3" stroke-miterlimit="10" stroke-linecap="round"/>
<path d="M403.641 443.7V431.376C403.641 430.485 403.457 429.602 403.1 428.778C402.743 427.955 402.22 427.207 401.561 426.577C400.902 425.947 400.119 425.447 399.258 425.106C398.397 424.766 397.474 424.591 396.542 424.591H324.592C323.66 424.591 322.737 424.766 321.876 425.106C321.015 425.447 320.233 425.947 319.574 426.577C318.915 427.207 318.393 427.955 318.037 428.779C317.681 429.602 317.498 430.485 317.498 431.376V443.71" stroke="#333333" stroke-width="3" stroke-miterlimit="10" stroke-linecap="round"/>
<path d="M416.055 455.574C416.057 458.323 415.061 460.987 413.239 463.112C411.417 465.238 408.88 466.693 406.062 467.23C403.244 467.767 400.318 467.353 397.783 466.058C395.248 464.763 393.261 462.667 392.161 460.128C391.061 457.589 390.915 454.763 391.749 452.132C392.583 449.502 394.344 447.229 396.734 445.702C399.123 444.175 401.992 443.487 404.852 443.756C407.712 444.026 410.386 445.235 412.418 447.179C413.572 448.28 414.488 449.589 415.112 451.029C415.737 452.47 416.057 454.014 416.055 455.574Z" fill="#333333" stroke="#333333" stroke-width="3" stroke-miterlimit="10" stroke-linecap="round"/>
<path d="M329.913 455.574C329.914 458.323 328.919 460.987 327.097 463.112C325.275 465.238 322.738 466.693 319.92 467.23C317.101 467.767 314.176 467.353 311.641 466.058C309.106 464.763 307.119 462.667 306.019 460.128C304.919 457.589 304.773 454.763 305.607 452.132C306.44 449.502 308.202 447.229 310.591 445.702C312.981 444.175 315.85 443.487 318.71 443.756C321.57 444.026 324.243 445.235 326.275 447.179C327.43 448.28 328.346 449.589 328.97 451.029C329.594 452.47 329.915 454.014 329.913 455.574Z" fill="#333333" stroke="#333333" stroke-width="3" stroke-miterlimit="10" stroke-linecap="round"/>
<path d="M316.03 106.408L319.215 114.803L322.4 123.198L327.401 114.687L332.403 106.175L324.216 106.291L316.03 106.408Z" fill="#FFF8F8" stroke="#333333" stroke-width="3" stroke-miterlimit="10" stroke-linecap="round"/>
<path d="M362.145 144.429L342.273 133.816L322.4 123.198L335.163 101.281L347.92 79.3584C350.294 90.2035 352.665 101.049 355.035 111.894C357.405 122.739 359.775 133.584 362.145 144.429Z" fill="#4F4F4F" stroke="#333333" stroke-width="3" stroke-miterlimit="10" stroke-linecap="round"/>
<path d="M322.4 123.198L313.629 99.2429L304.857 75.2822L296.008 108.478L287.165 141.673L304.785 132.433L322.4 123.198Z" fill="#4F4F4F" stroke="#333333" stroke-width="3" stroke-miterlimit="10" stroke-linecap="round"/>
<path d="M287.562 230.995C287.561 231.708 287.301 232.398 286.827 232.949C286.353 233.499 285.694 233.876 284.963 234.014C284.231 234.152 283.473 234.043 282.815 233.706C282.158 233.37 281.644 232.825 281.359 232.166C281.074 231.507 281.037 230.774 281.254 230.091C281.471 229.409 281.929 228.82 282.549 228.424C283.169 228.028 283.914 227.85 284.656 227.92C285.398 227.99 286.091 228.304 286.618 228.809C286.918 229.096 287.156 229.437 287.318 229.812C287.48 230.187 287.563 230.589 287.562 230.995Z" fill="#333333" stroke="#333333" stroke-width="3" stroke-miterlimit="10" stroke-linecap="round"/>
<path d="M265.139 211.923L261.623 232.584L258.101 253.25" fill="#333333"/>
<path d="M265.139 211.923L261.623 232.584L258.101 253.25" stroke="#333333" stroke-width="3" stroke-miterlimit="10" stroke-linecap="round"/>
<path d="M315.39 203.138C315.202 203.523 314.976 204.009 314.722 204.579C314.468 205.149 314.203 205.804 313.932 206.533C313.468 207.784 313.126 208.898 312.867 209.875C312.607 210.852 312.42 211.691 312.271 212.388C311.903 214.071 311.52 215.868 311.122 217.779C310.725 219.69 310.309 221.722 309.875 223.872" stroke="#333333" stroke-width="3" stroke-miterlimit="10" stroke-linecap="round"/>
<path d="M307.86 218.682H233.564H159.268V168.105V117.522H233.564H307.86V168.105V218.682Z" fill="#F2994A" stroke="#333333" stroke-width="3" stroke-miterlimit="10" stroke-linecap="round"/>
<path d="M237.809 245.314L241.176 231.998L244.549 218.682H231.24H217.936L214.564 231.998L211.196 245.314H211.191L210.169 249.348L209.154 253.382H222.457H235.767H255.788H275.81V249.348V245.314H256.809H237.809Z" fill="#F2994A" stroke="#333333" stroke-width="3" stroke-miterlimit="10" stroke-linecap="round"/>
<path d="M231.4 158.717C231.199 157.574 231.158 156.411 231.279 155.258C231.483 153.326 232.206 150.997 234.287 149.397" stroke="#333333" stroke-width="3" stroke-miterlimit="10" stroke-linecap="round"/>
<path d="M231.477 158.189C231.477 158.189 231.947 157.661 232.581 157.027C233.229 156.351 233.921 155.715 234.651 155.121C235.859 154.226 237.273 153.621 238.775 153.358C239.585 153.2 240.411 153.13 241.237 153.152C243.47 153.272 245.601 154.084 247.309 155.464C248.261 156.195 249.104 157.046 249.815 157.993C251.615 160.465 252.178 163.326 252.023 166.273C251.797 169.258 251.132 172.198 250.047 175.006C249.556 176.373 248.998 177.725 248.391 179.061C247.784 180.397 247.16 181.701 246.52 183.026C246.079 183.978 245.558 184.894 244.963 185.766C244.371 186.636 243.573 187.359 242.634 187.878C241.6 188.408 240.45 188.697 239.277 188.723C238.69 188.742 238.102 188.692 237.528 188.575C236.432 188.322 235.417 187.818 234.569 187.107C234.09 186.713 233.667 186.26 233.31 185.761C232.907 186.262 232.444 186.716 231.93 187.113C231.19 187.687 230.336 188.111 229.418 188.359C227.843 188.748 226.177 188.62 224.688 187.994C223.732 187.609 222.836 187.103 222.021 186.49C221.26 185.916 220.632 185.197 220.178 184.378C218.966 182.26 217.952 180.044 217.147 177.757C216.099 175.193 215.221 172.569 214.519 169.9C214.02 167.948 213.988 165.914 214.426 163.949C214.624 163.031 214.914 162.133 215.292 161.267C215.862 159.982 216.685 158.813 217.716 157.825C218.26 157.287 218.853 156.796 219.488 156.357C220.313 155.797 221.254 155.413 222.248 155.232C224.417 154.878 226.713 155.612 228.469 156.441C229.527 156.932 230.534 157.517 231.477 158.189Z" fill="#EF3F3F" stroke="#333333" stroke-width="3" stroke-miterlimit="10" stroke-linecap="round"/>
<path d="M239.206 165.37C239.344 165.597 239.482 165.819 239.62 166.024C239.758 166.23 239.885 166.426 240.006 166.605C240.913 167.914 241.628 169.335 242.131 170.829C242.623 172.336 242.86 173.908 242.832 175.486C242.832 175.528 242.845 175.57 242.871 175.604C242.897 175.638 242.934 175.664 242.976 175.676C243.017 175.69 243.062 175.691 243.104 175.678C243.145 175.666 243.182 175.641 243.208 175.608C244.348 174.181 245.215 172.572 245.769 170.856C246.333 169.151 246.521 167.353 246.321 165.576C246.146 164.277 245.713 163.023 245.046 161.88C244.436 160.715 243.43 159.783 242.192 159.24C241.537 159.011 240.821 158.994 240.155 159.192C239.482 159.384 238.891 159.778 238.471 160.317C238.21 160.687 238.04 161.108 237.973 161.55C237.906 161.991 237.944 162.442 238.085 162.867C238.333 163.748 238.71 164.59 239.206 165.37Z" fill="#FFF8F8" stroke="#333333" stroke-width="3" stroke-miterlimit="10" stroke-linecap="round"/>
<path d="M360.346 65.0657L347.826 63.7562L335.306 62.4468C335.137 65.6887 335.417 68.9377 336.14 72.1092C337.676 78.9734 341.511 85.1708 347.064 89.7602C348.626 91.0531 350.303 92.2121 352.077 93.2239C353.768 91.1 355.228 88.8159 356.432 86.4074C358.727 81.8071 360.096 76.8348 360.467 71.7501C360.627 69.5228 360.586 67.2864 360.346 65.0657Z" fill="#333333" stroke="#333333" stroke-width="3" stroke-miterlimit="10" stroke-linecap="round"/>
<path d="M343.576 86.4071C342.974 85.7366 342.521 85.1663 342.173 84.7017C341.826 84.2371 341.621 83.8727 341.439 83.614C341.257 83.3553 341.213 83.2444 341.125 83.086C341.036 82.9276 340.954 82.7851 340.893 82.6689L341.191 82.7956L341.55 82.9382L341.87 83.0438C342.058 83.1071 342.317 83.1811 342.576 83.2444C344.008 83.5972 345.508 83.6129 346.947 83.2903C348.387 82.9677 349.723 82.3164 350.842 81.392C351.961 80.4676 352.829 79.2977 353.372 77.9825C353.915 76.6672 354.117 75.2456 353.96 73.8395C353.804 72.4333 353.293 71.0843 352.473 69.908C351.652 68.7317 350.546 67.763 349.248 67.0849C347.951 66.4068 346.501 66.0393 345.023 66.0141C343.545 65.9888 342.082 66.3064 340.76 66.9398C338.802 67.882 337.242 69.4408 336.344 71.3539C336.14 70.715 335.947 69.9969 335.792 69.2102C335.61 68.3606 335.475 67.5022 335.389 66.6388C335.312 65.8468 335.279 65.0971 335.279 64.3948C335.279 63.6926 335.306 63.0431 335.356 62.4465L313.976 60.1919L292.608 57.9585C292.321 58.6977 292.056 59.4475 291.796 60.2078C291.537 60.9681 291.322 61.7495 291.117 62.5363C288.644 71.8626 289.892 81.7358 294.617 90.2299C299.127 98.1499 306.635 104.18 316.058 106.387C322.668 107.923 329.614 107.45 335.93 105.035C342.334 102.577 347.914 98.4908 352.066 93.2183C350.953 92.5687 349.877 91.8637 348.842 91.1063C347.92 90.4411 347.142 89.8075 346.501 89.2583C346.148 88.9574 345.706 88.5561 345.204 88.0756C344.702 87.5951 344.155 87.0566 343.576 86.4071Z" fill="#FFC0C0" stroke="#333333" stroke-width="3" stroke-miterlimit="10" stroke-linecap="round"/>
<path d="M336.179 83.2392C335.904 84.2916 335.256 85.2203 334.345 85.8671C333.435 86.5138 332.318 86.8385 331.185 86.7858C330.052 86.7332 328.973 86.3064 328.133 85.5783C327.292 84.8502 326.741 83.8658 326.574 82.7928C326.407 81.7198 326.635 80.6247 327.217 79.694C327.8 78.7633 328.702 78.0546 329.77 77.6888C330.837 77.3229 332.005 77.3225 333.073 77.6876C334.141 78.0527 335.043 78.7607 335.627 79.691C335.959 80.218 336.18 80.8031 336.275 81.4121C336.369 82.0212 336.337 82.6422 336.179 83.2392Z" fill="#EF3F3F" stroke="#333333" stroke-width="3" stroke-miterlimit="10" stroke-linecap="round"/>
<path d="M306.132 91.7666C305.858 92.818 305.211 93.746 304.302 94.3923C303.392 95.0386 302.277 95.3632 301.145 95.311C300.014 95.2587 298.936 94.8327 298.096 94.1056C297.256 93.3784 296.705 92.3952 296.538 91.3234C296.371 90.2516 296.598 89.1576 297.18 88.2278C297.762 87.298 298.663 86.5899 299.729 86.2243C300.796 85.8587 301.962 85.8582 303.029 86.2227C304.096 86.5873 304.997 87.2945 305.58 88.2238C306.246 89.2887 306.444 90.5623 306.132 91.7666Z" fill="#EF3F3F" stroke="#333333" stroke-width="3" stroke-miterlimit="10" stroke-linecap="round"/>
<path d="M302.445 78.9728C302.318 79.4586 301.996 79.8767 301.548 80.1358C301.1 80.395 300.563 80.4742 300.055 80.3561C299.802 80.2974 299.565 80.1916 299.355 80.0447C299.146 79.8979 298.969 79.7129 298.835 79.5005C298.7 79.2881 298.611 79.0523 298.572 78.8068C298.533 78.5613 298.546 78.3109 298.608 78.0699C298.67 77.8286 298.78 77.6014 298.934 77.4011C299.087 77.2009 299.281 77.0316 299.503 76.9031C299.725 76.7746 299.971 76.6893 300.228 76.6521C300.485 76.6149 300.747 76.6266 300.998 76.6865C301.251 76.7437 301.488 76.8489 301.697 76.9958C301.906 77.1428 302.081 77.3285 302.213 77.5419C302.349 77.7536 302.44 77.9892 302.48 78.2349C302.52 78.4807 302.508 78.7316 302.445 78.9728Z" fill="#231F20"/>
<path d="M322.842 75.731C322.716 76.2178 322.394 76.6371 321.946 76.8974C321.498 77.1576 320.961 77.2376 320.452 77.1197C320.199 77.0609 319.962 76.9551 319.752 76.8083C319.543 76.6614 319.366 76.4765 319.232 76.264C319.097 76.0516 319.008 75.8158 318.969 75.5703C318.93 75.3248 318.943 75.0744 319.005 74.8334C319.131 74.3467 319.453 73.9273 319.901 73.667C320.349 73.4068 320.886 73.3269 321.396 73.4448C321.648 73.5035 321.885 73.6094 322.095 73.7562C322.304 73.903 322.481 74.088 322.615 74.3004C322.75 74.5129 322.839 74.7486 322.878 74.9941C322.917 75.2396 322.904 75.49 322.842 75.731Z" fill="#231F20"/>
<path d="M301.368 67.8796C305.42 66.3463 309.711 65.4718 314.065 65.2924C315.923 65.2156 317.784 65.265 319.635 65.4402C321.141 65.5852 322.638 65.8144 324.117 66.1266" stroke="#333333" stroke-width="3" stroke-miterlimit="10" stroke-linecap="round"/>
<path d="M307.026 66.7812L308.048 75.6886L309.074 84.596L310.372 84.3531L311.674 84.1155" stroke="#333333" stroke-width="3" stroke-miterlimit="10" stroke-linecap="round"/>
<path d="M334.401 34.7211C325.912 32.7772 316.963 34.1048 309.489 38.4171C301.671 42.8921 295.697 49.8002 292.569 57.9848L326.463 61.5277L360.346 65.0653C359.655 58.0017 356.84 51.2807 352.242 45.7141C347.73 40.263 341.456 36.3969 334.401 34.7211Z" fill="#F9851C" stroke="#333333" stroke-width="3" stroke-miterlimit="10" stroke-linecap="round"/>
<path d="M341.252 76.9086L344.602 75.351L347.953 73.7881" stroke="#333333" stroke-width="3" stroke-miterlimit="10" stroke-linecap="round"/>
<path d="M305.448 59.3209C305.241 62.7935 303.944 66.1258 301.727 68.883C299.633 71.5172 296.693 73.4219 293.359 74.3055C292.109 74.6248 290.821 74.7863 289.528 74.786C288.37 74.7842 287.217 74.6585 286.088 74.4111C283.219 73.8001 280.585 72.4319 278.487 70.4617C276.98 69.0562 275.819 67.3466 275.091 65.4576C274.362 63.5686 274.083 61.5478 274.275 59.5426C274.39 58.3102 274.693 57.1006 275.175 55.9522C276.251 53.4554 278.025 51.2905 280.303 49.6954C281.432 48.8663 282.72 48.2584 284.095 47.9069C285.469 47.5553 286.903 47.4669 288.313 47.6468C290.049 47.9261 291.682 48.6259 293.055 49.6796C293.965 50.3599 294.779 51.1496 295.478 52.0292C295.136 52.5572 294.794 53.175 294.457 53.8033C294.12 54.4316 293.789 55.0863 293.469 55.7833C293.298 56.1634 293.132 56.533 292.978 56.8974C292.823 57.2617 292.68 57.626 292.547 57.9534L298.989 58.6292L305.448 59.3209Z" fill="#333333" stroke="#333333" stroke-width="3" stroke-miterlimit="10" stroke-linecap="round"/>
<path d="M298.564 47.6572L328.235 51.3955L357.906 55.1284" stroke="#333333" stroke-width="3" stroke-miterlimit="10" stroke-linecap="round"/>
<path d="M307.54 48.7871L306.198 54.0249L304.857 59.2626" stroke="#333333" stroke-width="3" stroke-miterlimit="10" stroke-linecap="round"/>
<path d="M319.243 50.3394L317.979 55.292L316.709 60.2393" stroke="#333333" stroke-width="3" stroke-miterlimit="10" stroke-linecap="round"/>
<path d="M333.529 52.272L332.281 57.1349L331.034 61.9977" stroke="#333333" stroke-width="3" stroke-miterlimit="10" stroke-linecap="round"/>
<path d="M348.119 54.0938L346.937 58.6979L345.756 63.2968" stroke="#333333" stroke-width="3" stroke-miterlimit="10" stroke-linecap="round"/>
<path d="M324.735 86.7188C324.683 86.5385 324.591 86.3708 324.466 86.227C324.341 86.0832 324.185 85.9664 324.009 85.8846C323.833 85.8027 323.641 85.7575 323.446 85.752C323.25 85.7466 323.055 85.7809 322.875 85.8529L319.911 87.0356L316.941 88.2183C315.947 89.5944 315.227 91.1336 314.815 92.7591C314.487 94.0049 314.301 95.2815 314.263 96.566C315.32 96.9487 316.446 97.1281 317.576 97.094C318.694 97.0616 319.791 96.7872 320.783 96.2914C322.442 95.4199 323.724 94.0126 324.398 92.3209C325.146 90.5386 325.264 88.5713 324.735 86.7188Z" fill="#EF3F3F" stroke="#333333" stroke-width="3" stroke-miterlimit="10" stroke-linecap="round"/>
<path d="M310.305 90.8583C310.125 90.9319 309.962 91.0408 309.828 91.1781C309.694 91.3154 309.592 91.4781 309.527 91.6555C309.459 91.8334 309.432 92.0232 309.449 92.2119C309.465 92.4006 309.524 92.5836 309.621 92.7485C310.657 94.501 312.301 95.8515 314.269 96.5659C314.307 95.2815 314.492 94.0049 314.821 92.7591C315.232 91.1336 315.953 89.5944 316.946 88.2183L313.634 89.5383L310.305 90.8583Z" fill="#333333" stroke="#333333" stroke-width="3" stroke-miterlimit="10" stroke-linecap="round"/>
<path d="M472.599 50.3394H420.3C418.675 50.3394 417.117 50.9568 415.968 52.0559C414.819 53.1551 414.173 54.6458 414.173 56.2002V105.193C414.173 106.748 414.819 108.238 415.968 109.337C417.117 110.437 418.675 111.054 420.3 111.054H428.641L426.097 120.833L423.552 130.611L434.476 120.833L445.395 111.054H472.599C474.224 111.054 475.782 110.437 476.931 109.337C478.08 108.238 478.726 106.748 478.726 105.193V56.2002C478.726 54.6458 478.08 53.1551 476.931 52.0559C475.782 50.9568 474.224 50.3394 472.599 50.3394Z" fill="#F2C94C" stroke="#333333" stroke-width="3" stroke-miterlimit="10" stroke-linecap="round"/>
<path d="M466.493 80.995C466.491 85.4275 464.882 89.7223 461.941 93.1475C458.999 96.5727 454.907 98.9165 450.362 99.7797C445.816 100.643 441.098 99.9719 437.012 97.8813C432.926 95.7906 429.723 92.4095 427.951 88.3139C426.179 84.2183 425.946 79.6617 427.291 75.4201C428.637 71.1786 431.479 67.5147 435.333 65.0524C439.186 62.5902 443.813 61.482 448.425 61.9166C453.037 62.3512 457.348 64.3017 460.625 67.4359C462.49 69.2145 463.968 71.328 464.975 73.655C465.982 75.982 466.498 78.4765 466.493 80.995Z" fill="#F9851C" stroke="#333333" stroke-width="3" stroke-miterlimit="10" stroke-linecap="round"/>
<path d="M461.597 80.9952C461.593 84.349 460.373 87.5977 458.146 90.1877C455.918 92.7776 452.82 94.5484 449.38 95.1983C445.941 95.8482 442.372 95.337 439.282 93.7517C436.192 92.1665 433.772 89.6053 432.436 86.5048C431.099 83.4043 430.928 79.9564 431.951 76.7487C432.975 73.541 435.13 70.7721 438.048 68.9139C440.967 67.0557 444.47 66.2232 447.959 66.5584C451.447 66.8936 454.707 68.3757 457.181 70.7521C458.586 72.0967 459.7 73.694 460.458 75.4519C461.216 77.2098 461.603 79.0937 461.597 80.9952Z" fill="#F7CE21" stroke="#333333" stroke-width="3" stroke-miterlimit="10" stroke-linecap="round"/>
<path d="M448.558 80.8947H440.94V74.3369H448.558C449.466 74.3383 450.337 74.6844 450.979 75.2991C451.62 75.9139 451.981 76.7471 451.981 77.6158C451.981 78.4854 451.62 79.3194 450.977 79.9343C450.334 80.5492 449.462 80.8947 448.553 80.8947H448.558Z" stroke="#333333" stroke-width="3" stroke-miterlimit="10" stroke-linecap="round"/>
<path d="M448.558 87.5529H440.94V80.9951H448.558C449.467 80.9951 450.339 81.3406 450.982 81.9555C451.625 82.5704 451.986 83.4044 451.986 84.274V84.274C451.986 85.1436 451.625 85.9776 450.982 86.5925C450.339 87.2074 449.467 87.5529 448.558 87.5529Z" stroke="#333333" stroke-width="3" stroke-miterlimit="10" stroke-linecap="round"/>
<path d="M443.872 70.6885V72.5101V74.337" stroke="#333333" stroke-width="3" stroke-miterlimit="10" stroke-linecap="round"/>
<path d="M447.156 70.6885V72.5101V74.337" stroke="#333333" stroke-width="3" stroke-miterlimit="10" stroke-linecap="round"/>
<path d="M443.872 87.6533V89.4802V91.3018" stroke="#333333" stroke-width="3" stroke-miterlimit="10" stroke-linecap="round"/>
<path d="M447.156 87.6533V89.4802V91.3018" stroke="#333333" stroke-width="3" stroke-miterlimit="10" stroke-linecap="round"/>
<path d="M349.355 418.815C346.269 410.831 343.498 403.894 341.252 398.376C339.005 392.858 337.277 388.756 336.283 386.433C335.883 385.459 335.383 384.525 334.793 383.645C333.973 382.422 332.896 381.375 331.63 380.572C331.036 380.2 330.401 379.891 329.736 379.653C328.593 379.254 327.403 378.989 326.193 378.861C324.803 378.748 323.404 378.807 322.03 379.035C318.774 379.543 315.57 380.318 312.453 381.353C310.338 381.986 308.266 382.743 306.248 383.618C303.876 384.678 301.661 386.034 299.663 387.652C298.26 388.79 296.966 390.047 295.798 391.406C294.904 392.443 294.082 393.535 293.336 394.675C293.336 394.675 292.856 389.886 290.378 386.074C287.899 382.261 283.428 379.431 275.473 383.344L267.055 387.663L258.664 391.977C257.276 392.693 256.242 393.908 255.79 395.353C255.337 396.799 255.504 398.357 256.252 399.685L259.79 405.937L263.329 412.194C264.348 413.966 264.811 415.983 264.659 418.002C264.4 421.381 262.285 425.7 254.877 429.449L240.978 435.706L227.078 441.936C224.803 442.96 222.518 443.963 220.222 444.945C217.925 445.928 215.623 446.903 213.316 447.871C209.281 449.565 202.623 452.855 198.091 457.676C193.559 462.496 191.147 468.859 195.596 476.684L279.503 466.921L363.41 457.163L356.371 437.981C354.038 431.599 351.699 425.211 349.355 418.815Z" fill="#F9851C" stroke="#333333" stroke-width="3" stroke-miterlimit="10" stroke-linecap="round"/>
<path d="M293.314 394.675C293.104 398.236 292.549 401.771 291.658 405.235C290.19 410.974 287.424 417.611 282.274 421.217" stroke="#333333" stroke-width="3" stroke-miterlimit="10" stroke-linecap="round"/>
<path d="M261.634 424.581L268.087 427.152L274.54 429.697" stroke="#333333" stroke-width="3" stroke-miterlimit="10" stroke-linecap="round"/>
<path d="M246.437 433.488L252.338 436.656L258.223 439.882" stroke="#333333" stroke-width="3" stroke-miterlimit="10" stroke-linecap="round"/>
<path d="M232.339 439.882L238.532 443.699L244.731 447.517" stroke="#333333" stroke-width="3" stroke-miterlimit="10" stroke-linecap="round"/>
<path d="M316.251 400.119C316.248 401.378 315.789 402.598 314.952 403.57C314.114 404.542 312.95 405.206 311.658 405.45C310.366 405.693 309.026 405.5 307.865 404.903C306.705 404.307 305.797 403.345 305.296 402.18C304.795 401.015 304.732 399.72 305.117 398.516C305.502 397.311 306.312 396.272 307.409 395.574C308.506 394.877 309.822 394.565 311.132 394.692C312.442 394.819 313.666 395.376 314.595 396.269C315.122 396.775 315.54 397.376 315.824 398.036C316.108 398.697 316.253 399.404 316.251 400.119Z" fill="#EB5757" stroke="#333333" stroke-width="3" stroke-miterlimit="10" stroke-linecap="round"/>
<path d="M363.658 457.248L279.624 466.831L195.596 476.399C197.347 480.169 200.314 483.305 204.063 485.347C207.812 487.389 212.145 488.229 216.429 487.745L247.74 484.208L279.056 480.67C280.985 480.452 282.884 480.034 284.719 479.424C286.556 478.818 288.32 478.025 289.98 477.059L291.482 476.177L293 475.306C293.192 475.194 293.41 475.128 293.635 475.112C293.859 475.097 294.085 475.133 294.292 475.217C294.5 475.301 294.683 475.431 294.828 475.596C294.973 475.761 295.075 475.956 295.125 476.166C295.293 476.884 295.733 477.517 296.36 477.943C296.987 478.369 297.756 478.558 298.52 478.474L312.977 476.837L327.435 475.2C328.109 475.126 328.744 474.855 329.253 474.425C329.761 473.994 330.119 473.424 330.277 472.792L330.427 472.19L330.581 471.583C330.618 471.439 330.696 471.307 330.808 471.203C330.919 471.099 331.059 471.027 331.211 470.996C331.363 470.964 331.522 470.974 331.668 471.025C331.814 471.076 331.943 471.165 332.038 471.282L332.69 472.338L333.341 473.394C333.529 473.705 333.81 473.955 334.147 474.112C334.487 474.28 334.873 474.342 335.251 474.292L338.232 473.954L341.218 473.621C341.61 473.577 341.978 473.42 342.273 473.171C342.569 472.922 342.779 472.593 342.874 472.227L343.156 471.097L343.443 469.968C343.48 469.823 343.558 469.691 343.67 469.587C343.781 469.483 343.921 469.411 344.073 469.38C344.225 469.349 344.384 469.359 344.53 469.409C344.676 469.46 344.805 469.549 344.9 469.667L345.314 470.342L345.728 471.024C346.081 471.605 346.605 472.073 347.235 472.37C347.865 472.672 348.573 472.791 349.272 472.713L351.354 472.476L353.435 472.238C355.206 472.035 356.909 471.463 358.424 470.562C359.939 469.662 361.229 468.454 362.204 467.025C363.179 465.596 363.814 463.98 364.065 462.291C364.316 460.602 364.177 458.88 363.658 457.248Z" fill="#EF3F3F" stroke="#333333" stroke-width="3" stroke-miterlimit="10" stroke-linecap="round"/>
<path d="M412.788 342.962H334.042L332.546 326.304L331.056 309.651L371.905 309.756L412.754 309.857C413.501 309.856 414.241 309.996 414.931 310.269C415.621 310.542 416.248 310.943 416.776 311.448C417.305 311.953 417.723 312.553 418.009 313.213C418.294 313.873 418.441 314.581 418.44 315.295V337.519C418.441 338.233 418.294 338.941 418.009 339.601C417.723 340.261 417.305 340.861 416.776 341.366C416.248 341.871 415.621 342.271 414.931 342.545C414.241 342.818 413.501 342.958 412.754 342.957L412.788 342.962Z" fill="#F2994A" stroke="#333333" stroke-width="3" stroke-miterlimit="10" stroke-linecap="round"/>
<path d="M386.109 263.345L414.526 373L442.939 482.655" stroke="#333333" stroke-width="3" stroke-miterlimit="10" stroke-linecap="round"/>
<path d="M331.404 309.804L370.834 326.104L410.248 342.398C411.169 342.779 412.175 342.933 413.174 342.848C414.173 342.763 415.135 342.44 415.97 341.909C416.806 341.378 417.49 340.656 417.96 339.808C418.43 338.961 418.671 338.014 418.661 337.054L418.545 325.845L418.424 314.641C418.406 313.377 417.87 312.171 416.932 311.282C415.993 310.393 414.727 309.893 413.406 309.889L372.43 309.783L331.453 309.678C331.435 309.676 331.417 309.681 331.403 309.692C331.388 309.703 331.379 309.718 331.376 309.736C331.374 309.748 331.375 309.761 331.38 309.773C331.385 309.785 331.393 309.796 331.404 309.804Z" fill="#333333" stroke="#333333" stroke-width="3" stroke-miterlimit="10" stroke-linecap="round"/>
<path d="M400.886 157.624C402.958 162.65 405.026 167.673 407.091 172.693L413.301 187.762C413.315 187.796 413.315 187.834 413.301 187.867C413.292 187.884 413.279 187.899 413.264 187.911C413.249 187.922 413.231 187.931 413.213 187.936L399.539 191.595L385.86 195.259C385.837 195.265 385.812 195.264 385.789 195.258C385.765 195.251 385.744 195.239 385.728 195.222C385.709 195.205 385.697 195.182 385.692 195.158C385.687 195.133 385.69 195.108 385.7 195.085L393.163 176.352L400.643 157.629C400.652 157.604 400.67 157.582 400.692 157.567C400.715 157.552 400.742 157.544 400.77 157.544C400.795 157.546 400.82 157.554 400.84 157.568C400.861 157.582 400.877 157.601 400.886 157.624Z" fill="#333333" stroke="#333333" stroke-width="3" stroke-miterlimit="10" stroke-linecap="round"/>
</svg>
