<svg width="574" height="534" viewBox="0 0 574 534" fill="none" xmlns="http://www.w3.org/2000/svg">
<path d="M260.835 215.031C260.835 215.031 294.094 200.378 335.485 198.867C376.875 197.356 426.311 209.013 458.665 261.564L480.702 296.808L502.739 332.052C504.605 335.028 506.516 337.976 508.473 340.895C510.431 343.814 512.394 346.739 514.363 349.669C521.628 360.375 524.684 372.23 523.945 383.204C523.205 394.177 518.732 404.286 510.939 411.506C505.724 416.249 499.286 419.664 492.245 421.422C486.642 422.839 480.846 423.485 475.042 423.339C466.551 423.161 458.059 423.003 449.564 422.864C441.07 422.725 432.577 422.656 424.086 422.656H187.016C176.049 422.656 165.081 422.704 154.113 422.8C143.145 422.896 132.179 423.031 121.215 423.206C117.309 423.284 113.412 422.817 109.654 421.823C104.85 420.556 100.437 418.245 96.7805 415.078C91.4154 410.331 87.8991 404.056 86.7856 397.243C85.5713 390.067 86.7397 382.717 90.1344 376.176L95.7541 362.549L101.368 348.926L113.599 319.247L125.831 289.567C131.224 277.074 139.785 265.983 150.783 257.242C161.78 248.5 174.887 242.369 188.983 239.371L224.915 227.19L260.835 215.031Z" fill="#4F4F4F" stroke="#333333" stroke-width="3" stroke-miterlimit="10" stroke-linecap="round"/>
<path d="M307.719 241.368C308.063 234.714 308.405 228.064 308.746 221.418C309.086 214.771 309.426 208.119 309.766 201.462C311.75 201.12 313.78 200.795 315.942 200.501C318.104 200.207 320.277 199.967 322.554 199.721C324.301 199.543 326.021 199.397 327.715 199.284C329.408 199.17 331.043 199.077 332.618 199.006C328.47 206.065 324.326 213.127 320.186 220.19L307.719 241.368Z" fill="#333333" stroke="#333333" stroke-width="3" stroke-miterlimit="10" stroke-linecap="round"/>
<path d="M475.025 423.334C471.166 423.473 465.661 421.096 461.125 418.683C458.33 417.204 455.62 415.59 453.005 413.85L402.543 383.038L352.052 352.253L372.15 320.026L392.272 287.794L424.689 304.647L457.111 321.495" stroke="#333333" stroke-width="3" stroke-miterlimit="10" stroke-linecap="round"/>
<path d="M222.799 253.976L235.283 249.602L247.772 245.229L247.394 260.128L247.015 275.026C247.015 275.087 246.995 275.145 246.958 275.195C246.921 275.244 246.869 275.282 246.809 275.304C246.75 275.326 246.686 275.332 246.624 275.32C246.561 275.309 246.504 275.281 246.459 275.24L234.629 264.608L222.799 253.976Z" fill="#FFF8F8" stroke="#333333" stroke-width="3" stroke-miterlimit="10" stroke-linecap="round"/>
<path d="M245.994 276.147L250.582 349.402L255.169 422.65H340.359L294.364 349.065L248.368 275.48C248.225 275.248 248.002 275.068 247.735 274.969C247.467 274.87 247.172 274.858 246.897 274.936C246.622 275.013 246.383 275.175 246.219 275.395C246.055 275.615 245.976 275.88 245.994 276.147Z" fill="#FFF8F8" stroke="#333333" stroke-width="3" stroke-miterlimit="10" stroke-linecap="round"/>
<path d="M297.328 380.16L270.234 366.351L243.127 352.541C243.048 352.502 242.979 352.448 242.923 352.383C242.866 352.318 242.825 352.243 242.8 352.162C242.775 352.083 242.766 351.999 242.776 351.916C242.786 351.834 242.814 351.754 242.858 351.682L303.183 249.042L363.497 146.401L391.189 160.515L418.885 174.618L358.571 277.263L298.257 379.904C298.215 379.977 298.157 380.042 298.087 380.094C298.017 380.146 297.937 380.185 297.85 380.208C297.676 380.256 297.489 380.239 297.328 380.16Z" fill="#F2994A" stroke="#333333" stroke-width="3" stroke-miterlimit="10" stroke-linecap="round"/>
<path d="M263.324 364.631C263.171 364.632 263.018 364.614 262.871 364.578C262.719 364.545 262.573 364.495 262.435 364.428C261.98 364.207 261.638 363.828 261.483 363.372C261.328 362.917 261.373 362.423 261.609 361.999L312.375 271.016L363.147 180.033C363.384 179.608 363.792 179.288 364.282 179.143C364.772 178.998 365.303 179.041 365.759 179.261C366.216 179.481 366.559 179.861 366.715 180.317C366.87 180.774 366.825 181.269 366.588 181.693L315.81 272.676L265.038 363.654C264.874 363.951 264.624 364.199 264.316 364.369C264.016 364.538 263.674 364.629 263.324 364.631Z" fill="#14AF6C" stroke="#333333" stroke-width="3" stroke-miterlimit="10" stroke-linecap="round"/>
<path d="M282.316 374.334C282.167 374.334 282.019 374.318 281.874 374.286C281.724 374.249 281.578 374.199 281.439 374.137C281.211 374.026 281.01 373.875 280.845 373.691C280.681 373.508 280.557 373.296 280.481 373.069C280.402 372.844 280.371 372.607 280.391 372.372C280.41 372.136 280.48 371.907 280.596 371.696L330.29 281.06L379.978 190.425C380.214 190.004 380.618 189.686 381.104 189.542C381.59 189.398 382.118 189.438 382.572 189.655C383.026 189.871 383.369 190.246 383.528 190.697C383.687 191.148 383.647 191.64 383.418 192.064L333.73 282.694L284.042 373.33C283.878 373.624 283.631 373.87 283.328 374.043C283.025 374.216 282.677 374.31 282.322 374.313L282.316 374.334Z" fill="#14AF6C" stroke="#333333" stroke-width="3" stroke-miterlimit="10" stroke-linecap="round"/>
<path d="M188.978 239.387L199.879 277.883L210.78 316.379L228.889 296.055L246.998 275.726L224.376 255.391L201.754 235.056L195.366 237.219L188.978 239.387Z" fill="#4F4F4F" stroke="#333333" stroke-width="3" stroke-miterlimit="10" stroke-linecap="round"/>
<path d="M248.426 219.234L247.715 247.482L246.998 275.726L275.142 276.831L303.281 277.936L285.246 245.229L267.212 212.521L257.819 215.88L248.426 219.234Z" fill="#4F4F4F" stroke="#333333" stroke-width="3" stroke-miterlimit="10" stroke-linecap="round"/>
<path d="M309.376 238.5L294.014 240.701L278.68 242.901C276.566 243.767 274.657 245.014 273.061 246.569C270.463 249.116 268.295 253.105 270.004 258.851C269.085 259.144 268.216 259.557 267.424 260.079C265.875 261.073 264.671 262.466 263.959 264.086C263.246 265.707 263.055 267.486 263.41 269.205C263.585 270.12 263.899 271.007 264.344 271.838C263.192 272.105 262.099 272.559 261.116 273.178C260.509 273.561 259.96 274.017 259.482 274.535C257.932 276.346 257.167 278.632 257.337 280.943C257.499 283.693 258.449 286.352 260.089 288.643C259.763 288.933 259.466 289.249 259.201 289.588C258.96 289.893 258.747 290.217 258.564 290.555C256.603 294.213 258.599 298.917 261.173 302.789C262.923 305.376 264.948 307.793 267.217 310.003L275.079 297.577C277.694 293.433 280.313 289.289 282.935 285.145L290.992 303.552L299.02 321.959C299.759 323.375 300.862 324.598 302.231 325.521C303.791 326.627 305.735 327.433 307.713 327.305C308.893 327.207 310.022 326.814 310.982 326.167C311.589 325.768 312.145 325.306 312.639 324.79C314.818 322.557 315.311 319.167 314.033 312.726C312.754 306.286 309.709 296.792 304.818 282.369C304.818 282.369 304.244 280.713 303.005 277.061C301.767 273.408 299.8 267.737 297.03 259.738L303.195 249.122L309.376 238.5Z" fill="#FFC0C0" stroke="#333333" stroke-width="3" stroke-miterlimit="10" stroke-linecap="round"/>
<path d="M239.044 417.534L248.42 411.628L257.801 405.722L249.011 400.585L240.226 395.443L239.635 406.486L239.044 417.534Z" fill="#F2994A" stroke="#333333" stroke-width="3" stroke-miterlimit="10" stroke-linecap="round"/>
<path d="M242.519 352.616L241.373 374.03L240.226 395.443L249.011 400.586L257.801 405.723L277.694 393.2L297.604 380.678C297.64 380.656 297.669 380.626 297.689 380.59C297.71 380.555 297.72 380.515 297.718 380.475C297.716 380.435 297.702 380.395 297.679 380.361C297.656 380.326 297.624 380.298 297.586 380.278L270.228 366.324L242.898 352.44C242.86 352.421 242.817 352.412 242.774 352.412C242.731 352.413 242.688 352.423 242.651 352.443C242.613 352.462 242.581 352.491 242.558 352.525C242.535 352.559 242.522 352.598 242.519 352.638V352.616Z" fill="#F7CE21" stroke="#333333" stroke-width="3" stroke-miterlimit="10" stroke-linecap="round"/>
<path d="M126.634 137.414C128.945 145.471 128.184 154.026 124.482 161.619C120.779 169.213 114.363 175.376 106.328 179.058C98.2927 182.74 89.1348 183.713 80.415 181.813C71.6951 179.912 63.953 175.254 58.5077 168.633C53.0625 162.012 50.2512 153.837 50.5529 145.502C50.8546 137.167 54.2506 129.188 60.1622 122.923C66.0738 116.658 74.1352 112.497 82.9727 111.147C91.8101 109.797 100.877 111.342 108.628 115.52C113.029 117.886 116.886 121.038 119.976 124.795C123.066 128.552 125.328 132.84 126.634 137.414Z" fill="#F7CE21" stroke="#333333" stroke-width="3" stroke-miterlimit="10" stroke-linecap="round"/>
<path d="M80.1165 291.602H196.708C198.213 310.765 200.912 329.831 204.793 348.702C211.015 378.211 221.6 409.696 239.044 417.535H386.549V423.35L252.199 423.281L117.854 423.211C114.156 418.565 111.099 414.219 108.605 410.395C106.11 406.572 104.172 403.224 102.727 400.602C93.7987 384.405 88.7352 368.46 85.6903 353.471C82.6453 338.481 81.6246 324.448 80.7989 312.075C80.5007 307.611 80.3287 303.574 80.2254 300.114C80.1222 296.653 80.1165 293.754 80.1165 291.602Z" fill="#FFF8F8" stroke="#333333" stroke-width="3" stroke-miterlimit="10" stroke-linecap="round"/>
<path d="M61.6748 338.615H175.674C182.008 352.608 189.622 366.068 198.434 378.846C212.638 399.256 232.513 420.269 255.164 422.634L186.506 422.928L117.854 423.206C117.854 423.206 107.326 416.573 95.0373 402.684C82.7486 388.795 68.7108 367.648 61.6748 338.615Z" fill="#F2994A" stroke="#333333" stroke-width="3" stroke-miterlimit="10" stroke-linecap="round"/>
<path d="M55.8085 357.476H157.077C162.622 367.723 168.777 377.675 175.513 387.283C186.346 402.652 200.412 418.95 213.36 422.65L165.599 422.928L117.854 423.206C117.854 423.206 109.184 423.969 97.1017 416.136C85.0194 408.302 69.5022 391.876 55.8085 357.476Z" fill="#F2994A" stroke="#333333" stroke-width="3" stroke-miterlimit="10" stroke-linecap="round"/>
<path d="M269.981 258.846L276.438 271.987L282.889 285.129" stroke="#333333" stroke-width="3" stroke-miterlimit="10" stroke-linecap="round"/>
<path d="M260.571 183.424L244.767 188.459L228.958 193.49C230.673 197.368 232.931 201.018 235.673 204.346C241.546 211.563 249.789 216.798 259.149 219.255C261.786 219.951 264.484 220.428 267.212 220.681C267.99 217.311 268.397 213.875 268.427 210.428C268.454 206.843 268.085 203.264 267.326 199.748C266.698 196.834 265.802 193.975 264.648 191.204C263.529 188.507 262.165 185.905 260.571 183.424Z" fill="#333333" stroke="#333333" stroke-width="3" stroke-miterlimit="10" stroke-linecap="round"/>
<path d="M252.967 217.172C251.821 216.702 250.972 216.275 250.284 215.907C249.596 215.538 249.102 215.244 248.758 215.026C248.506 214.865 248.271 214.716 248.07 214.577L247.543 214.209H247.984L248.5 214.182C248.5 214.182 248.678 214.182 248.942 214.139C249.206 214.096 249.561 214.064 249.911 214C251.837 213.662 253.647 212.895 255.185 211.764C256.723 210.632 257.945 209.171 258.744 207.504C259.543 205.837 259.897 204.015 259.775 202.193C259.653 200.371 259.059 198.604 258.044 197.043C257.028 195.481 255.622 194.172 253.945 193.228C252.267 192.283 250.369 191.731 248.413 191.618C246.456 191.506 244.5 191.836 242.711 192.581C240.921 193.327 239.352 194.465 238.138 195.898C236.331 198.023 235.365 200.663 235.403 203.374C234.789 202.733 234.13 201.996 233.465 201.163C232.746 200.266 232.08 199.334 231.469 198.37C230.896 197.484 230.426 196.624 230.013 195.802C229.6 194.979 229.25 194.2 228.958 193.489L202.006 202.076L175.055 210.663C175.143 211.677 175.259 212.696 175.404 213.717C175.55 214.739 175.741 215.764 175.978 216.793C178.753 229.7 186.38 240.423 196.472 247.338C206.565 254.253 219.043 257.345 231.658 254.995C240.515 253.322 248.591 249.118 254.762 242.97C261.018 236.737 265.323 229.029 267.212 220.681C265.499 220.517 263.797 220.267 262.114 219.933C260.606 219.634 259.304 219.308 258.214 218.998C257.641 218.828 256.844 218.598 255.955 218.299C255.066 218 254.023 217.626 252.967 217.172Z" fill="#FFC0C0" stroke="#333333" stroke-width="3" stroke-miterlimit="10" stroke-linecap="round"/>
<path d="M242.221 217.338C242.516 218.71 242.29 220.135 241.583 221.37C240.876 222.605 239.731 223.574 238.343 224.111C236.955 224.648 235.41 224.72 233.971 224.315C232.532 223.91 231.289 223.053 230.452 221.891C229.616 220.728 229.238 219.331 229.384 217.938C229.529 216.545 230.188 215.242 231.25 214.251C232.311 213.26 233.709 212.642 235.204 212.503C236.699 212.364 238.201 212.712 239.451 213.488C240.164 213.927 240.775 214.493 241.251 215.154C241.726 215.815 242.056 216.557 242.221 217.338Z" fill="#EF3F3F" stroke="#333333" stroke-width="3" stroke-miterlimit="10" stroke-linecap="round"/>
<path d="M211.158 243.066C211.453 244.438 211.227 245.863 210.52 247.098C209.813 248.333 208.668 249.302 207.28 249.839C205.892 250.376 204.347 250.448 202.908 250.043C201.469 249.638 200.226 248.781 199.389 247.619C198.553 246.456 198.175 245.059 198.321 243.666C198.466 242.273 199.125 240.97 200.187 239.979C201.248 238.988 202.646 238.37 204.141 238.231C205.637 238.092 207.138 238.44 208.388 239.216C209.1 239.655 209.711 240.222 210.187 240.883C210.662 241.544 210.992 242.286 211.158 243.066Z" fill="#EF3F3F" stroke="#333333" stroke-width="3" stroke-miterlimit="10" stroke-linecap="round"/>
<path d="M199.202 230.031C199.339 230.666 199.201 231.327 198.818 231.868C198.431 232.405 197.831 232.777 197.15 232.904C196.469 233.031 195.762 232.903 195.182 232.546C194.604 232.186 194.202 231.627 194.064 230.992C193.995 230.678 193.995 230.354 194.062 230.04C194.128 229.725 194.262 229.427 194.454 229.161C194.645 228.894 194.89 228.664 195.176 228.486C195.462 228.307 195.783 228.183 196.121 228.12C196.458 228.057 196.806 228.056 197.144 228.119C197.482 228.181 197.803 228.304 198.09 228.482C198.375 228.659 198.621 228.887 198.812 229.153C199.003 229.419 199.135 229.717 199.202 230.031Z" fill="#231F20"/>
<path d="M221.795 215.56C221.915 216.115 221.824 216.691 221.538 217.19C221.253 217.69 220.79 218.082 220.229 218.299C219.668 218.516 219.043 218.546 218.461 218.382C217.88 218.219 217.377 217.872 217.039 217.402C216.7 216.932 216.548 216.368 216.606 215.804C216.665 215.241 216.932 214.714 217.361 214.314C217.79 213.913 218.355 213.663 218.96 213.607C219.565 213.551 220.172 213.692 220.677 214.006C221.256 214.366 221.658 214.925 221.795 215.56Z" fill="#231F20"/>
<path d="M191.38 217.632C197.045 212.035 204.064 207.78 211.852 205.221C213.747 204.603 215.679 204.086 217.638 203.673" stroke="#333333" stroke-width="3" stroke-miterlimit="10" stroke-linecap="round"/>
<path d="M197.533 213.386L204.002 223.26L210.47 233.134L211.892 232.178L213.314 231.216" stroke="#333333" stroke-width="3" stroke-miterlimit="10" stroke-linecap="round"/>
<path d="M211.554 161.546C199.942 163.714 190.297 170.122 183.811 178.922C177.061 188.252 173.954 199.456 175.009 210.663L217.793 197.046L260.571 183.429C255.588 175.531 248.251 169.148 239.452 165.054C230.826 161.041 221.014 159.807 211.554 161.546Z" fill="#F2994A" stroke="#333333" stroke-width="3" stroke-miterlimit="10" stroke-linecap="round"/>
<path d="M244.589 207.288L247.698 203.71L250.8 200.127" stroke="#333333" stroke-width="3" stroke-miterlimit="10" stroke-linecap="round"/>
<path d="M191.248 205.489C193.039 209.659 193.439 214.235 192.395 218.62C191.419 222.797 189.002 226.563 185.514 229.342C184.201 230.37 182.749 231.234 181.196 231.911C176.23 234.057 170.562 234.32 165.392 232.643C162.759 231.785 160.364 230.393 158.38 228.567C156.397 226.741 154.874 224.527 153.923 222.085C153.339 220.584 152.991 219.012 152.891 217.418C152.716 213.93 153.581 210.464 155.391 207.406C157.238 204.324 160.065 201.815 163.81 200.811C166.056 200.231 168.424 200.193 170.691 200.699C172.182 201.019 173.623 201.514 174.98 202.172C174.9 203.006 174.837 203.876 174.802 204.784C174.768 205.692 174.756 206.637 174.802 207.619C174.802 208.153 174.837 208.687 174.865 209.179C174.894 209.67 174.934 210.182 174.98 210.663L183.111 208.079L191.248 205.489Z" fill="#333333" stroke="#333333" stroke-width="3" stroke-miterlimit="10" stroke-linecap="round"/>
<path d="M176.121 195.46L213.951 184.278L251.775 173.096" stroke="#333333" stroke-width="3" stroke-miterlimit="10" stroke-linecap="round"/>
<path d="M187.567 192.08L189.035 198.904L190.503 205.729" stroke="#333333" stroke-width="3" stroke-miterlimit="10" stroke-linecap="round"/>
<path d="M202.534 187.76L203.921 194.211L205.309 200.661" stroke="#333333" stroke-width="3" stroke-miterlimit="10" stroke-linecap="round"/>
<path d="M220.821 182.532L222.185 188.87L223.55 195.209" stroke="#333333" stroke-width="3" stroke-miterlimit="10" stroke-linecap="round"/>
<path d="M239.411 177.021L240.702 183.012L241.992 189.009" stroke="#333333" stroke-width="3" stroke-miterlimit="10" stroke-linecap="round"/>
<path d="M216.6 239.766C218.285 239.924 219.985 239.684 221.543 239.067C224.066 238.036 226.704 235.649 227.088 230.218" stroke="#333333" stroke-width="3" stroke-miterlimit="10" stroke-linecap="round"/>
<path d="M422.252 162.363C422.243 169.281 419.659 175.982 414.94 181.325C410.221 186.668 403.658 190.321 396.371 191.664C389.083 193.006 381.521 191.954 374.973 188.687C368.424 185.42 363.295 180.139 360.459 173.745C357.623 167.351 357.255 160.239 359.418 153.621C361.581 147.003 366.142 141.288 372.322 137.449C378.503 133.611 385.921 131.887 393.314 132.571C400.706 133.255 407.616 136.304 412.864 141.2C415.849 143.978 418.214 147.277 419.825 150.909C421.436 154.541 422.261 158.433 422.252 162.363Z" fill="#F7CE21" stroke="#333333" stroke-width="3" stroke-miterlimit="10" stroke-linecap="round"/>
<path d="M407.13 162.362C407.125 166.025 405.757 169.572 403.258 172.401C400.76 175.229 397.286 177.163 393.428 177.874C389.57 178.585 385.566 178.028 382.099 176.299C378.633 174.57 375.917 171.775 374.415 168.39C372.912 165.005 372.716 161.24 373.86 157.736C375.004 154.233 377.417 151.206 380.688 149.173C383.959 147.14 387.886 146.225 391.8 146.586C395.714 146.946 399.372 148.558 402.153 151.148C403.736 152.619 404.991 154.367 405.846 156.292C406.7 158.217 407.136 160.28 407.13 162.362Z" fill="#F2994A" stroke="#333333" stroke-width="3" stroke-miterlimit="10" stroke-linecap="round"/>
<path d="M264.43 271.806L270.692 282.726L276.96 293.641" fill="#4F4F4F"/>
<path d="M264.43 271.806L270.692 282.726L276.96 293.641" stroke="#333333" stroke-width="3" stroke-miterlimit="10" stroke-linecap="round"/>
<path d="M259.969 288.707L265.56 296.183L271.145 303.659" fill="#FFC0C0"/>
<path d="M259.969 288.707L265.56 296.183L271.145 303.659" stroke="#333333" stroke-width="3" stroke-miterlimit="10" stroke-linecap="round"/>
<path d="M392.278 287.794C388.264 284.387 381.044 279.474 373.802 274.562C366.559 269.649 359.305 264.736 355.32 261.329C353.605 259.692 351.456 258.505 349.091 257.889C346.726 257.273 344.228 257.25 341.85 257.821L321.98 262.579L302.117 267.342C301.285 267.539 300.448 267.721 299.616 267.903C298.785 268.084 297.942 268.255 297.111 268.437C294.861 268.882 292.738 269.762 290.877 271.021C289.387 271.989 288.338 273.44 287.936 275.09C287.829 275.635 287.816 276.192 287.895 276.74C287.934 277.029 288.003 277.313 288.102 277.589C288.624 279.052 289.92 280.259 291.766 281.119C293.944 282.062 296.314 282.557 298.716 282.572L299.995 282.604L301.274 282.636H301.847L303.057 282.678C309.852 282.956 315.099 283.17 319.205 283.842C323.311 284.515 326.241 285.642 328.38 287.751C329.045 288.365 329.529 289.128 329.785 289.967C330.386 291.537 331.154 293.047 332.079 294.474C334.422 298.286 337.29 301.796 340.611 304.914L330.863 323.001L321.115 341.082C322.411 341.824 323.81 342.561 325.306 343.282C326.803 344.003 328.409 344.702 330.112 345.365C334.228 346.96 338.509 348.159 342.888 348.942C346.379 349.563 349.916 349.931 353.468 350.042L372.896 318.916L392.278 287.794Z" fill="#FFC0C0" stroke="#333333" stroke-width="3" stroke-miterlimit="10" stroke-linecap="round"/>
<path d="M329.596 290.245C331.723 294.474 334.437 298.423 337.67 301.993C342.982 307.959 349.912 312.493 357.74 315.124C360.554 316.039 363.461 316.685 366.416 317.052C368.85 317.356 371.306 317.483 373.762 317.431" stroke="#333333" stroke-width="3" stroke-miterlimit="10" stroke-linecap="round"/>
<path d="M103.983 190.414L90.2204 172.466L76.458 154.523C76.0669 154.018 75.7452 153.469 75.5003 152.889C75.2547 152.314 75.1021 151.707 75.0473 151.09C74.9209 149.624 75.2951 148.158 76.1166 146.901C76.9381 145.645 78.1648 144.663 79.6215 144.094C81.0783 143.526 82.6907 143.4 84.2285 143.736C85.7663 144.072 87.151 144.851 88.1847 145.963L92.669 149.755L97.159 153.546C97.6668 153.978 98.059 154.514 98.304 155.112C98.5489 155.71 98.6399 156.354 98.5697 156.991C98.508 157.623 98.2781 158.231 97.9006 158.759C97.5231 159.288 97.0101 159.721 96.4078 160.018C95.7873 160.324 95.0944 160.481 94.3922 160.474C93.69 160.467 93.0008 160.297 92.3875 159.978C91.7742 159.66 91.2562 159.203 90.8807 158.651C90.5052 158.098 90.2841 157.467 90.2376 156.814L89.8133 150.876L89.3947 144.938C89.2945 143.397 89.6265 141.859 90.358 140.474C91.0455 139.163 92.1377 138.073 93.4947 137.345C94.6735 136.733 96.0051 136.424 97.354 136.448C98.0198 136.449 98.6827 136.53 99.3266 136.688C99.7754 136.808 100.21 136.971 100.623 137.174C100.995 137.353 101.35 137.562 101.683 137.799C102.326 138.258 102.882 138.814 103.329 139.443C103.78 140.081 104.126 140.777 104.356 141.51C106.581 148.559 108.807 155.604 111.036 162.646L117.717 183.781" stroke="#333333" stroke-width="3" stroke-miterlimit="10" stroke-linecap="round"/>
<path d="M130.177 194.334L117.883 200.293L105.594 206.252L99.1947 194.809L92.7952 183.365L105.084 177.406L117.378 171.446L123.778 182.89L130.177 194.334Z" fill="#F2994A" stroke="#333333" stroke-width="3" stroke-miterlimit="10" stroke-linecap="round"/>
<path d="M97.0042 190.889L109.402 185.122L121.8 179.36" stroke="#333333" stroke-width="3" stroke-miterlimit="10" stroke-linecap="round"/>
<path d="M101.408 198.76L113.806 192.993L126.204 187.231" stroke="#333333" stroke-width="3" stroke-miterlimit="10" stroke-linecap="round"/>
<path d="M394.446 378.115L402.216 382.958C406.832 385.842 412.922 389.638 418.794 393.291C444.421 409.242 450.436 412.883 450.941 413.092C451.445 413.3 446.428 410.091 449.989 412.344C450.969 412.964 452.644 414.021 454.926 415.34C457.208 416.659 460.087 418.234 463.464 419.879C465.053 420.648 466.509 421.315 467.782 421.876C469.055 422.437 470.151 422.901 471.005 423.248L444.977 422.859L418.949 422.469C414.866 415.078 410.781 407.686 406.694 400.292L394.446 378.115Z" fill="#333333" stroke="#333333" stroke-width="3" stroke-miterlimit="10" stroke-linecap="round"/>
<path d="M229.514 367.755C229.515 368.479 229.246 369.181 228.754 369.741C228.261 370.302 227.575 370.685 226.813 370.827C226.051 370.97 225.259 370.861 224.573 370.52C223.887 370.18 223.349 369.628 223.05 368.96C222.752 368.291 222.712 367.547 222.937 366.854C223.162 366.161 223.638 365.562 224.284 365.159C224.93 364.756 225.706 364.574 226.48 364.645C227.254 364.715 227.977 365.033 228.528 365.544C228.84 365.834 229.089 366.179 229.258 366.558C229.427 366.937 229.514 367.344 229.514 367.755Z" fill="#333333" stroke="#333333" stroke-width="3" stroke-miterlimit="10" stroke-linecap="round"/>
</svg>
