<svg width="539" height="533" viewBox="0 0 539 533" fill="none" xmlns="http://www.w3.org/2000/svg">
<path d="M149.591 124.269L161.08 129.125L172.57 133.98L176.665 123.912L180.755 113.844L168.136 111.674L155.521 109.505L152.556 116.887L149.591 124.269Z" fill="#F2C94C" stroke="#333333" stroke-width="3" stroke-miterlimit="10" stroke-linecap="round"/>
<path d="M154.488 113.822L165.703 117.148L176.913 120.479" fill="#F2C94C"/>
<path d="M154.488 113.822L165.703 117.148L176.913 120.479" stroke="#333333" stroke-width="3" stroke-miterlimit="10" stroke-linecap="round"/>
<path d="M100.581 99.6549L105.064 101.771L109.547 103.882V99.6549V95.4229L105.064 97.5389L100.581 99.6549Z" fill="#F9851C" stroke="#333333" stroke-width="3" stroke-miterlimit="10" stroke-linecap="round"/>
<path d="M199.908 440.594L295.097 442.726L390.28 444.858C390.28 444.858 408.341 452.522 426.719 451.371C445.097 450.22 463.803 440.258 465.094 405C465.094 405 465.094 399.814 462.495 383.707C459.896 367.599 454.686 340.587 444.279 296.881C442.417 289.029 439.662 281.412 436.066 274.175C432.475 266.94 428.019 260.158 422.795 253.974C422.225 253.303 421.642 252.631 421.046 251.96C420.451 251.288 419.843 250.627 419.222 249.977C408.082 238.217 394.371 229.139 379.14 223.439C369.951 219.943 360.354 217.604 350.575 216.478C350.575 216.478 314.201 211.622 275.379 216.286C236.556 220.95 195.253 235.127 185.453 273.194C182.562 283.144 179.674 293.081 176.789 303.005C173.905 312.929 171.016 322.865 168.125 332.81C165.341 323.462 162.555 314.111 159.767 304.759L151.404 276.712L118.754 285.821L86.1047 294.93C88.5587 305.252 91.0144 315.577 93.472 325.903L100.834 356.881C104.601 374.155 107.012 384.367 108.454 390.268C109.896 396.168 110.375 397.73 110.375 397.73C111.594 403.823 113.695 409.709 116.613 415.207C121.069 423.692 128.527 433.441 140.83 440.258C155.048 448.104 169.287 448.461 180.233 446.723C187.067 445.678 193.701 443.612 199.908 440.594Z" fill="#4F4F4F" stroke="#333333" stroke-width="3" stroke-miterlimit="10" stroke-linecap="round"/>
<path d="M313.948 407.66L328.548 413.325L333.526 415.255L341.599 419.807C345.904 422.232 350.747 424.971 352.965 426.203C357.135 428.532 362.291 431.32 368.496 434.464C374.701 437.609 381.95 441.116 390.302 444.895L369.518 444.335L348.735 443.802L331.352 425.744L313.948 407.66Z" fill="#333333" stroke="#333333" stroke-width="3" stroke-miterlimit="10" stroke-linecap="round"/>
<path d="M252.733 220.177L243.902 247.184L235.071 274.191L255.833 261.058L276.6 247.925L264.664 234.051L252.733 220.177Z" fill="#4F4F4F" stroke="#333333" stroke-width="3" stroke-miterlimit="10" stroke-linecap="round"/>
<path d="M239.08 377.215C239.08 377.887 238.844 378.538 238.413 379.058C237.983 379.577 237.383 379.932 236.717 380.063C236.052 380.194 235.361 380.092 234.763 379.774C234.164 379.457 233.696 378.944 233.437 378.322C233.177 377.701 233.144 377.01 233.342 376.367C233.54 375.724 233.956 375.169 234.521 374.796C235.086 374.423 235.764 374.256 236.439 374.323C237.115 374.39 237.746 374.687 238.225 375.163C238.772 375.708 239.08 376.446 239.08 377.215Z" fill="#333333" stroke="#333333" stroke-width="3" stroke-miterlimit="10" stroke-linecap="round"/>
<path d="M276.6 247.925L292.826 231.098L309.051 214.266L312.226 247.275L315.401 280.283L296.001 264.107L276.6 247.925Z" fill="#4F4F4F" stroke="#333333" stroke-width="3" stroke-miterlimit="10" stroke-linecap="round"/>
<path d="M261.747 230.661L269.174 239.296L276.6 247.925L285.152 239.056L293.703 230.192L277.725 230.426L261.747 230.661Z" fill="#FFF8F8" stroke="#333333" stroke-width="3" stroke-miterlimit="10" stroke-linecap="round"/>
<path d="M276.482 248.575L260.16 344.952L243.843 441.324L274.114 442.07L304.391 442.811L290.555 345.698L276.719 248.575C276.716 248.546 276.702 248.52 276.68 248.501C276.658 248.482 276.63 248.472 276.6 248.474C276.572 248.474 276.544 248.484 276.522 248.502C276.5 248.521 276.486 248.547 276.482 248.575Z" fill="#FFF8F8" stroke="#333333" stroke-width="3" stroke-miterlimit="10" stroke-linecap="round"/>
<path d="M372.591 314.006C373.979 321.746 375.366 329.486 376.751 337.229C378.136 344.972 379.522 352.711 380.911 360.447" stroke="#333333" stroke-width="3" stroke-miterlimit="10" stroke-linecap="round"/>
<path d="M260.746 338.647H253.153H245.56L244.93 342.351L244.3 346.056H253.067H261.834L261.29 342.351L260.746 338.647Z" fill="#F7CE21" stroke="#333333" stroke-width="3" stroke-miterlimit="10" stroke-linecap="round"/>
<path d="M272.015 415.346L266.924 380.701L261.834 346.056H253.067H244.3L238.499 380.168L232.698 414.274L252.357 414.813L272.015 415.346Z" fill="#F2994A" stroke="#333333" stroke-width="3" stroke-miterlimit="10" stroke-linecap="round"/>
<path d="M235.399 398.391C239.111 396.73 243.032 395.573 247.056 394.953C253.799 393.887 262.372 394.18 269.691 399.526" stroke="#333333" stroke-width="3" stroke-miterlimit="10" stroke-linecap="round"/>
<path d="M302.168 338.647H294.575H286.981L286.352 342.351L285.722 346.056H294.489H303.255L302.712 342.351L302.168 338.647Z" fill="#F7CE21" stroke="#333333" stroke-width="3" stroke-miterlimit="10" stroke-linecap="round"/>
<path d="M313.432 415.346L308.346 380.701L303.255 346.056H294.489H285.722L279.916 380.168L274.114 414.274L293.773 414.813L313.432 415.346Z" fill="#F2994A" stroke="#333333" stroke-width="3" stroke-miterlimit="10" stroke-linecap="round"/>
<path d="M272.451 414.274C272.451 417.36 270.207 420.137 266.585 422.173C262.964 424.209 257.975 425.446 252.432 425.446C246.889 425.446 241.9 424.193 238.279 422.173C234.657 420.153 232.418 417.376 232.418 414.274C232.418 411.172 234.657 408.411 238.279 406.381C241.9 404.35 246.889 403.108 252.432 403.108C257.975 403.108 262.964 404.36 266.585 406.381C270.207 408.401 272.451 411.194 272.451 414.274Z" fill="#333333" stroke="#333333" stroke-width="3" stroke-miterlimit="10" stroke-linecap="round"/>
<path d="M313.948 414.274C313.948 417.36 311.715 420.137 308.115 422.173C304.515 424.209 299.531 425.446 294.031 425.446C288.531 425.446 283.553 424.193 279.948 422.173C276.342 420.153 274.114 417.376 274.114 414.274C274.114 411.172 276.342 408.411 279.948 406.381C283.553 404.35 288.531 403.108 294.031 403.108C299.531 403.108 304.509 404.36 308.115 406.381C311.72 408.401 313.948 411.194 313.948 414.274Z" fill="#333333" stroke="#333333" stroke-width="3" stroke-miterlimit="10" stroke-linecap="round"/>
<path d="M276.816 398.391C280.529 396.73 284.452 395.574 288.478 394.953C295.221 393.887 303.793 394.18 311.107 399.526" stroke="#333333" stroke-width="3" stroke-miterlimit="10" stroke-linecap="round"/>
<path d="M167.979 332.006L169.336 338.647L170.692 345.294" stroke="#333333" stroke-width="3" stroke-miterlimit="10" stroke-linecap="round"/>
<path d="M208.266 325.466C206.87 344.654 205.478 363.842 204.09 383.03C202.701 402.218 201.311 421.406 199.919 440.594" stroke="#333333" stroke-width="3" stroke-miterlimit="10" stroke-linecap="round"/>
<path d="M281.379 371.57L273.495 371.693L265.617 371.816L264.707 365.617L263.798 359.423H273.625H283.457L282.418 365.494L281.379 371.57Z" fill="#333333" stroke="#333333" stroke-width="3" stroke-miterlimit="10" stroke-linecap="round"/>
<path d="M343.999 348.779C337.301 345.912 330.312 343.768 323.151 342.383C311.564 340.182 297.648 339.995 288.332 348.038L272.306 360.639L256.269 373.249C254.761 374.404 253.452 375.794 252.394 377.364C250.887 379.72 250.242 382.694 253.767 385.146C252.897 386.528 252.244 388.032 251.829 389.607C251.291 391.936 251.592 394.468 254.988 395.268C254.251 396.62 253.783 398.1 253.611 399.627C253.46 401.839 254.375 404.126 258.653 404.424C258.026 405.413 257.606 406.517 257.421 407.67C257.239 408.59 257.42 409.544 257.927 410.335C259.304 412.206 261.204 412.281 263.087 411.625C264.971 410.97 266.822 409.579 268.114 408.518C270.094 406.887 271.999 405.213 273.942 403.582C275.878 401.926 277.901 400.371 280.002 398.924C283.529 396.534 287.231 394.406 291.077 392.56C294.296 391.012 297.608 389.66 300.995 388.514C302.293 388.072 303.62 387.716 304.967 387.448C306.312 387.184 307.676 387.025 309.046 386.974C311.198 386.894 313.464 387.075 314.191 388.04C314.917 389.005 314.131 390.774 310.24 393.855C310.574 396.051 310.904 398.243 311.231 400.432C311.557 402.621 311.887 404.812 312.221 407.004L322.893 411.119L333.553 415.255L338.79 382.017L344.026 348.779" fill="#FFC0C0"/>
<path d="M343.999 348.779C337.301 345.912 330.312 343.768 323.151 342.383C311.564 340.182 297.648 339.995 288.332 348.038L272.306 360.639L256.269 373.249C254.761 374.404 253.452 375.794 252.394 377.364C250.887 379.72 250.242 382.694 253.767 385.146C252.897 386.528 252.244 388.032 251.829 389.607C251.291 391.936 251.592 394.468 254.988 395.268C254.251 396.62 253.783 398.1 253.611 399.627C253.46 401.839 254.375 404.126 258.653 404.424C258.026 405.413 257.606 406.517 257.421 407.67C257.239 408.59 257.42 409.544 257.927 410.335C259.304 412.206 261.204 412.281 263.087 411.625C264.971 410.97 266.822 409.579 268.114 408.518C270.094 406.887 271.999 405.213 273.942 403.582C275.878 401.926 277.901 400.371 280.002 398.924C283.529 396.534 287.231 394.406 291.077 392.56C294.296 391.012 297.608 389.66 300.995 388.514C302.293 388.072 303.62 387.716 304.967 387.448C306.312 387.184 307.676 387.025 309.046 386.974C311.198 386.894 313.464 387.075 314.191 388.04C314.917 389.005 314.131 390.774 310.24 393.855C310.574 396.051 310.904 398.243 311.231 400.432C311.557 402.621 311.887 404.812 312.221 407.004L322.893 411.119L333.553 415.255L338.79 382.017L344.026 348.779" stroke="#333333" stroke-width="3" stroke-miterlimit="10" stroke-linecap="round"/>
<path d="M253.75 385.13L269.97 372.908L286.19 360.681" stroke="#333333" stroke-width="3" stroke-miterlimit="10" stroke-linecap="round"/>
<path d="M254.972 395.251L270.961 383.536L286.955 371.815" stroke="#333333" stroke-width="3" stroke-miterlimit="10" stroke-linecap="round"/>
<path d="M258.637 404.382L272.796 393.956L286.955 383.536" stroke="#333333" stroke-width="3" stroke-miterlimit="10" stroke-linecap="round"/>
<path d="M251.754 338.647C248.109 323.936 245.506 308.992 243.961 293.923C241.448 269.138 241.69 239.519 252.728 220.177" stroke="#333333" stroke-width="3" stroke-miterlimit="10" stroke-linecap="round"/>
<path d="M294.489 338.647C301.696 323.704 307.636 308.194 312.248 292.276C319.647 266.463 324.087 235.367 312.318 214.239" stroke="#333333" stroke-width="3" stroke-miterlimit="10" stroke-linecap="round"/>
<path d="M246.27 327.107C246.27 327.78 246.034 328.431 245.603 328.95C245.172 329.47 244.573 329.825 243.907 329.956C243.241 330.086 242.551 329.984 241.952 329.667C241.354 329.349 240.885 328.836 240.626 328.215C240.367 327.594 240.334 326.903 240.532 326.259C240.729 325.616 241.146 325.061 241.711 324.689C242.276 324.316 242.954 324.149 243.629 324.216C244.304 324.282 244.935 324.579 245.414 325.055C245.687 325.325 245.902 325.645 246.049 325.997C246.196 326.349 246.271 326.726 246.27 327.107Z" fill="#333333" stroke="#333333" stroke-width="3" stroke-miterlimit="10" stroke-linecap="round"/>
<path d="M384.78 143.66C384.78 144.539 384.242 145.349 383.268 145.946C382.128 146.584 380.846 146.932 379.537 146.959C378.228 146.986 376.932 146.691 375.766 146.101C374.792 145.541 374.184 144.758 374.152 143.878C374.119 142.999 374.69 142.189 375.658 141.592C376.8 140.954 378.082 140.606 379.392 140.579C380.702 140.552 381.999 140.847 383.166 141.437C384.156 141.997 384.78 142.78 384.78 143.66Z" fill="#333333" stroke="#333333" stroke-width="3" stroke-miterlimit="10" stroke-linecap="round"/>
<path d="M384.43 143.782L387.912 129.391L391.389 115C391.401 114.944 391.432 114.893 391.477 114.856C391.522 114.819 391.578 114.799 391.636 114.798C391.694 114.795 391.751 114.813 391.798 114.846C391.845 114.88 391.879 114.929 391.895 114.984L395.613 121.343L399.31 127.664" stroke="#333333" stroke-width="5" stroke-miterlimit="10" stroke-linecap="round"/>
<path d="M341.453 189.79C343.933 188.524 346.252 186.971 348.363 185.164C350.921 182.972 353.075 180.357 354.73 177.436C355.501 176.104 356.18 174.722 356.764 173.299C357.353 171.865 357.716 170.35 357.84 168.806C357.906 167.161 357.448 165.538 356.533 164.164C355.591 162.799 354.165 161.899 352.313 162.314C351.785 162.428 351.296 162.679 350.896 163.04C350.496 163.401 350.2 163.861 350.037 164.372C349.693 165.406 349.659 166.517 349.94 167.57C350.333 169.126 351.845 171.445 354.019 173.401C356.194 175.357 359.019 176.961 362.049 177.094C365.498 177.238 369.163 175.495 372.161 172.271C375.158 169.046 377.477 164.404 378.258 158.749" stroke="#333333" stroke-width="3" stroke-miterlimit="10" stroke-linecap="round"/>
<path d="M151.334 276.414C146.195 258.825 141.411 242.195 136.632 225.576C131.853 208.957 127.074 192.328 121.93 174.733C121.797 174.272 121.63 173.821 121.429 173.385C121.227 172.951 120.984 172.537 120.703 172.148C119.652 170.694 118.134 169.636 116.397 169.147C114.903 168.693 113.287 168.842 111.904 169.563C110.802 170.224 109.961 171.238 109.52 172.436C109.008 173.784 108.867 175.243 109.111 176.663L111.909 194.103L114.713 211.548C113.836 211.023 112.891 210.62 111.904 210.348C110.14 209.821 108.251 209.877 106.522 210.508C104.469 211.344 102.811 212.919 101.883 214.916C100.829 217.138 100.538 219.641 101.055 222.042C99.9214 220.653 98.4192 219.605 96.7171 219.015C95.1114 218.449 93.3676 218.393 91.7284 218.855C89.6132 219.512 87.8455 220.97 86.8096 222.911C85.6637 225.003 85.3324 227.438 85.8786 229.755C84.9597 229.207 83.9717 228.783 82.9403 228.492C81.2339 227.957 79.3901 228.05 77.7471 228.753C77.4353 228.903 77.1381 229.082 76.8592 229.286C76.2952 229.689 75.7852 230.162 75.3416 230.693C73.6141 232.756 73.0867 235.373 73.0275 237.622C73.0024 239.272 73.1831 240.919 73.5657 242.526L79.7867 268.573L86.0078 294.621L118.658 285.512L151.334 276.414Z" fill="#FFC0C0" stroke="#333333" stroke-width="3" stroke-miterlimit="10" stroke-linecap="round"/>
<path d="M74.0662 244.519C74.981 246.299 75.912 248.079 76.8592 249.849C77.8063 251.619 78.775 253.377 79.7544 255.126C80.5509 256.543 81.3043 257.988 82.0847 259.416C82.865 260.845 83.6991 262.257 84.5925 263.611C85.4868 264.996 86.514 266.292 87.6599 267.481C88.7707 268.693 90.227 269.542 91.836 269.916C93.057 270.129 94.3145 269.905 95.3847 269.285C96.4549 268.666 97.2684 267.69 97.6804 266.532C98.0507 265.237 98.0969 263.872 97.8149 262.556C97.5889 261.165 97.1799 259.779 96.8839 258.606C95.0542 253.799 93.2262 248.991 91.4001 244.183L85.9163 229.76" stroke="#333333" stroke-width="3" stroke-miterlimit="10" stroke-linecap="round"/>
<path d="M96.7278 258.223C97.4809 260.453 98.7128 262.495 100.339 264.208C101.738 265.583 103.256 266.281 104.671 266.132C105.305 266.056 105.912 265.831 106.442 265.477C106.799 265.242 107.13 264.968 107.426 264.661C109.041 263.062 109.579 260.733 109.681 258.393C109.686 256.224 109.461 254.061 109.009 251.938C107.905 246.075 106.436 240.212 104.989 234.973C103.541 229.734 102.115 225.198 101.092 222.042" stroke="#333333" stroke-width="3" stroke-miterlimit="10" stroke-linecap="round"/>
<path d="M109.902 256.123C110.365 257.292 110.978 258.397 111.726 259.411C112.867 260.946 114.546 262.481 116.785 262.705C117.094 262.741 117.405 262.75 117.716 262.732C118.175 262.708 118.626 262.607 119.05 262.433C120.347 261.9 121.343 260.674 121.951 258.99C122.607 256.992 122.804 254.874 122.527 252.791C121.225 245.923 119.924 239.049 118.625 232.17C117.327 225.29 116.026 218.416 114.724 211.548" stroke="#333333" stroke-width="3" stroke-miterlimit="10" stroke-linecap="round"/>
<path d="M137.999 230.32C132.66 230.006 127.338 229.569 122.021 229.078C116.704 228.588 111.387 228.012 106.07 227.479C103.713 227.245 99.9299 226.536 96.561 226.722C93.1922 226.909 90.2431 227.991 89.565 231.327C88.9677 234.216 90.2646 235.981 92.2235 237.19C94.1824 238.4 96.8032 239.083 98.8374 239.786C102.292 240.985 104.892 241.886 106.716 242.595C108.54 243.304 109.595 243.816 109.945 244.231C111.559 246.017 111.635 248.026 111.446 250.59C111.258 253.154 110.763 256.277 111.156 260.291C111.393 262.679 111.906 265.032 112.684 267.305C113.765 270.44 115.248 273.424 117.097 276.185" fill="#FFC0C0"/>
<path d="M137.999 230.32C132.66 230.006 127.338 229.569 122.021 229.078C116.704 228.588 111.387 228.012 106.07 227.479C103.713 227.245 99.9299 226.536 96.561 226.722C93.1922 226.909 90.2431 227.991 89.565 231.327C88.9677 234.216 90.2646 235.981 92.2235 237.19C94.1824 238.4 96.8032 239.083 98.8374 239.786C102.292 240.985 104.892 241.886 106.716 242.595C108.54 243.304 109.595 243.816 109.945 244.231C111.559 246.017 111.635 248.026 111.446 250.59C111.258 253.154 110.763 256.277 111.156 260.291C111.393 262.679 111.906 265.032 112.684 267.305C113.765 270.44 115.248 273.424 117.097 276.185" stroke="#333333" stroke-width="3" stroke-miterlimit="10" stroke-linecap="round"/>
<path d="M162.722 81.4746C162.366 81.4746 162.011 81.4746 161.645 81.5119C161.279 81.5492 160.94 81.5706 160.569 81.6185C160.047 81.7006 159.53 81.8091 159.019 81.9437C157.821 82.2538 156.656 82.6805 155.543 83.2175C153.124 84.5392 150.783 85.9948 148.531 87.5775C145.172 89.8267 140.932 92.8222 136.153 96.4146C135.687 93.1965 134.142 90.2269 131.767 87.9825C129.342 85.5644 126.059 84.1814 122.618 84.1289C120.787 84.1577 118.98 84.5498 117.304 85.2822C115.628 86.0146 114.118 87.0724 112.862 88.3929C110.354 90.9567 108.788 94.3626 108.788 97.7258C108.81 100.746 110.034 103.637 112.194 105.769C114.463 108.014 117.431 109.433 120.616 109.798C121.511 114.918 124.144 119.582 128.081 123.017C131.746 126.145 136.282 127.814 140.781 127.563C145.393 127.286 149.004 124.999 151.517 122.686C153.136 121.207 154.537 119.51 155.677 117.644C158.162 118.081 160.722 117.793 163.044 116.816C165.367 115.838 167.353 114.213 168.76 112.138C169.39 111.22 169.9 110.226 170.277 109.18C171.47 109.162 172.657 108.996 173.808 108.684C175.994 108.112 178.003 107.013 179.657 105.485C181.31 103.957 182.556 102.048 183.285 99.9271C183.736 98.6773 184.009 97.3713 184.097 96.0468C186.625 96.1428 189.141 95.6652 191.454 94.6504C195.189 92.9714 199.036 89.3204 199.526 81.4746H162.722Z" fill="#F2C94C" stroke="#333333" stroke-width="3" stroke-miterlimit="10" stroke-linecap="round"/>
<path d="M119.067 94.7674C119.067 95.1915 118.897 95.5982 118.594 95.8981C118.291 96.1979 117.88 96.3664 117.452 96.3664C117.024 96.3664 116.613 96.1979 116.311 95.8981C116.008 95.5982 115.838 95.1915 115.838 94.7674C115.837 94.5553 115.879 94.3453 115.961 94.1494C116.044 93.9536 116.164 93.7759 116.317 93.6268C116.468 93.477 116.647 93.3584 116.845 93.2779C117.043 93.1974 117.255 93.1565 117.468 93.1577C117.682 93.1565 117.894 93.1974 118.092 93.2779C118.289 93.3584 118.469 93.477 118.62 93.6268C118.913 93.9352 119.073 94.3442 119.067 94.7674Z" fill="#333333"/>
<path d="M184.103 96.0464H172.57H161.043" stroke="#333333" stroke-width="3" stroke-miterlimit="10" stroke-linecap="round"/>
<path d="M170.283 109.18H163.421H156.554" stroke="#333333" stroke-width="3" stroke-miterlimit="10" stroke-linecap="round"/>
<path d="M153.821 120.479L164.401 124.269L174.975 128.064" fill="#F2C94C"/>
<path d="M153.821 120.479L164.401 124.269L174.975 128.064" stroke="#333333" stroke-width="3" stroke-miterlimit="10" stroke-linecap="round"/>
<path d="M390.28 444.895C383.847 441.964 377.303 438.835 370.648 435.509C363.993 432.183 357.245 428.642 350.403 424.886C347.504 423.291 344.648 421.692 341.836 420.089C339.023 418.487 336.253 416.875 333.526 415.255C335.27 404.172 337.015 393.093 338.763 382.017C340.51 370.941 342.255 359.862 343.999 348.779L373.942 358.709L403.885 368.644" stroke="#333333" stroke-width="3" stroke-miterlimit="10" stroke-linecap="round"/>
<path d="M329.092 197.098L314.659 191.038L300.225 184.978C298.813 188.923 297.93 193.036 297.599 197.21C296.856 206.217 299.097 215.219 303.982 222.853C305.359 225.005 306.926 227.033 308.664 228.913C311.483 226.886 314.087 224.581 316.435 222.032C320.891 217.167 324.387 211.517 326.74 205.375C327.76 202.688 328.547 199.918 329.092 197.098Z" fill="#333333" stroke="#333333" stroke-width="3" stroke-miterlimit="10" stroke-linecap="round"/>
<path d="M301.087 217.464C300.624 216.398 300.295 215.556 300.059 214.857C299.822 214.159 299.682 213.632 299.585 213.258C299.515 212.981 299.456 212.725 299.407 212.491C299.359 212.256 299.321 212.064 299.289 211.894L299.596 212.16L299.978 212.464C299.978 212.464 300.107 212.566 300.312 212.704C300.516 212.843 300.796 213.035 301.081 213.205C302.655 214.141 304.435 214.686 306.268 214.794C308.101 214.902 309.933 214.569 311.608 213.824C313.283 213.078 314.751 211.943 315.888 210.514C317.024 209.086 317.795 207.406 318.134 205.619C318.473 203.831 318.371 201.989 317.836 200.25C317.301 198.51 316.349 196.924 315.061 195.627C313.774 194.331 312.189 193.362 310.441 192.803C308.694 192.244 306.836 192.112 305.026 192.418C302.334 192.882 299.885 194.249 298.089 196.288C298.089 195.43 298.121 194.475 298.218 193.447C298.319 192.332 298.48 191.224 298.703 190.126C298.902 189.124 299.144 188.181 299.407 187.317C299.671 186.454 299.946 185.66 300.225 184.945L275.594 174.6L250.963 164.254C250.346 165.057 249.743 165.887 249.155 166.743C248.566 167.6 248.007 168.478 247.476 169.377C240.743 180.692 238.865 193.394 241.265 204.789C243.665 216.185 250.36 226.274 260.763 232.345C268.072 236.595 276.537 238.48 284.98 237.739C293.541 236.975 301.729 233.908 308.658 228.87C307.571 227.681 306.549 226.436 305.596 225.139C304.746 223.982 304.052 222.932 303.497 222.026C303.191 221.525 302.809 220.88 302.394 220.107C301.98 219.335 301.533 218.476 301.087 217.464Z" fill="#FFC0C0" stroke="#333333" stroke-width="3" stroke-miterlimit="10" stroke-linecap="round"/>
<path d="M293.461 210.935C292.744 212.138 291.629 213.058 290.304 213.539C288.979 214.019 287.528 214.029 286.196 213.568C284.865 213.107 283.736 212.203 283.002 211.01C282.268 209.817 281.974 208.409 282.171 207.025C282.368 205.642 283.043 204.369 284.081 203.423C285.119 202.477 286.456 201.917 287.864 201.838C289.273 201.759 290.665 202.167 291.804 202.99C292.944 203.814 293.759 205.004 294.112 206.356C294.312 207.125 294.358 207.924 294.246 208.71C294.135 209.495 293.868 210.252 293.461 210.935Z" fill="#EF3F3F" stroke="#333333" stroke-width="3" stroke-miterlimit="10" stroke-linecap="round"/>
<path d="M254.45 210.796C253.738 212.002 252.626 212.927 251.303 213.411C249.98 213.896 248.528 213.912 247.195 213.455C245.861 212.999 244.729 212.099 243.991 210.908C243.253 209.717 242.954 208.31 243.146 206.926C243.338 205.542 244.009 204.266 245.044 203.317C246.079 202.368 247.414 201.803 248.822 201.72C250.23 201.636 251.624 202.039 252.766 202.859C253.908 203.679 254.728 204.866 255.085 206.218C255.494 207.767 255.266 209.414 254.45 210.796Z" fill="#EF3F3F" stroke="#333333" stroke-width="3" stroke-miterlimit="10" stroke-linecap="round"/>
<path d="M254.854 193.692C254.695 193.978 254.48 194.229 254.222 194.431C253.963 194.632 253.666 194.781 253.349 194.867C253.032 194.953 252.7 194.975 252.374 194.932C252.048 194.889 251.734 194.781 251.45 194.616C251.167 194.45 250.919 194.23 250.723 193.968C250.527 193.706 250.387 193.408 250.309 193.092C250.231 192.775 250.219 192.446 250.272 192.124C250.325 191.803 250.443 191.495 250.618 191.219C250.95 190.663 251.491 190.26 252.123 190.098C252.754 189.936 253.425 190.029 253.987 190.356C254.547 190.687 254.953 191.223 255.117 191.848C255.198 192.157 255.216 192.48 255.171 192.796C255.126 193.112 255.018 193.417 254.854 193.692Z" fill="#231F20"/>
<path d="M280.378 196.938C280.22 197.224 280.005 197.475 279.746 197.677C279.488 197.879 279.191 198.027 278.874 198.113C278.556 198.199 278.225 198.221 277.898 198.178C277.572 198.135 277.258 198.028 276.975 197.862C276.691 197.697 276.444 197.476 276.248 197.215C276.052 196.953 275.911 196.655 275.834 196.338C275.756 196.021 275.744 195.692 275.797 195.37C275.85 195.049 275.968 194.741 276.143 194.465C276.475 193.911 277.015 193.508 277.645 193.347C278.275 193.185 278.944 193.277 279.506 193.602C279.785 193.764 280.029 193.979 280.223 194.235C280.418 194.49 280.56 194.781 280.641 195.091C280.722 195.401 280.74 195.724 280.695 196.041C280.65 196.358 280.542 196.663 280.378 196.938Z" fill="#231F20"/>
<path d="M257.727 179.621C260.067 179.427 262.417 179.398 264.761 179.536C272.029 179.966 279.105 182.014 285.464 185.526" stroke="#333333" stroke-width="3" stroke-miterlimit="10" stroke-linecap="round"/>
<path d="M264.879 180.276L262.765 191.635L260.644 202.987L262.286 203.153L263.922 203.323" stroke="#333333" stroke-width="3" stroke-miterlimit="10" stroke-linecap="round"/>
<path d="M309.541 150.434C299.962 144.843 288.913 143.628 278.462 146.17C267.472 148.915 257.765 155.312 250.963 164.292L290.027 180.687L329.092 197.093C330.918 188.129 330.082 178.834 326.686 170.331C323.35 162.003 317.32 155.006 309.541 150.434Z" fill="#F9851C" stroke="#333333" stroke-width="3" stroke-miterlimit="10" stroke-linecap="round"/>
<path d="M301.872 204.928L306.452 204.192L311.032 203.457" stroke="#333333" stroke-width="3" stroke-miterlimit="10" stroke-linecap="round"/>
<path d="M265.8 170.512C264.248 174.725 261.452 178.378 257.776 180.996C254.292 183.503 250.075 184.813 245.77 184.727C244.16 184.677 242.565 184.419 241.023 183.959C239.646 183.541 238.318 182.976 237.062 182.275C233.872 180.501 231.247 177.877 229.485 174.701C228.218 172.43 227.476 169.909 227.315 167.319C227.154 164.729 227.577 162.137 228.554 159.729C229.158 158.251 229.973 156.867 230.976 155.62C233.202 152.908 236.146 150.863 239.479 149.714C242.837 148.568 246.475 148.456 249.795 150.029C251.758 150.992 253.441 152.433 254.687 154.218C255.513 155.381 256.186 156.644 256.689 157.976C256.075 158.541 255.446 159.154 254.811 159.804C254.176 160.454 253.535 161.158 252.889 161.904C252.54 162.304 252.206 162.709 251.888 163.103C251.571 163.498 251.264 163.892 250.968 164.281L258.389 167.394L265.8 170.512Z" fill="#333333" stroke="#333333" stroke-width="3" stroke-miterlimit="10" stroke-linecap="round"/>
<path d="M261.968 153.675L295.926 168.823L329.888 183.965" stroke="#333333" stroke-width="3" stroke-miterlimit="10" stroke-linecap="round"/>
<path d="M272.241 158.258L268.673 164.239L265.111 170.224" stroke="#333333" stroke-width="3" stroke-miterlimit="10" stroke-linecap="round"/>
<path d="M285.609 164.329L282.24 169.984L278.872 175.639" stroke="#333333" stroke-width="3" stroke-miterlimit="10" stroke-linecap="round"/>
<path d="M301.904 171.786L298.595 177.345L295.291 182.899" stroke="#333333" stroke-width="3" stroke-miterlimit="10" stroke-linecap="round"/>
<path d="M318.609 179.21L315.477 184.471L312.35 189.727" stroke="#333333" stroke-width="3" stroke-miterlimit="10" stroke-linecap="round"/>
<path d="M260.467 211.734C261.539 212.896 262.89 213.77 264.395 214.277C266.849 215.076 270.315 214.927 274.222 211.137" stroke="#333333" stroke-width="3" stroke-miterlimit="10" stroke-linecap="round"/>
<path d="M372.634 314.251L376.767 337.298C378.138 344.984 379.514 352.668 380.895 360.351C380.9 360.359 380.902 360.368 380.902 360.377C380.902 360.387 380.9 360.396 380.895 360.404C380.886 360.409 380.876 360.412 380.865 360.412C380.855 360.412 380.845 360.409 380.836 360.404L370.395 357.11L359.982 353.816C359.967 353.811 359.954 353.801 359.946 353.787C359.938 353.773 359.936 353.757 359.939 353.741L366.23 333.983C368.325 327.402 370.421 320.816 372.516 314.225C372.521 314.212 372.53 314.201 372.541 314.194C372.553 314.186 372.567 314.182 372.58 314.182C372.596 314.185 372.611 314.193 372.621 314.206C372.631 314.219 372.636 314.235 372.634 314.251Z" fill="#333333" stroke="#333333" stroke-width="3" stroke-miterlimit="10" stroke-linecap="round"/>
</svg>
