<svg width="132" height="132" viewBox="0 0 132 132" fill="none" xmlns="http://www.w3.org/2000/svg">
<path d="M112.849 126.65C112.037 126.65 111.289 126.205 110.9 125.494L107.773 119.778L102.057 116.651C101.346 116.262 100.901 115.514 100.901 114.703C100.901 113.891 101.346 113.143 102.057 112.754L107.773 109.627L110.9 103.911C111.289 103.2 112.037 102.755 112.849 102.755C113.66 102.755 114.408 103.2 114.797 103.911L117.924 109.627L123.64 112.754C124.351 113.143 124.796 113.891 124.796 114.703C124.796 115.514 124.351 116.262 123.64 116.651L117.924 119.778L114.797 125.494C114.408 126.209 113.66 126.65 112.849 126.65ZM107.755 114.703L110.478 116.192C110.852 116.396 111.156 116.703 111.36 117.077L112.849 119.8L114.338 117.077C114.542 116.703 114.849 116.399 115.22 116.192L117.943 114.703L115.22 113.214C114.846 113.01 114.542 112.702 114.338 112.328L112.849 109.605L111.36 112.328C111.156 112.702 110.848 113.006 110.478 113.214L107.755 114.703Z" fill="url(#paint0_linear_833_3)"/>
<path d="M26.1061 31.1423C25.2948 31.1423 24.5465 30.6978 24.1575 29.9865L19.9195 22.2402L12.1769 18.0059C11.4657 17.6169 11.0211 16.8686 11.0211 16.0573C11.0211 15.246 11.4657 14.4977 12.1769 14.1087L19.9195 9.87434L24.1538 2.13178C24.5428 1.4205 25.2911 0.975952 26.1024 0.975952C26.9137 0.975952 27.6621 1.4205 28.051 2.13178L32.2854 9.87434L40.0279 14.1087C40.7392 14.4977 41.1838 15.246 41.1838 16.0573C41.1838 16.8686 40.7392 17.6169 40.0279 18.0059L32.2854 22.2402L28.051 29.9828C27.6658 30.6978 26.9174 31.1423 26.1061 31.1423ZM17.8746 16.0573L22.6238 18.6542C22.998 18.8579 23.3018 19.1654 23.5055 19.5396L26.1024 24.2888L28.6994 19.5396C28.9031 19.1654 29.2106 18.8616 29.581 18.6542L34.3303 16.0573L29.5884 13.4567C29.2143 13.2529 28.9105 12.9454 28.7068 12.5713L26.1061 7.82571L23.5092 12.575C23.3055 12.9491 22.998 13.2529 22.6276 13.4604L17.8746 16.0573Z" fill="url(#paint1_linear_833_3)"/>
<path d="M101.661 56.9224C101.32 56.9224 100.979 56.8446 100.653 56.6816C99.5605 56.1259 99.1233 54.7848 99.679 53.692C104.347 44.5232 105.258 37.1733 102.12 34.0318C99.0492 30.9607 91.8846 31.7831 82.9603 36.2249C81.86 36.7732 80.5264 36.3249 79.9818 35.2247C79.4335 34.1244 79.8818 32.7908 80.982 32.2425C92.018 26.7486 100.642 26.267 105.266 30.8866C109.97 35.5951 109.392 44.4083 103.643 55.7073C103.25 56.4778 102.472 56.9224 101.661 56.9224Z" fill="#828282"/>
<path d="M43.1583 104.76C39.539 104.76 36.6012 103.719 34.5193 101.633C30.3109 97.4245 30.3553 89.7301 34.6489 79.9612C38.6573 70.8442 45.9405 60.7455 55.1575 51.5286C60.392 46.294 65.86 41.7151 71.4094 37.9216C72.4245 37.2289 73.8063 37.4882 74.499 38.5033C75.1918 39.5183 74.9325 40.9001 73.9174 41.5929C68.5976 45.2308 63.3446 49.6318 58.2989 54.6737C49.4598 63.5129 42.5063 73.1299 38.7165 81.7542C35.2639 89.6116 34.8786 95.713 37.6607 98.4952C40.4429 101.277 46.5443 100.892 54.4017 97.4394C63.026 93.6496 72.6431 86.6961 81.4822 77.857C84.8311 74.508 87.9392 71.0109 90.7214 67.4656C91.4771 66.4987 92.8774 66.332 93.8406 67.0878C94.8075 67.8472 94.9742 69.2438 94.2185 70.207C91.3252 73.8931 88.0985 77.5236 84.6236 80.9985C75.403 90.2191 65.3043 97.5023 56.1873 101.507C51.2602 103.674 46.8518 104.76 43.1583 104.76Z" fill="#828282"/>
<path d="M34.1487 128.587C25.9357 128.587 19.1193 126.154 14.3737 121.412C7.36096 114.399 5.40494 102.904 8.86872 89.0449C9.16509 87.852 10.3765 87.1296 11.5657 87.426C12.7548 87.7223 13.4809 88.93 13.1846 90.1229C10.1135 102.407 11.6546 112.402 17.5189 118.267C23.2314 123.979 32.9225 125.598 44.7994 122.816C45.996 122.534 47.1888 123.279 47.4704 124.472C47.7519 125.668 47.0073 126.861 45.8144 127.143C41.6913 128.11 37.7829 128.587 34.1487 128.587Z" fill="#828282"/>
<path d="M20.7827 68.7733C20.4011 68.7733 20.0158 68.677 19.6639 68.4695C18.6044 67.8509 18.2487 66.4876 18.8674 65.4281C24.5984 55.6295 31.9482 46.2162 40.717 37.4511C55.2685 22.8996 71.8687 12.0859 87.4613 7.00324C103.561 1.75756 116.776 3.21346 124.674 11.1116C130.923 17.3649 133.161 26.9561 131.149 38.8515C130.946 40.0629 129.801 40.8779 128.586 40.6741C127.374 40.4704 126.559 39.3219 126.763 38.1106C128.523 27.6933 126.711 19.4432 121.525 14.2531C114.871 7.59967 103.261 6.52535 88.832 11.2302C73.8951 16.098 57.921 26.5263 43.8548 40.5926C35.475 48.9687 28.1585 58.3301 22.7016 67.6694C22.2904 68.3769 21.5458 68.7733 20.7827 68.7733Z" fill="#828282"/>
<path d="M65.4487 119.345C64.656 119.345 63.8854 118.919 63.4853 118.166C62.9074 117.085 63.3186 115.736 64.4003 115.158C75.0028 109.501 85.6498 101.47 95.1891 91.927C107.318 79.7982 117.002 65.8394 122.458 52.6177C122.925 51.4841 124.226 50.9433 125.359 51.41C126.493 51.8768 127.034 53.1771 126.567 54.3144C120.891 68.0658 110.867 82.5396 98.3343 95.0722C88.4875 104.919 77.4738 113.221 66.4934 119.082C66.16 119.259 65.8007 119.345 65.4487 119.345Z" fill="#828282"/>
<path d="M14.7887 92.379C6.63489 92.379 0 85.7441 0 77.5903C0 69.4365 6.63489 62.8016 14.7887 62.8016C22.9424 62.8016 29.5773 69.4365 29.5773 77.5903C29.5773 85.7441 22.9424 92.379 14.7887 92.379ZM14.7887 67.2508C9.08732 67.2508 4.44549 71.889 4.44549 77.594C4.44549 83.2991 9.08362 87.9372 14.7887 87.9372C20.4937 87.9372 25.1318 83.2991 25.1318 77.594C25.1318 71.889 20.49 67.2508 14.7887 67.2508Z" fill="url(#paint2_linear_833_3)"/>
<path d="M97.2748 72.5594C91.3993 72.5594 86.6167 67.7768 86.6167 61.9013C86.6167 56.0259 91.3993 51.2433 97.2748 51.2433C103.15 51.2433 107.933 56.0259 107.933 61.9013C107.933 67.7768 103.154 72.5594 97.2748 72.5594ZM97.2748 55.6888C93.848 55.6888 91.0622 58.4746 91.0622 61.9013C91.0622 65.3281 93.848 68.1139 97.2748 68.1139C100.701 68.1139 103.487 65.3281 103.487 61.9013C103.487 58.4746 100.701 55.6888 97.2748 55.6888Z" fill="url(#paint3_linear_833_3)"/>
<path d="M111.663 24.2777C111.448 24.2777 111.226 24.2555 111.011 24.211C110.8 24.1665 110.589 24.1036 110.389 24.0221C110.189 23.9369 109.993 23.8331 109.815 23.7146C109.63 23.5923 109.459 23.4553 109.307 23.2997C109.152 23.1478 109.015 22.9774 108.892 22.7921C108.774 22.6106 108.67 22.418 108.585 22.2179C108.503 22.0142 108.437 21.8067 108.396 21.5919C108.351 21.377 108.329 21.1584 108.329 20.9436C108.329 20.725 108.351 20.5064 108.396 20.2916C108.437 20.0767 108.503 19.8692 108.585 19.6655C108.67 19.4654 108.774 19.2728 108.892 19.0913C109.015 18.9098 109.152 18.7393 109.307 18.5837C109.459 18.4319 109.63 18.2911 109.815 18.1688C109.993 18.0503 110.189 17.9466 110.389 17.8651C110.589 17.7799 110.8 17.7169 111.011 17.6724C111.441 17.5872 111.886 17.5872 112.315 17.6724C112.526 17.7169 112.738 17.7799 112.938 17.8651C113.141 17.9466 113.334 18.0503 113.516 18.1688C113.697 18.2911 113.868 18.4319 114.023 18.5837C114.175 18.7393 114.316 18.9098 114.438 19.0913C114.557 19.2728 114.66 19.4654 114.742 19.6655C114.827 19.8692 114.89 20.0767 114.934 20.2916C114.975 20.5064 114.997 20.725 114.997 20.9436C114.997 21.1584 114.975 21.377 114.934 21.5919C114.89 21.8067 114.827 22.0142 114.742 22.2179C114.66 22.418 114.557 22.6106 114.438 22.7921C114.316 22.9774 114.175 23.1478 114.023 23.2997C113.868 23.4553 113.697 23.5923 113.516 23.7146C113.334 23.8331 113.141 23.9369 112.938 24.0221C112.738 24.1036 112.526 24.1665 112.315 24.211C112.1 24.2555 111.882 24.2777 111.663 24.2777Z" fill="url(#paint4_linear_833_3)"/>
<path d="M55.413 82.773C55.1981 82.773 54.9795 82.7508 54.7647 82.71C54.5498 82.6656 54.3386 82.6026 54.1386 82.5174C53.9386 82.4359 53.7422 82.3322 53.5644 82.2136C53.3792 82.0914 53.2088 81.9506 53.0569 81.7987C52.9013 81.6431 52.7642 81.4727 52.642 81.2912C52.5234 81.1096 52.4197 80.917 52.3345 80.717C52.253 80.5132 52.1863 80.3058 52.1455 80.0909C52.1011 79.876 52.0789 79.6575 52.0789 79.4389C52.0789 79.224 52.1011 79.0055 52.1455 78.7906C52.1863 78.5757 52.253 78.3646 52.3345 78.1645C52.4197 77.9645 52.5234 77.7718 52.642 77.5903C52.7642 77.4088 52.9013 77.2384 53.0569 77.0828C53.2088 76.9309 53.3792 76.7901 53.5644 76.6679C53.7422 76.5493 53.9386 76.4456 54.1386 76.3604C54.3386 76.2789 54.5498 76.2159 54.7647 76.1714C55.1907 76.0862 55.6352 76.0862 56.065 76.1714C56.2798 76.2159 56.4873 76.2789 56.6911 76.3604C56.8911 76.4456 57.0837 76.5493 57.2653 76.6679C57.4468 76.7901 57.6172 76.9309 57.7728 77.0828C57.9247 77.2384 58.0655 77.4088 58.1877 77.5903C58.3063 77.7718 58.41 77.9645 58.4915 78.1645C58.5767 78.3646 58.6397 78.5757 58.6841 78.7906C58.7249 79.0055 58.7471 79.224 58.7471 79.4389C58.7471 79.6575 58.7249 79.876 58.6841 80.0909C58.6397 80.3058 58.5767 80.5132 58.4915 80.717C58.41 80.917 58.3063 81.1096 58.1877 81.2912C58.0655 81.4727 57.9247 81.6431 57.7728 81.7987C57.6172 81.9506 57.4468 82.0914 57.2653 82.2136C57.0837 82.3322 56.8911 82.4359 56.6911 82.5174C56.4873 82.6026 56.2798 82.6656 56.065 82.71C55.8501 82.7508 55.6315 82.773 55.413 82.773Z" fill="url(#paint5_linear_833_3)"/>
<path d="M78.174 131.155C77.9554 131.155 77.7368 131.133 77.522 131.088C77.3108 131.047 77.0996 130.981 76.8996 130.899C76.6958 130.814 76.5032 130.71 76.3217 130.592C76.1401 130.469 75.9697 130.332 75.8179 130.177C75.6623 130.025 75.5215 129.854 75.4029 129.669C75.2807 129.488 75.177 129.295 75.0955 129.095C75.0103 128.895 74.9473 128.684 74.9065 128.473C74.8621 128.254 74.8398 128.035 74.8398 127.821C74.8398 127.602 74.8621 127.383 74.9065 127.169C74.9473 126.954 75.0103 126.746 75.0955 126.543C75.177 126.342 75.2807 126.15 75.4029 125.968C75.5215 125.787 75.6623 125.616 75.8179 125.461C75.9697 125.309 76.1401 125.168 76.3217 125.046C76.5032 124.927 76.6958 124.824 76.8996 124.742C77.0996 124.657 77.3108 124.594 77.522 124.549C78.6074 124.331 79.7558 124.687 80.5301 125.461C80.6857 125.616 80.8227 125.787 80.945 125.968C81.0672 126.15 81.1673 126.342 81.2525 126.543C81.334 126.746 81.4006 126.954 81.4414 127.169C81.4858 127.383 81.5081 127.602 81.5081 127.821C81.5081 128.699 81.1524 129.554 80.5301 130.177C79.9114 130.799 79.0519 131.155 78.174 131.155Z" fill="url(#paint6_linear_833_3)"/>
<defs>
<linearGradient id="paint0_linear_833_3" x1="100.901" y1="112.982" x2="124.797" y2="113.043" gradientUnits="userSpaceOnUse">
<stop stop-color="#EB5757"/>
<stop offset="0.817708" stop-color="#EB9659"/>
</linearGradient>
<linearGradient id="paint1_linear_833_3" x1="11.0211" y1="13.8871" x2="41.1848" y2="13.9638" gradientUnits="userSpaceOnUse">
<stop stop-color="#EB5757"/>
<stop offset="0.817708" stop-color="#EB9659"/>
</linearGradient>
<linearGradient id="paint2_linear_833_3" x1="1.2066e-07" y1="75.4607" x2="29.5783" y2="75.5359" gradientUnits="userSpaceOnUse">
<stop stop-color="#EB5757"/>
<stop offset="0.817708" stop-color="#EB9659"/>
</linearGradient>
<linearGradient id="paint3_linear_833_3" x1="86.6167" y1="60.3666" x2="107.934" y2="60.4208" gradientUnits="userSpaceOnUse">
<stop stop-color="#EB5757"/>
<stop offset="0.817708" stop-color="#EB9659"/>
</linearGradient>
<linearGradient id="paint4_linear_833_3" x1="108.329" y1="20.4629" x2="114.998" y2="20.4799" gradientUnits="userSpaceOnUse">
<stop stop-color="#EB5757"/>
<stop offset="0.817708" stop-color="#EB9659"/>
</linearGradient>
<linearGradient id="paint5_linear_833_3" x1="52.0789" y1="78.9604" x2="58.7473" y2="78.9773" gradientUnits="userSpaceOnUse">
<stop stop-color="#EB5757"/>
<stop offset="0.817708" stop-color="#EB9659"/>
</linearGradient>
<linearGradient id="paint6_linear_833_3" x1="74.8398" y1="127.34" x2="81.5083" y2="127.357" gradientUnits="userSpaceOnUse">
<stop stop-color="#EB5757"/>
<stop offset="0.817708" stop-color="#EB9659"/>
</linearGradient>
</defs>
</svg>
