<svg width="430" height="430" viewBox="0 0 430 430" fill="none" xmlns="http://www.w3.org/2000/svg">
<path d="M214.21 134.81C208.09 134.81 201.98 133.63 196.28 131.26C194.71 130.61 193.11 130.19 191.48 130L184.2 129.16C179.17 128.58 175.38 124.32 175.38 119.26V111.92C175.38 96.51 187.92 83.98 203.32 83.98H225.26C240.67 83.98 253.2 96.52 253.2 111.92V119.26C253.2 124.32 249.41 128.58 244.38 129.16L236.7 130.05C235.16 130.23 233.66 130.62 232.22 131.22C226.5 133.61 220.36 134.81 214.21 134.81ZM187.37 117.45L192.85 118.08C195.6 118.4 198.28 119.09 200.83 120.15C209.38 123.7 219.12 123.69 227.6 120.14C230.07 119.11 232.67 118.43 235.33 118.12L241.21 117.44V111.91C241.21 103.12 234.06 95.97 225.27 95.97H203.33C194.54 95.97 187.39 103.12 187.39 111.91V117.45H187.37Z" fill="#828282"/>
<path d="M214.29 79.1C202.5 79.1 192.95 69.87 192.54 58.1L192.03 43.35C191.82 37.4 193.99 31.76 198.13 27.48C202.27 23.2 207.83 20.84 213.78 20.84H214.81C220.77 20.84 226.32 23.2 230.46 27.48C234.6 31.76 236.76 37.4 236.56 43.35L236.05 58.1C235.63 69.88 226.07 79.1 214.29 79.1ZM213.78 32.84C211.11 32.84 208.62 33.9 206.76 35.82C204.9 37.74 203.93 40.27 204.03 42.94L204.54 57.69C204.72 62.97 209.01 67.11 214.29 67.11C219.58 67.11 223.86 62.97 224.04 57.69L224.55 42.94C224.64 40.27 223.67 37.74 221.82 35.82C219.97 33.9 217.47 32.84 214.8 32.84H213.78Z" fill="#828282"/>
<path d="M214.21 409.14C208.09 409.14 201.98 407.96 196.28 405.59C194.71 404.94 193.11 404.52 191.48 404.33L184.2 403.49C179.17 402.91 175.38 398.65 175.38 393.59V386.25C175.38 370.84 187.92 358.31 203.32 358.31H225.26C240.67 358.31 253.2 370.85 253.2 386.25V393.59C253.2 398.65 249.41 402.91 244.38 403.49L236.7 404.38C235.16 404.56 233.66 404.95 232.22 405.55C226.5 407.94 220.36 409.14 214.21 409.14ZM187.37 391.78L192.85 392.41C195.6 392.73 198.28 393.42 200.83 394.48C209.38 398.03 219.12 398.02 227.6 394.47C230.07 393.44 232.67 392.76 235.33 392.45L241.21 391.77V386.24C241.21 377.45 234.06 370.3 225.27 370.3H203.33C194.54 370.3 187.39 377.45 187.39 386.24V391.78H187.37Z" fill="#828282"/>
<path d="M214.29 353.43C202.5 353.43 192.95 344.2 192.54 332.43L192.03 317.68C191.82 311.73 193.99 306.09 198.13 301.81C202.27 297.53 207.83 295.17 213.78 295.17H214.81C220.77 295.17 226.32 297.53 230.46 301.81C234.6 306.09 236.76 311.73 236.56 317.68L236.05 332.43C235.63 344.2 226.07 353.43 214.29 353.43ZM213.78 307.16C211.11 307.16 208.62 308.22 206.76 310.14C204.9 312.06 203.93 314.59 204.03 317.26L204.54 332.01C204.72 337.29 209.01 341.43 214.29 341.43C219.58 341.43 223.86 337.29 224.04 332.01L224.55 317.26C224.64 314.59 223.67 312.06 221.82 310.14C219.97 308.22 217.47 307.16 214.8 307.16H213.78Z" fill="#828282"/>
<path d="M369.41 271.95C363.29 271.95 357.18 270.77 351.48 268.4C349.91 267.75 348.31 267.33 346.68 267.14L339.4 266.3C334.37 265.72 330.58 261.46 330.58 256.4V249.06C330.58 233.65 343.12 221.12 358.52 221.12H380.46C395.87 221.12 408.4 233.66 408.4 249.06V256.4C408.4 261.46 404.61 265.72 399.58 266.3L391.9 267.19C390.36 267.37 388.85 267.76 387.42 268.36C381.7 270.76 375.56 271.95 369.41 271.95ZM342.57 254.59L348.05 255.22C350.8 255.54 353.48 256.23 356.03 257.29C364.58 260.84 374.32 260.83 382.8 257.28C385.27 256.25 387.87 255.57 390.53 255.26L396.41 254.58V249.05C396.41 240.26 389.26 233.11 380.47 233.11H358.53C349.74 233.11 342.59 240.26 342.59 249.05V254.59H342.57Z" fill="#828282"/>
<path d="M369.49 216.25C357.7 216.25 348.15 207.02 347.74 195.25L347.23 180.5C347.02 174.55 349.19 168.91 353.33 164.63C357.47 160.35 363.03 157.99 368.98 157.99H370C375.96 157.99 381.51 160.35 385.65 164.63C389.79 168.91 391.95 174.55 391.75 180.5L391.24 195.25C390.82 207.02 381.27 216.25 369.49 216.25ZM368.97 169.98C366.3 169.98 363.81 171.04 361.95 172.96C360.09 174.88 359.12 177.41 359.22 180.08L359.73 194.83C359.91 200.11 364.2 204.25 369.48 204.25C374.77 204.25 379.05 200.11 379.23 194.83L379.74 180.08C379.83 177.41 378.86 174.88 377.01 172.96C375.16 171.04 372.66 169.98 369.99 169.98H368.97Z" fill="#828282"/>
<path d="M60.43 271.95C54.31 271.95 48.2 270.77 42.5 268.4C40.93 267.75 39.33 267.33 37.7 267.14L30.42 266.3C25.39 265.72 21.59 261.46 21.59 256.4V249.06C21.59 233.65 34.13 221.12 49.53 221.12H71.47C86.88 221.12 99.41 233.66 99.41 249.06V256.4C99.41 261.46 95.62 265.72 90.59 266.3L82.91 267.19C81.37 267.37 79.87 267.76 78.44 268.36C72.73 270.76 66.58 271.95 60.43 271.95ZM33.6 254.59L39.08 255.22C41.83 255.54 44.51 256.23 47.06 257.29C55.61 260.84 65.35 260.83 73.83 257.28C76.3 256.25 78.9 255.57 81.55 255.26L87.43 254.58V249.05C87.43 240.26 80.28 233.11 71.49 233.11H49.54C40.75 233.11 33.6 240.26 33.6 249.05V254.59Z" fill="#828282"/>
<path d="M60.51 216.25C48.73 216.25 39.17 207.02 38.76 195.25L38.25 180.5C38.04 174.55 40.21 168.91 44.35 164.63C48.49 160.35 54.05 157.99 60 157.99H61.03C66.99 157.99 72.54 160.35 76.68 164.63C80.82 168.91 82.98 174.55 82.78 180.5L82.27 195.25C81.85 207.02 72.3 216.25 60.51 216.25ZM60 169.98C57.33 169.98 54.84 171.04 52.98 172.96C51.12 174.88 50.15 177.41 50.25 180.08L50.76 194.83C50.94 200.11 55.23 204.25 60.51 204.25C65.8 204.25 70.08 200.11 70.26 194.83L70.77 180.08C70.86 177.41 69.89 174.88 68.04 172.96C66.19 171.04 63.69 169.98 61.02 169.98H60Z" fill="#828282"/>
<path d="M237.92 235.13C245.78 227.17 255.91 212.83 255.91 200.77C255.91 171.5 241.91 156.65 214.29 156.65C186.67 156.65 172.67 171.49 172.67 200.77C172.67 212.83 182.8 227.17 190.66 235.13V248.32C190.66 248.4 190.65 248.49 190.65 248.57V257.24C190.65 267.21 198.76 275.32 208.73 275.32H219.85C229.82 275.32 237.93 267.21 237.93 257.24V248.57C237.93 248.49 237.92 248.42 237.92 248.34V235.13V235.13ZM184.67 200.76C184.67 177.95 193.25 168.64 214.29 168.64C235.05 168.64 243.91 178.24 243.91 200.76C243.91 208.97 234.58 221.96 227.85 228.18C226.62 229.32 225.92 230.91 225.92 232.59V242.56H202.66V232.59C202.66 230.92 201.96 229.32 200.73 228.18C194 221.96 184.67 208.97 184.67 200.76ZM225.93 257.23C225.93 260.58 223.2 263.31 219.85 263.31H208.73C205.38 263.31 202.65 260.58 202.65 257.23V254.56H225.93V257.23V257.23Z" fill="url(#paint0_linear_833_46)"/>
<path d="M355.8 139.24C353.79 139.24 351.83 138.23 350.7 136.4C332.06 106.35 303.5 83.37 270.27 71.7C267.14 70.6 265.5 67.18 266.6 64.05C267.7 60.92 271.13 59.28 274.25 60.38C310.05 72.96 340.83 97.71 360.9 130.08C362.65 132.9 361.78 136.59 358.96 138.34C357.97 138.95 356.88 139.24 355.8 139.24Z" fill="url(#paint1_linear_833_46)"/>
<path d="M72.7799 139.24C71.6999 139.24 70.6099 138.95 69.6199 138.34C66.7999 136.59 65.9399 132.89 67.6799 130.08C87.7599 97.71 118.53 72.96 154.33 60.38C157.46 59.28 160.88 60.93 161.98 64.05C163.08 67.18 161.43 70.6 158.31 71.7C125.08 83.37 96.5099 106.35 77.8799 136.4C76.7499 138.23 74.7899 139.24 72.7799 139.24Z" fill="url(#paint2_linear_833_46)"/>
<path d="M272.25 371.9C269.77 371.9 267.46 370.36 266.59 367.89C265.49 364.76 267.14 361.34 270.26 360.24C303.49 348.57 332.05 325.59 350.69 295.54C352.44 292.73 356.13 291.86 358.95 293.6C361.77 295.35 362.63 299.05 360.89 301.86C340.81 334.23 310.04 358.98 274.24 371.56C273.58 371.79 272.91 371.9 272.25 371.9Z" fill="url(#paint3_linear_833_46)"/>
<path d="M156.33 371.9C155.67 371.9 155 371.79 154.34 371.56C118.54 358.98 87.76 334.23 67.69 301.86C65.94 299.04 66.81 295.35 69.63 293.6C72.44 291.85 76.14 292.72 77.89 295.54C96.53 325.59 125.09 348.57 158.32 360.24C161.45 361.34 163.09 364.76 161.99 367.89C161.13 370.35 158.81 371.9 156.33 371.9Z" fill="url(#paint4_linear_833_46)"/>
<defs>
<linearGradient id="paint0_linear_833_46" x1="172.67" y1="207.441" x2="255.913" y2="207.589" gradientUnits="userSpaceOnUse">
<stop stop-color="#EB5757"/>
<stop offset="0.817708" stop-color="#EB9659"/>
</linearGradient>
<linearGradient id="paint1_linear_833_46" x1="266.258" y1="93.9365" x2="361.806" y2="94.2295" gradientUnits="userSpaceOnUse">
<stop stop-color="#EB5757"/>
<stop offset="0.817708" stop-color="#EB9659"/>
</linearGradient>
<linearGradient id="paint2_linear_833_46" x1="66.781" y1="93.937" x2="162.324" y2="94.23" gradientUnits="userSpaceOnUse">
<stop stop-color="#EB5757"/>
<stop offset="0.817708" stop-color="#EB9659"/>
</linearGradient>
<linearGradient id="paint3_linear_833_46" x1="266.249" y1="326.6" x2="361.792" y2="326.893" gradientUnits="userSpaceOnUse">
<stop stop-color="#EB5757"/>
<stop offset="0.817708" stop-color="#EB9659"/>
</linearGradient>
<linearGradient id="paint4_linear_833_46" x1="66.7866" y1="326.596" x2="162.335" y2="326.889" gradientUnits="userSpaceOnUse">
<stop stop-color="#EB5757"/>
<stop offset="0.817708" stop-color="#EB9659"/>
</linearGradient>
</defs>
</svg>
