<svg width="132" height="114" viewBox="0 0 132 114" fill="none" xmlns="http://www.w3.org/2000/svg">
<path d="M91.1758 50.5306C102.927 52.6745 111.471 53.7113 122.608 50.5307" stroke="#F2C94C" stroke-width="6" stroke-linecap="round" stroke-linejoin="round"/>
<path d="M90.6808 66.8656C102.308 69.42 113.935 70.3488 124.836 67.9515" stroke="#F2C94C" stroke-width="6" stroke-linecap="round" stroke-linejoin="round"/>
<path d="M87.7108 82.2106C92.6414 83.657 97.1518 84.5361 101.242 84.848C107.377 85.3159 114.978 85.444 120.381 84.1911" stroke="#F2C94C" stroke-width="6" stroke-linecap="round" stroke-linejoin="round"/>
<path d="M92.8575 94.5385C73.2271 98.3151 53.453 97.0921 33.6506 100.207" stroke="#F2C94C" stroke-width="6" stroke-linecap="round" stroke-linejoin="round"/>
<path d="M53.545 49.1886C56.0316 48.5505 57.7233 35.8925 59.7441 26.5231C62.4666 13.9004 61.4766 2.60929 70.3866 3.01037C80.5341 3.46718 77.4448 38.1098 85.9791 37.0796C95.5186 35.9281 102.379 33.8726 118.414 37.0796C134.449 40.2866 123.476 48.9818 123.476 49.5351C123.476 52.1649 128.99 50.4758 128.399 59.514C128.08 64.383 126.659 66.9494 122.485 68.6007C120.909 69.2245 125.827 74.7856 125.296 77.9797C125.296 82.8932 120.939 84.3546 120.939 86.5529C120.939 88.5503 122.535 90.5977 120.939 94.2038C118.534 99.6359 102.562 96.0706 93.3517 94.6414" stroke="#F2C94C" stroke-width="6" stroke-linecap="round" stroke-linejoin="round"/>
<path d="M31.1324 53.5975C38.7461 50.8786 45.3874 50.1333 52.3145 49.1885" stroke="#F2C94C" stroke-width="6" stroke-linecap="round" stroke-linejoin="round"/>
<path opacity="0.502139" d="M3 51.7261C9.80806 51.726 21.5983 48.8509 25.8978 51.7259C27.0423 52.4916 26.3616 56.1728 26.3616 57.3181C26.3616 63.4967 30.7589 100.396 28.6868 102.992C25.1915 107.37 11.6294 108.997 6.37263 110.915" stroke="#F2C94C" stroke-width="6" stroke-linecap="round" stroke-linejoin="round"/>
</svg>
